<?xml version="1.0" encoding="UTF-8"?>
<svg id="Layer_2" data-name="Layer 2" xmlns="http://www.w3.org/2000/svg" viewBox="0 0 162.39 294.63">
  <defs>
    <style>
      .cls-1 {
        stroke: #006937;
        stroke-miterlimit: 10;
        stroke-width: 3px;
      }

      .cls-1, .cls-2, .cls-3 {
        fill: none;
        stroke-linecap: round;
      }

      .cls-2 {
        stroke-width: 3.17px;
      }

      .cls-2, .cls-3 {
        stroke: #fff;
        stroke-linejoin: round;
      }

      .cls-3 {
        stroke-width: 2.82px;
      }

      .cls-4 {
        fill: #9c654a;
      }

      .cls-4, .cls-5, .cls-6 {
        stroke-width: 0px;
      }

      .cls-5 {
        fill: #3bb54a;
      }

      .cls-6 {
        fill: #009247;
      }
    </style>
  </defs>
  <g id="Layer_2-2" data-name="Layer 2">
    <g>
      <polyline class="cls-2" points="18.2 162.63 81.2 73.49 144.19 162.63"/>
      <path class="cls-4" d="m9.46,157.93c29.57,23.83,32.39,37.32,28.69,45.37-4.37,9.5-17.51,8.5-28.69,22.68-1.33,1.69-14.9,19.45-7.01,36.64,4.83,10.53,15.43,15.86,24.23,20.15,32.45,15.82,76.57,15.82,109.03,0,8.8-4.29,19.39-9.62,24.23-20.15,7.89-17.19-5.67-34.95-7.01-36.64-11.19-14.18-24.32-13.19-28.69-22.68-3.51-7.62-.85-20.87,28.69-45.37"/>
      <circle class="cls-5" cx="41.23" cy="178.4" r="2.19"/>
      <circle class="cls-6" cx="43.42" cy="165.92" r="2.19"/>
      <circle class="cls-6" cx="35.12" cy="184.49" r="2.19"/>
      <ellipse class="cls-5" cx="33.95" cy="171.26" rx="3.64" ry="3.16"/>
      <ellipse class="cls-6" cx="37.59" cy="158.55" rx="3.64" ry="3.16"/>
      <ellipse class="cls-6" cx="35.12" cy="178.37" rx="2.47" ry="3.16"/>
      <ellipse class="cls-5" cx="46.44" cy="158.09" rx="2.47" ry="3.16"/>
      <ellipse class="cls-5" cx="52.53" cy="179.4" rx="3.64" ry="3.16" transform="translate(-41.02 17.56) rotate(-13.71)"/>
      <ellipse class="cls-5" cx="58.89" cy="163.73" rx="3.64" ry="3.16" transform="translate(-37.12 18.62) rotate(-13.71)"/>
      <ellipse class="cls-6" cx="72.64" cy="158.52" rx="3.64" ry="3.16"/>
      <path class="cls-6" d="m60.57,193.32c2.01,0,3.64-1.42,3.64-3.16s-1.63-3.16-3.64-3.16-3.64,1.42-3.64,3.16,1.63,3.16,3.64,3.16Z"/>
      <ellipse class="cls-5" cx="63.55" cy="172.57" rx="2.47" ry="3.16"/>
      <ellipse class="cls-6" cx="66.73" cy="164.87" rx="2.47" ry="3.16"/>
      <ellipse class="cls-6" cx="60.57" cy="179.4" rx="2.47" ry="3.16"/>
      <path class="cls-5" d="m55.65,191.37c0-1.21-.98-2.19-2.19-2.19s-2.19.98-2.19,2.19.98,2.19,2.19,2.19,2.19-.98,2.19-2.19"/>
      <circle class="cls-6" cx="56.93" cy="171.26" r="2.19"/>
      <ellipse class="cls-5" cx="92.85" cy="189.18" rx="3.64" ry="3.16"/>
      <ellipse class="cls-5" cx="96.63" cy="163.22" rx="3.64" ry="3.16"/>
      <ellipse class="cls-6" cx="89.2" cy="166.39" rx="3.64" ry="3.16"/>
      <ellipse class="cls-5" cx="86.62" cy="158.09" rx="2.47" ry="3.16"/>
      <ellipse class="cls-5" cx="100.27" cy="178.37" rx="2.47" ry="3.16"/>
      <ellipse class="cls-6" cx="92.85" cy="156.9" rx="2.47" ry="3.16"/>
      <ellipse class="cls-6" cx="93.86" cy="205.6" rx="2.47" ry="3.16"/>
      <circle class="cls-5" cx="89.09" cy="153.74" r="2.19"/>
      <circle class="cls-5" cx="97.8" cy="197.09" r="2.19"/>
      <circle class="cls-6" cx="97.16" cy="169.41" r="2.19"/>
      <circle class="cls-6" cx="93.86" cy="180.58" r="2.19"/>
      <circle class="cls-6" cx="99.99" cy="187.97" r="2.19"/>
      <path class="cls-6" d="m91.67,199.28c1.21,0,2.19-.98,2.19-2.19s-.98-2.19-2.19-2.19-2.19.98-2.19,2.19.98,2.19,2.19,2.19Z"/>
      <ellipse class="cls-5" cx="67.7" cy="155.58" rx="2.47" ry="3.16"/>
      <ellipse class="cls-5" cx="102.74" cy="156.06" rx="3.64" ry="3.16"/>
      <ellipse class="cls-6" cx="114.07" cy="175.2" rx="3.64" ry="3.16"/>
      <ellipse class="cls-6" cx="109.36" cy="152.9" rx="3.64" ry="3.16"/>
      <ellipse class="cls-5" cx="111.55" cy="161.26" rx="2.47" ry="3.16"/>
      <ellipse class="cls-6" cx="106.58" cy="173.45" rx="2.47" ry="3.16"/>
      <ellipse class="cls-6" cx="107.96" cy="189.18" rx="2.47" ry="3.16"/>
      <circle class="cls-5" cx="104.99" cy="161.71" r="2.19"/>
      <circle class="cls-5" cx="112.83" cy="169.55" r="2.19"/>
      <circle class="cls-5" cx="114.5" cy="190.4" r="2.19"/>
      <circle class="cls-6" cx="114.02" cy="182.31" r="2.19"/>
      <ellipse class="cls-6" cx="42.41" cy="153.74" rx="2.47" ry="3.16"/>
      <ellipse class="cls-5" cx="128.44" cy="156.9" rx="3.64" ry="3.16"/>
      <ellipse class="cls-6" cx="120.25" cy="163.22" rx="3.64" ry="3.16"/>
      <ellipse class="cls-5" cx="122.61" cy="152.9" rx="2.47" ry="3.16"/>
      <ellipse class="cls-6" cx="129.29" cy="165.92" rx="2.47" ry="3.16"/>
      <circle class="cls-5" cx="122.61" cy="169.08" r="2.19"/>
      <circle class="cls-6" cx="129.29" cy="173.45" r="2.19"/>
      <polyline class="cls-3" points="81.2 1.41 81.2 65.32 81.2 73.49"/>
      <path class="cls-1" d="m106.12,154.65c4.31,15.23,5.22,27.61,5.27,36.05,0,1.17,0,2.23-.03,3.22"/>
      <path class="cls-1" d="m68.72,158.09c-8.15,8.86-10.76,17.17-11.75,21.87-.92,4.37-.94,8.09-.64,13.96"/>
      <path class="cls-1" d="m87.89,155.87c4.96,7.82,10.77,19.89,8.91,33.62-1.1,8.08-4.03,10.73-6.92,17.3"/>
      <path class="cls-1" d="m44.6,155.31c-1.69,2.43-3.61,5.77-5,10-1,3.06-2.07,7.98-1.05,20.27"/>
      <path class="cls-1" d="m123.78,156.5c1.22,5.29,2.32,11.1,3.16,17.37.32,2.38.59,4.4.81,6.35"/>
    </g>
  </g>
</svg>