<?xml version="1.0" encoding="UTF-8"?>
<svg id="Layer_2" data-name="Layer 2" xmlns="http://www.w3.org/2000/svg" viewBox="0 0 162.39 315.33">
  <defs>
    <style>
      .cls-1 {
        stroke: #006937;
        stroke-miterlimit: 10;
        stroke-width: 3px;
      }

      .cls-1, .cls-2, .cls-3 {
        fill: none;
        stroke-linecap: round;
      }

      .cls-2 {
        stroke-width: 3.17px;
      }

      .cls-2, .cls-3 {
        stroke: #fff;
        stroke-linejoin: round;
      }

      .cls-3 {
        stroke-width: 2.82px;
      }

      .cls-4 {
        fill: #9c654a;
      }

      .cls-4, .cls-5, .cls-6 {
        stroke-width: 0px;
      }

      .cls-5 {
        fill: #3bb54a;
      }

      .cls-6 {
        fill: #009247;
      }
    </style>
  </defs>
  <g id="Layer_2-2" data-name="Layer 2">
    <g>
      <polyline class="cls-2" points="18.2 162.63 81.2 73.49 144.19 162.63"/>
      <path class="cls-4" d="m9.46,157.93c29.57,23.83,32.39,37.32,28.69,45.37-4.37,9.5-17.51,8.5-28.69,22.68-1.33,1.69-14.9,19.45-7.01,36.64,4.83,10.53,15.43,15.86,24.23,20.15,32.45,15.82,76.57,15.82,109.03,0,8.8-4.29,19.39-9.62,24.23-20.15,7.89-17.19-5.67-34.95-7.01-36.64-11.19-14.18-24.32-13.19-28.69-22.68-3.51-7.62-.85-20.87,28.69-45.37"/>
      <circle class="cls-5" cx="42.11" cy="177.8" r="2.19"/>
      <circle class="cls-5" cx="43.29" cy="189.56" r="2.19"/>
      <circle class="cls-5" cx="44.3" cy="201.33" r="2.19"/>
      <circle class="cls-5" cx="33.81" cy="213.2" r="2.19"/>
      <circle class="cls-5" cx="38.19" cy="220.09" r="2.19"/>
      <circle class="cls-5" cx="35.29" cy="240.58" r="2.19"/>
      <circle class="cls-6" cx="44.3" cy="165.32" r="2.19"/>
      <circle class="cls-6" cx="38.47" cy="199.6" r="2.19"/>
      <circle class="cls-6" cx="36" cy="183.9" r="2.19"/>
      <circle class="cls-6" cx="29.44" cy="222.28" r="2.19"/>
      <circle class="cls-6" cx="28.01" cy="240.29" r="2.19"/>
      <ellipse class="cls-5" cx="34.82" cy="170.67" rx="3.64" ry="3.16"/>
      <ellipse class="cls-5" cx="44.3" cy="210.64" rx="3.64" ry="3.16" transform="translate(-48.66 16.5) rotate(-13.71)"/>
      <ellipse class="cls-5" cx="27.25" cy="231.29" rx="3.16" ry="3.64" transform="translate(-201.15 185.79) rotate(-72.01)"/>
      <ellipse class="cls-6" cx="36" cy="191.75" rx="3.64" ry="3.16"/>
      <ellipse class="cls-6" cx="38.47" cy="157.96" rx="3.64" ry="3.16"/>
      <ellipse class="cls-6" cx="36" cy="226.28" rx="2.47" ry="3.16"/>
      <ellipse class="cls-6" cx="27.82" cy="252.93" rx="2.47" ry="3.16"/>
      <ellipse class="cls-6" cx="36" cy="177.78" rx="2.47" ry="3.16"/>
      <ellipse class="cls-5" cx="47.32" cy="157.5" rx="2.47" ry="3.16"/>
      <ellipse class="cls-5" cx="35.29" cy="247.39" rx="2.47" ry="3.16"/>
      <ellipse class="cls-6" cx="33.81" cy="259.83" rx="3.64" ry="3.16"/>
      <ellipse class="cls-6" cx="23.61" cy="293.2" rx="3.64" ry="3.16"/>
      <circle class="cls-6" cx="26.23" cy="265.57" r="2.19"/>
      <circle class="cls-6" cx="32.82" cy="274.91" r="2.19"/>
      <circle class="cls-6" cx="25.07" cy="284.39" r="2.19"/>
      <circle class="cls-5" cx="25.75" cy="272.59" r="2.19"/>
      <circle class="cls-5" cx="31.99" cy="281.82" r="2.19"/>
      <circle class="cls-5" cx="30.92" cy="289.29" r="2.19"/>
      <circle class="cls-5" cx="32.82" cy="266.64" r="2.19"/>
      <ellipse class="cls-5" cx="52.15" cy="298.9" rx="3.64" ry="3.16" transform="translate(-69.35 20.87) rotate(-13.71)"/>
      <ellipse class="cls-5" cx="43.29" cy="282.2" rx="3.64" ry="3.16" transform="translate(-65.64 18.3) rotate(-13.71)"/>
      <ellipse class="cls-5" cx="59.39" cy="262.99" rx="3.64" ry="3.16" transform="translate(-60.63 21.57) rotate(-13.71)"/>
      <ellipse class="cls-5" cx="55.77" cy="242.48" rx="3.64" ry="3.16" transform="translate(-55.88 20.12) rotate(-13.71)"/>
      <ellipse class="cls-5" cx="61.95" cy="201.33" rx="3.64" ry="3.16" transform="translate(-45.95 20.42) rotate(-13.71)"/>
      <ellipse class="cls-5" cx="53.41" cy="178.81" rx="3.64" ry="3.16" transform="translate(-40.85 17.75) rotate(-13.71)"/>
      <ellipse class="cls-5" cx="59.77" cy="163.14" rx="3.64" ry="3.16" transform="translate(-36.96 18.81) rotate(-13.71)"/>
      <ellipse class="cls-6" cx="55.71" cy="225.94" rx="3.64" ry="3.16"/>
      <ellipse class="cls-6" cx="43.29" cy="308.07" rx="3.64" ry="3.16"/>
      <ellipse class="cls-6" cx="47.32" cy="267.76" rx="3.64" ry="3.16"/>
      <ellipse class="cls-6" cx="73.51" cy="157.93" rx="3.64" ry="3.16"/>
      <ellipse class="cls-6" cx="61.45" cy="189.56" rx="3.64" ry="3.16"/>
      <ellipse class="cls-5" cx="62.67" cy="215.38" rx="2.47" ry="3.16"/>
      <ellipse class="cls-5" cx="61.95" cy="244.23" rx="2.47" ry="3.16"/>
      <ellipse class="cls-5" cx="44.85" cy="294.21" rx="2.47" ry="3.16"/>
      <ellipse class="cls-5" cx="64.42" cy="171.98" rx="2.47" ry="3.16"/>
      <ellipse class="cls-5" cx="50.96" cy="276.79" rx="2.47" ry="3.16"/>
      <ellipse class="cls-6" cx="67.61" cy="164.28" rx="2.47" ry="3.16"/>
      <ellipse class="cls-6" cx="50.96" cy="290.04" rx="2.47" ry="3.16"/>
      <ellipse class="cls-6" cx="54.57" cy="252.74" rx="2.47" ry="3.16"/>
      <ellipse class="cls-6" cx="61.45" cy="178.81" rx="2.47" ry="3.16"/>
      <circle class="cls-5" cx="54.34" cy="190.78" r="2.19"/>
      <circle class="cls-5" cx="57.96" cy="233.25" r="2.19"/>
      <circle class="cls-5" cx="49.83" cy="309" r="2.19"/>
      <circle class="cls-5" cx="52.15" cy="262.02" r="2.19"/>
      <circle class="cls-5" cx="55.77" cy="212.22" r="2.19"/>
      <circle class="cls-6" cx="61.45" cy="208.37" r="2.19"/>
      <circle class="cls-6" cx="57.81" cy="170.67" r="2.19"/>
      <circle class="cls-6" cx="45.47" cy="301.14" r="2.19"/>
      <circle class="cls-6" cx="54.57" cy="201.33" r="2.19"/>
      <circle class="cls-6" cx="63.92" cy="229.81" r="2.19"/>
      <circle class="cls-6" cx="60.2" cy="255.12" r="2.19"/>
      <ellipse class="cls-5" cx="81.82" cy="308.07" rx="3.64" ry="3.16"/>
      <ellipse class="cls-5" cx="75.57" cy="287.55" rx="3.64" ry="3.16"/>
      <ellipse class="cls-5" cx="91.14" cy="247.39" rx="3.64" ry="3.16"/>
      <ellipse class="cls-5" cx="93.72" cy="188.59" rx="3.64" ry="3.16"/>
      <ellipse class="cls-5" cx="97.5" cy="162.63" rx="3.64" ry="3.16"/>
      <ellipse class="cls-6" cx="74.49" cy="312.17" rx="3.64" ry="3.16"/>
      <ellipse class="cls-6" cx="87.49" cy="273.62" rx="3.64" ry="3.16"/>
      <ellipse class="cls-6" cx="83.85" cy="244.23" rx="3.64" ry="3.16"/>
      <ellipse class="cls-6" cx="90.08" cy="165.79" rx="3.64" ry="3.16"/>
      <ellipse class="cls-6" cx="95.66" cy="205.01" rx="3.64" ry="3.16"/>
      <ellipse class="cls-5" cx="81.82" cy="299.77" rx="2.47" ry="3.16"/>
      <ellipse class="cls-5" cx="83.57" cy="233.25" rx="2.47" ry="3.16"/>
      <ellipse class="cls-5" cx="87.49" cy="157.5" rx="2.47" ry="3.16"/>
      <ellipse class="cls-5" cx="101.15" cy="177.78" rx="2.47" ry="3.16"/>
      <ellipse class="cls-5" cx="81.2" cy="262.99" rx="2.47" ry="3.16"/>
      <ellipse class="cls-5" cx="90.08" cy="222.28" rx="2.47" ry="3.16"/>
      <ellipse class="cls-6" cx="91.26" cy="214.41" rx="2.47" ry="3.16"/>
      <ellipse class="cls-6" cx="93.72" cy="156.31" rx="2.47" ry="3.16"/>
      <ellipse class="cls-6" cx="88.91" cy="201.85" rx="2.47" ry="3.16"/>
      <ellipse class="cls-6" cx="90.08" cy="238.4" rx="2.47" ry="3.16"/>
      <ellipse class="cls-6" cx="75.57" cy="296.37" rx="2.47" ry="3.16"/>
      <ellipse class="cls-6" cx="79.21" cy="275.27" rx="2.47" ry="3.16"/>
      <circle class="cls-5" cx="88.91" cy="253.71" r="2.19"/>
      <circle class="cls-5" cx="87.49" cy="266.64" r="2.19"/>
      <circle class="cls-5" cx="89.96" cy="153.14" r="2.19"/>
      <circle class="cls-5" cx="85.76" cy="213.2" r="2.19"/>
      <circle class="cls-5" cx="83.57" cy="287.52" r="2.19"/>
      <circle class="cls-5" cx="83.57" cy="255.12" r="2.19"/>
      <circle class="cls-5" cx="98.68" cy="196.5" r="2.19"/>
      <circle class="cls-6" cx="78.73" cy="282.2" r="2.19"/>
      <circle class="cls-6" cx="86.72" cy="208.37" r="2.19"/>
      <circle class="cls-6" cx="98.03" cy="168.82" r="2.19"/>
      <circle class="cls-6" cx="94.74" cy="179.99" r="2.19"/>
      <circle class="cls-6" cx="100.86" cy="187.38" r="2.19"/>
      <circle class="cls-6" cx="92.55" cy="196.5" r="2.19"/>
      <circle class="cls-6" cx="88.91" cy="229.45" r="2.19"/>
      <ellipse class="cls-5" cx="68.58" cy="154.99" rx="2.47" ry="3.16"/>
      <ellipse class="cls-5" cx="114.95" cy="301.14" rx="3.64" ry="3.16"/>
      <ellipse class="cls-5" cx="109.78" cy="262.02" rx="3.64" ry="3.16"/>
      <ellipse class="cls-5" cx="118.59" cy="276.79" rx="3.64" ry="3.16"/>
      <ellipse class="cls-5" cx="107.26" cy="197.42" rx="3.64" ry="3.16"/>
      <ellipse class="cls-5" cx="114.95" cy="238.4" rx="3.64" ry="3.16"/>
      <ellipse class="cls-5" cx="103.62" cy="155.47" rx="3.64" ry="3.16"/>
      <ellipse class="cls-6" cx="114.95" cy="174.61" rx="3.64" ry="3.16"/>
      <ellipse class="cls-6" cx="110.24" cy="152.31" rx="3.64" ry="3.16"/>
      <ellipse class="cls-6" cx="107.83" cy="303.33" rx="3.64" ry="3.16"/>
      <ellipse class="cls-6" cx="117.48" cy="259.83" rx="3.64" ry="3.16"/>
      <ellipse class="cls-6" cx="106.14" cy="219.12" rx="3.64" ry="3.16"/>
      <ellipse class="cls-5" cx="115.9" cy="293.2" rx="2.47" ry="3.16"/>
      <ellipse class="cls-5" cx="108.05" cy="233.25" rx="2.47" ry="3.16"/>
      <ellipse class="cls-5" cx="114.95" cy="196.5" rx="2.47" ry="3.16"/>
      <ellipse class="cls-5" cx="112.43" cy="160.67" rx="2.47" ry="3.16"/>
      <ellipse class="cls-5" cx="113.43" cy="215.38" rx="2.47" ry="3.16"/>
      <ellipse class="cls-5" cx="111.3" cy="285.33" rx="2.47" ry="3.16"/>
      <ellipse class="cls-6" cx="114.89" cy="205.01" rx="2.47" ry="3.16"/>
      <ellipse class="cls-6" cx="107.46" cy="172.86" rx="2.47" ry="3.16"/>
      <ellipse class="cls-6" cx="108.83" cy="188.59" rx="2.47" ry="3.16"/>
      <ellipse class="cls-6" cx="111.3" cy="273.62" rx="2.47" ry="3.16"/>
      <ellipse class="cls-6" cx="108.83" cy="241.56" rx="2.47" ry="3.16"/>
      <circle class="cls-5" cx="117.48" cy="283.15" r="2.19"/>
      <circle class="cls-5" cx="105.87" cy="161.12" r="2.19"/>
      <circle class="cls-5" cx="113.71" cy="168.96" r="2.19"/>
      <circle class="cls-5" cx="115.38" cy="189.81" r="2.19"/>
      <circle class="cls-5" cx="115.9" cy="252.93" r="2.19"/>
      <circle class="cls-5" cx="108.05" cy="205.01" r="2.19"/>
      <circle class="cls-6" cx="114.89" cy="181.71" r="2.19"/>
      <circle class="cls-6" cx="109.78" cy="296.61" r="2.19"/>
      <circle class="cls-6" cx="117.41" cy="270.4" r="2.19"/>
      <circle class="cls-6" cx="110.24" cy="253.71" r="2.19"/>
      <circle class="cls-6" cx="113.71" cy="222.28" r="2.19"/>
      <ellipse class="cls-6" cx="43.29" cy="153.14" rx="2.47" ry="3.16"/>
      <ellipse class="cls-5" cx="139.23" cy="293.2" rx="3.64" ry="3.16"/>
      <ellipse class="cls-5" cx="131" cy="274.91" rx="3.64" ry="3.16"/>
      <ellipse class="cls-5" cx="139.23" cy="240.29" rx="3.64" ry="3.16"/>
      <ellipse class="cls-5" cx="124.66" cy="183.15" rx="3.64" ry="3.16"/>
      <ellipse class="cls-5" cx="129.32" cy="156.31" rx="3.64" ry="3.16"/>
      <ellipse class="cls-6" cx="121.12" cy="162.63" rx="3.64" ry="3.16"/>
      <ellipse class="cls-6" cx="132.96" cy="191.75" rx="3.64" ry="3.16"/>
      <ellipse class="cls-6" cx="131" cy="242.77" rx="3.64" ry="3.16"/>
      <ellipse class="cls-6" cx="140.99" cy="265.57" rx="3.64" ry="3.16"/>
      <ellipse class="cls-6" cx="124.66" cy="220.09" rx="3.64" ry="3.16"/>
      <ellipse class="cls-5" cx="133.47" cy="249.57" rx="2.47" ry="3.16"/>
      <ellipse class="cls-5" cx="140.99" cy="258.37" rx="2.47" ry="3.16"/>
      <ellipse class="cls-5" cx="132.63" cy="223.26" rx="2.47" ry="3.16"/>
      <ellipse class="cls-5" cx="124.77" cy="207.2" rx="2.47" ry="3.16"/>
      <ellipse class="cls-5" cx="123.48" cy="152.31" rx="2.47" ry="3.16"/>
      <ellipse class="cls-6" cx="130.16" cy="165.32" rx="2.47" ry="3.16"/>
      <ellipse class="cls-6" cx="138.52" cy="274.91" rx="2.47" ry="3.16"/>
      <ellipse class="cls-6" cx="133.47" cy="258.84" rx="2.47" ry="3.16"/>
      <ellipse class="cls-6" cx="131.94" cy="205.01" rx="2.47" ry="3.16"/>
      <circle class="cls-5" cx="134.41" cy="264.6" r="2.19"/>
      <circle class="cls-5" cx="131.94" cy="288.5" r="2.19"/>
      <circle class="cls-5" cx="130.16" cy="235.23" r="2.19"/>
      <circle class="cls-5" cx="131" cy="214.13" r="2.19"/>
      <circle class="cls-5" cx="123.48" cy="168.49" r="2.19"/>
      <circle class="cls-6" cx="140.1" cy="249.33" r="2.19"/>
      <circle class="cls-6" cx="126.84" cy="227.26" r="2.19"/>
      <circle class="cls-6" cx="131.94" cy="181.82" r="2.19"/>
      <circle class="cls-6" cx="125.68" cy="198.69" r="2.19"/>
      <circle class="cls-6" cx="130.16" cy="172.86" r="2.19"/>
      <circle class="cls-6" cx="137.91" cy="283.15" r="2.19"/>
      <circle class="cls-6" cx="132.23" cy="281.65" r="2.19"/>
      <circle class="cls-6" cx="125.95" cy="190.78" r="2.19"/>
      <polyline class="cls-3" points="81.2 1.41 81.2 65.32 81.2 73.49"/>
      <path class="cls-1" d="m106.99,154.06c4.31,15.23,5.22,27.61,5.27,36.05.06,11.5-1.49,13.47-1.62,28.36-.07,8.26.63,16.96,2.03,34.03,1.94,23.68,2.73,25.7,2.03,32.41-.66,6.25-2.14,11.99-4.08,17.19"/>
      <path class="cls-1" d="m69.6,157.5c-8.15,8.86-10.76,17.17-11.75,21.87-1.12,5.35-.9,9.71-.41,18.23.68,11.73,2.06,14.85,2.84,23.09.41,4.4,1.59,18.11-2.43,33.22-4.51,16.93-10.67,17.3-10.13,28.36.19,3.95,1.29,10.28.41,20.25-.24,2.73-.57,4.97-.81,6.48"/>
      <path class="cls-1" d="m88.77,155.27c4.96,7.82,10.77,19.89,8.91,33.62-1.46,10.78-6.2,11.88-9.72,25.52-4.02,15.55,1.04,18.37-1.62,40.91-1.23,10.4-2.38,10.47-5.27,27.95-1.95,11.85-3.04,21.59-3.65,27.95"/>
      <path class="cls-1" d="m45.47,154.72c-1.69,2.43-3.61,5.77-5,10-1,3.06-2.07,7.98-1.05,20.27,1.18,14.24,3.12,13.3,2.37,18.95-1.25,9.47-6.39,9.75-9.21,20.79-1.65,6.47.17,6.17-.79,20.53-.88,13.18-2.32,12.16-2.63,23.16-.15,5.41.08,10.07-1.05,17.63-.52,3.45-1.13,6.27-1.58,8.16"/>
      <path class="cls-1" d="m124.66,155.91c1.22,5.29,2.32,11.1,3.16,17.37.7,5.26,1.19,8.79,1.32,13.69.17,6.7-.51,8.57-.79,17.9-.19,6.33-.29,9.49,0,12.63,1.01,11.13,4.7,12.5,7.37,25.27.62,2.99,1.9,9.99,1.58,18.95-.24,6.58-1.93,9.3-2.37,16.58-.38,6.32.24,11.49.79,14.74"/>
    </g>
  </g>
</svg>