<?xml version="1.0" encoding="UTF-8"?>
<svg id="Layer_2" data-name="Layer 2" xmlns="http://www.w3.org/2000/svg" viewBox="0 0 162.39 294.63">
  <defs>
    <style>
      .cls-1 {
        stroke: #006937;
        stroke-miterlimit: 10;
        stroke-width: 3px;
      }

      .cls-1, .cls-2, .cls-3 {
        fill: none;
        stroke-linecap: round;
      }

      .cls-2 {
        stroke-width: 3.17px;
      }

      .cls-2, .cls-3 {
        stroke: #fff;
        stroke-linejoin: round;
      }

      .cls-3 {
        stroke-width: 2.82px;
      }

      .cls-4 {
        fill: #9c654a;
      }

      .cls-4, .cls-5, .cls-6 {
        stroke-width: 0px;
      }

      .cls-5 {
        fill: #3bb54a;
      }

      .cls-6 {
        fill: #009247;
      }
    </style>
  </defs>
  <g id="Layer_2-2" data-name="Layer 2">
    <g>
      <polyline class="cls-2" points="18.2 162.63 81.2 73.49 144.19 162.63"/>
      <path class="cls-4" d="m9.46,157.93c29.57,23.83,32.39,37.32,28.69,45.37-4.37,9.5-17.51,8.5-28.69,22.68-1.33,1.69-14.9,19.45-7.01,36.64,4.83,10.53,15.43,15.86,24.23,20.15,32.45,15.82,76.57,15.82,109.03,0,8.8-4.29,19.39-9.62,24.23-20.15,7.89-17.19-5.67-34.95-7.01-36.64-11.19-14.18-24.32-13.19-28.69-22.68-3.51-7.62-.85-20.87,28.69-45.37"/>
      <circle class="cls-5" cx="37.44" cy="176.99" r="2.19"/>
      <circle class="cls-5" cx="38.62" cy="188.75" r="2.19"/>
      <circle class="cls-5" cx="39.63" cy="200.51" r="2.19"/>
      <circle class="cls-5" cx="29.14" cy="212.38" r="2.19"/>
      <circle class="cls-5" cx="33.52" cy="219.28" r="2.19"/>
      <circle class="cls-6" cx="39.63" cy="164.51" r="2.19"/>
      <circle class="cls-6" cx="33.8" cy="198.79" r="2.19"/>
      <circle class="cls-6" cx="31.33" cy="183.09" r="2.19"/>
      <ellipse class="cls-5" cx="30.16" cy="169.86" rx="3.64" ry="3.16"/>
      <ellipse class="cls-5" cx="39.63" cy="209.82" rx="3.64" ry="3.16" transform="translate(-48.6 15.37) rotate(-13.71)"/>
      <ellipse class="cls-6" cx="31.33" cy="190.94" rx="3.64" ry="3.16"/>
      <ellipse class="cls-6" cx="33.8" cy="157.14" rx="3.64" ry="3.16"/>
      <ellipse class="cls-6" cx="31.33" cy="176.96" rx="2.47" ry="3.16"/>
      <ellipse class="cls-5" cx="42.65" cy="156.69" rx="2.47" ry="3.16"/>
      <ellipse class="cls-5" cx="57.29" cy="200.51" rx="3.64" ry="3.16" transform="translate(-45.89 19.29) rotate(-13.71)"/>
      <ellipse class="cls-5" cx="48.74" cy="178" rx="3.64" ry="3.16" transform="translate(-40.79 16.62) rotate(-13.71)"/>
      <ellipse class="cls-5" cx="55.1" cy="162.32" rx="3.64" ry="3.16" transform="translate(-36.9 17.68) rotate(-13.71)"/>
      <ellipse class="cls-6" cx="51.04" cy="225.13" rx="3.64" ry="3.16"/>
      <ellipse class="cls-6" cx="68.84" cy="157.12" rx="3.64" ry="3.16"/>
      <ellipse class="cls-6" cx="56.78" cy="188.75" rx="3.64" ry="3.16"/>
      <ellipse class="cls-5" cx="58" cy="214.57" rx="2.47" ry="3.16"/>
      <ellipse class="cls-5" cx="59.75" cy="171.16" rx="2.47" ry="3.16"/>
      <ellipse class="cls-6" cx="62.94" cy="163.47" rx="2.47" ry="3.16"/>
      <ellipse class="cls-6" cx="56.78" cy="178" rx="2.47" ry="3.16"/>
      <circle class="cls-5" cx="49.67" cy="189.96" r="2.19"/>
      <circle class="cls-5" cx="53.29" cy="232.44" r="2.19"/>
      <circle class="cls-5" cx="51.1" cy="211.41" r="2.19"/>
      <circle class="cls-6" cx="56.78" cy="207.56" r="2.19"/>
      <circle class="cls-6" cx="53.14" cy="169.86" r="2.19"/>
      <circle class="cls-6" cx="49.9" cy="200.51" r="2.19"/>
      <circle class="cls-6" cx="59.25" cy="228.99" r="2.19"/>
      <ellipse class="cls-5" cx="86.47" cy="246.58" rx="3.64" ry="3.16"/>
      <ellipse class="cls-5" cx="89.06" cy="187.78" rx="3.64" ry="3.16"/>
      <ellipse class="cls-5" cx="92.83" cy="161.82" rx="3.64" ry="3.16"/>
      <ellipse class="cls-6" cx="79.18" cy="243.41" rx="3.64" ry="3.16"/>
      <ellipse class="cls-6" cx="85.41" cy="164.98" rx="3.64" ry="3.16"/>
      <ellipse class="cls-6" cx="90.99" cy="204.2" rx="3.64" ry="3.16"/>
      <ellipse class="cls-5" cx="78.9" cy="232.44" rx="2.47" ry="3.16"/>
      <ellipse class="cls-5" cx="82.82" cy="156.69" rx="2.47" ry="3.16"/>
      <ellipse class="cls-5" cx="96.48" cy="176.96" rx="2.47" ry="3.16"/>
      <ellipse class="cls-5" cx="85.41" cy="221.47" rx="2.47" ry="3.16"/>
      <ellipse class="cls-6" cx="86.59" cy="213.59" rx="2.47" ry="3.16"/>
      <ellipse class="cls-6" cx="89.06" cy="155.49" rx="2.47" ry="3.16"/>
      <ellipse class="cls-6" cx="84.24" cy="201.04" rx="2.47" ry="3.16"/>
      <ellipse class="cls-6" cx="85.41" cy="237.58" rx="2.47" ry="3.16"/>
      <circle class="cls-5" cx="84.24" cy="252.9" r="2.19"/>
      <circle class="cls-5" cx="85.29" cy="152.33" r="2.19"/>
      <circle class="cls-5" cx="81.09" cy="212.38" r="2.19"/>
      <circle class="cls-5" cx="78.9" cy="254.31" r="2.19"/>
      <circle class="cls-5" cx="94.01" cy="195.69" r="2.19"/>
      <circle class="cls-6" cx="82.05" cy="207.56" r="2.19"/>
      <circle class="cls-6" cx="93.36" cy="168" r="2.19"/>
      <circle class="cls-6" cx="90.07" cy="179.18" r="2.19"/>
      <circle class="cls-6" cx="96.2" cy="186.56" r="2.19"/>
      <circle class="cls-6" cx="87.88" cy="195.69" r="2.19"/>
      <circle class="cls-6" cx="84.24" cy="228.63" r="2.19"/>
      <ellipse class="cls-5" cx="63.91" cy="154.17" rx="2.47" ry="3.16"/>
      <ellipse class="cls-5" cx="102.59" cy="196.6" rx="3.64" ry="3.16"/>
      <ellipse class="cls-5" cx="110.28" cy="237.58" rx="3.64" ry="3.16"/>
      <ellipse class="cls-5" cx="98.95" cy="154.66" rx="3.64" ry="3.16"/>
      <ellipse class="cls-6" cx="110.28" cy="173.8" rx="3.64" ry="3.16"/>
      <ellipse class="cls-6" cx="105.57" cy="151.5" rx="3.64" ry="3.16"/>
      <ellipse class="cls-6" cx="101.47" cy="218.3" rx="3.64" ry="3.16"/>
      <ellipse class="cls-5" cx="103.38" cy="232.44" rx="2.47" ry="3.16"/>
      <ellipse class="cls-5" cx="110.28" cy="195.69" rx="2.47" ry="3.16"/>
      <ellipse class="cls-5" cx="107.76" cy="159.85" rx="2.47" ry="3.16"/>
      <ellipse class="cls-5" cx="108.76" cy="214.57" rx="2.47" ry="3.16"/>
      <ellipse class="cls-6" cx="110.23" cy="204.2" rx="2.47" ry="3.16"/>
      <ellipse class="cls-6" cx="102.79" cy="172.05" rx="2.47" ry="3.16"/>
      <ellipse class="cls-6" cx="104.16" cy="187.78" rx="2.47" ry="3.16"/>
      <ellipse class="cls-6" cx="104.16" cy="240.75" rx="2.47" ry="3.16"/>
      <circle class="cls-5" cx="101.2" cy="160.3" r="2.19"/>
      <circle class="cls-5" cx="109.04" cy="168.14" r="2.19"/>
      <circle class="cls-5" cx="110.71" cy="189" r="2.19"/>
      <circle class="cls-5" cx="103.38" cy="204.2" r="2.19"/>
      <circle class="cls-6" cx="110.23" cy="180.9" r="2.19"/>
      <circle class="cls-6" cx="109.04" cy="221.47" r="2.19"/>
      <ellipse class="cls-6" cx="38.62" cy="152.33" rx="2.47" ry="3.16"/>
      <ellipse class="cls-5" cx="119.99" cy="182.34" rx="3.64" ry="3.16"/>
      <ellipse class="cls-5" cx="124.65" cy="155.49" rx="3.64" ry="3.16"/>
      <ellipse class="cls-6" cx="116.46" cy="161.82" rx="3.64" ry="3.16"/>
      <ellipse class="cls-6" cx="128.29" cy="190.94" rx="3.64" ry="3.16"/>
      <ellipse class="cls-6" cx="119.99" cy="219.28" rx="3.64" ry="3.16"/>
      <ellipse class="cls-5" cx="127.96" cy="222.44" rx="2.47" ry="3.16"/>
      <ellipse class="cls-5" cx="120.1" cy="206.38" rx="2.47" ry="3.16"/>
      <ellipse class="cls-5" cx="118.81" cy="151.5" rx="2.47" ry="3.16"/>
      <ellipse class="cls-6" cx="125.49" cy="164.51" rx="2.47" ry="3.16"/>
      <ellipse class="cls-6" cx="127.28" cy="204.2" rx="2.47" ry="3.16"/>
      <circle class="cls-5" cx="126.33" cy="213.32" r="2.19"/>
      <circle class="cls-5" cx="118.81" cy="167.67" r="2.19"/>
      <circle class="cls-6" cx="122.18" cy="226.44" r="2.19"/>
      <circle class="cls-6" cx="127.28" cy="181" r="2.19"/>
      <circle class="cls-6" cx="121.01" cy="197.87" r="2.19"/>
      <circle class="cls-6" cx="125.49" cy="172.05" r="2.19"/>
      <circle class="cls-6" cx="121.28" cy="189.96" r="2.19"/>
      <polyline class="cls-3" points="81.2 1.41 81.2 65.32 81.2 73.49"/>
      <path class="cls-1" d="m102.33,153.25c4.31,15.23,5.22,27.61,5.27,36.05.06,11.5-1.49,13.47-1.62,28.36-.06,7.22.46,14.77,1.53,27.94"/>
      <path class="cls-1" d="m64.93,156.69c-8.15,8.86-10.76,17.17-11.75,21.87-1.12,5.35-.9,9.71-.41,18.23.68,11.73,2.06,14.85,2.84,23.09.25,2.66.78,8.72.27,16.43"/>
      <path class="cls-1" d="m84.1,154.46c4.96,7.82,10.77,19.89,8.91,33.62-1.46,10.78-6.2,11.88-9.72,25.52-4.02,15.55,1.04,18.37-1.62,40.91"/>
      <path class="cls-1" d="m40.81,153.91c-1.69,2.43-3.61,5.77-5,10-1,3.06-2.07,7.98-1.05,20.27,1.18,14.24,3.12,13.3,2.37,18.95-1.1,8.29-5.17,9.54-8.06,17.12"/>
      <path class="cls-1" d="m119.99,155.09c1.22,5.29,2.32,11.1,3.16,17.37.7,5.26,1.19,8.79,1.32,13.69.17,6.7-.51,8.57-.79,17.9-.19,6.33-.29,9.49,0,12.63.46,5.01,1.45,8.04,2.66,11.03"/>
    </g>
  </g>
</svg>