<?xml version="1.0" encoding="UTF-8"?>
<svg id="Layer_2" data-name="Layer 2" xmlns="http://www.w3.org/2000/svg" xmlns:xlink="http://www.w3.org/1999/xlink" viewBox="0 0 90.76 189.21">
  <defs>
    <style>
      .cls-1 {
        clip-path: url(#clippath);
      }

      .cls-2, .cls-3, .cls-4 {
        fill: none;
      }

      .cls-2, .cls-5, .cls-6, .cls-7, .cls-8 {
        stroke-width: 0px;
      }

      .cls-3 {
        stroke: #006937;
        stroke-linecap: round;
        stroke-linejoin: round;
        stroke-width: 5.11px;
      }

      .cls-4 {
        stroke: #dbad7f;
        stroke-miterlimit: 10;
        stroke-width: 2px;
      }

      .cls-5 {
        fill: #56a160;
      }

      .cls-6 {
        fill: #d0a068;
      }

      .cls-7 {
        fill: #dbad7f;
      }

      .cls-8 {
        fill: #009247;
      }
    </style>
    <clipPath id="clippath">
      <path class="cls-2" d="m2.36,47.77s1.5,100.55,11.57,137.3c.67,2.44,2.86,4.14,5.39,4.14h37.7c3.3,0,6.13-2.34,6.78-5.58,8.64-43.21,10.58-135.86,10.58-135.86H2.36Z"/>
    </clipPath>
  </defs>
  <g id="Layer_1-2" data-name="Layer 1">
    <g>
      <g>
        <g>
          <path class="cls-8" d="m42.46,20.03c2.16-30.22,36.39-18.78,48.3-13.13"/>
          <path class="cls-5" d="m42.46,20.03c17.16,24.97,40.89-2.22,48.3-13.13"/>
        </g>
        <g>
          <path class="cls-8" d="m41.43,17.39C35.14-4.94,11.23,8.93,3.17,15.02"/>
          <path class="cls-5" d="m41.43,17.39c-9.01,21.39-31.02,4.66-38.26-2.38"/>
        </g>
        <line class="cls-3" x1="41.49" y1="19.11" x2="41.49" y2="61.4"/>
      </g>
      <g>
        <g>
          <path class="cls-6" d="m2.36,47.77s1.5,100.55,11.57,137.3c.67,2.44,2.86,4.14,5.39,4.14h37.7c3.3,0,6.13-2.34,6.78-5.58,8.64-43.21,10.58-135.86,10.58-135.86H2.36Z"/>
          <g class="cls-1">
            <path class="cls-4" d="m2.51,63.8c23.86,3.01,48,3.01,71.86,0"/>
            <path class="cls-4" d="m2.43,71.67c23.86,3.01,48,3.01,71.86,0"/>
            <path class="cls-4" d="m2.43,79.54c23.86,3.01,48,3.01,71.86,0"/>
            <path class="cls-4" d="m2.51,87.4c23.86,3.01,48,3.01,71.86,0"/>
            <path class="cls-4" d="m2.43,95.17c23.86,3.01,48,3.01,71.86,0"/>
          </g>
        </g>
        <rect class="cls-7" y="44.05" width="76.73" height="11.77" rx="1.44" ry="1.44"/>
      </g>
    </g>
  </g>
</svg>