<?xml version="1.0" encoding="UTF-8"?>
<svg id="Layer_2" data-name="Layer 2" xmlns="http://www.w3.org/2000/svg" xmlns:xlink="http://www.w3.org/1999/xlink" viewBox="0 0 111.19 290.89">
  <defs>
    <style>
      .cls-1 {
        clip-path: url(#clippath);
      }

      .cls-2, .cls-3, .cls-4 {
        fill: none;
      }

      .cls-2, .cls-5, .cls-6, .cls-7, .cls-8 {
        stroke-width: 0px;
      }

      .cls-3 {
        stroke: #006937;
        stroke-linecap: round;
        stroke-linejoin: round;
        stroke-width: 5.11px;
      }

      .cls-4 {
        stroke: #dbad7f;
        stroke-miterlimit: 10;
        stroke-width: 2px;
      }

      .cls-5 {
        fill: #56a160;
      }

      .cls-6 {
        fill: #d0a068;
      }

      .cls-7 {
        fill: #dbad7f;
      }

      .cls-8 {
        fill: #009247;
      }
    </style>
    <clipPath id="clippath">
      <path class="cls-2" d="m19.59,149.45s1.5,100.55,11.57,137.3c.67,2.44,2.86,4.14,5.39,4.14h37.7c3.3,0,6.13-2.34,6.78-5.58,8.64-43.21,10.58-135.86,10.58-135.86H19.59Z"/>
    </clipPath>
  </defs>
  <g id="Layer_1-2" data-name="Layer 1">
    <g>
      <g>
        <g>
          <path class="cls-8" d="m56.59,110.58c2.4-33.62,40.47-20.89,53.72-14.6"/>
          <path class="cls-5" d="m56.59,110.58c19.09,27.78,45.48-2.47,53.72-14.6"/>
        </g>
        <g>
          <path class="cls-8" d="m55.56,88.21c-9.14-32.44-43.86-12.29-55.56-3.46"/>
          <path class="cls-5" d="m55.56,88.21c-13.09,31.06-45.04,6.76-55.56-3.46"/>
        </g>
        <g>
          <path class="cls-8" d="m55.71,57.59c8.46-32.63,43.59-13.21,55.48-4.62"/>
          <path class="cls-5" d="m55.71,57.59c13.74,30.78,45.18,5.82,55.48-4.62"/>
        </g>
        <line class="cls-3" x1="55.62" y1="14.77" x2="55.62" y2="170.77"/>
      </g>
      <path class="cls-3" d="m55.62,14.77c-2.41-6.58-7.96-11.35-14.38-12.11-9-1.07-17.17,6.03-19.02,14.35-1.25,5.61-.51,14.22,5.37,17.38,7.35,3.96,19.24-2.41,20.3-10.62.65-5.05-2.66-11.96-7.82-12.48-3.61-.37-8.59,2.34-8.84,6.71-.17,3.06,2.02,6.16,5.49,7.47"/>
      <g>
        <g>
          <path class="cls-6" d="m19.59,149.45s1.5,100.55,11.57,137.3c.67,2.44,2.86,4.14,5.39,4.14h37.7c3.3,0,6.13-2.34,6.78-5.58,8.64-43.21,10.58-135.86,10.58-135.86H19.59Z"/>
          <g class="cls-1">
            <path class="cls-4" d="m19.74,165.48c23.86,3.01,48,3.01,71.86,0"/>
            <path class="cls-4" d="m19.66,173.35c23.86,3.01,48,3.01,71.86,0"/>
            <path class="cls-4" d="m19.66,181.21c23.86,3.01,48,3.01,71.86,0"/>
            <path class="cls-4" d="m19.74,189.08c23.86,3.01,48,3.01,71.86,0"/>
            <path class="cls-4" d="m19.66,196.85c23.86,3.01,48,3.01,71.86,0"/>
          </g>
        </g>
        <rect class="cls-7" x="17.23" y="145.73" width="76.73" height="11.77" rx="1.44" ry="1.44"/>
      </g>
    </g>
  </g>
</svg>