<?xml version="1.0" encoding="UTF-8"?>
<svg id="Layer_2" data-name="Layer 2" xmlns="http://www.w3.org/2000/svg" viewBox="0 0 333.33 296.57">
  <defs>
    <style>
      .cls-1, .cls-2, .cls-3 {
        stroke-width: 0px;
      }

      .cls-2 {
        fill: #6268b0;
      }

      .cls-3 {
        fill: #a19bcc;
      }
    </style>
  </defs>
  <g id="Layer_2-2" data-name="Layer 2">
    <path class="cls-2" d="m200.76,49.07c7.28-9.62,28.46-35.13,61.45-45.31,9.25-2.86,18.71-5.63,29.81-2.09,29.77,9.5,38.97,54.18,39.55,57.16,5.8,30.04-2.93,64.04-21.9,85.04-32.93,36.46-88.22,33.46-88.22,33.46,0,0,29.26,1.32,52.93,23.7,5.34,5.05,17.26,16.33,19.47,34.16,2.9,23.47-12.33,47.84-31.64,57.16-27.18,13.12-52.84-8.23-57.19-11.85-7.95-6.62-18.19-18.23-26.77-43.92-16.3-48.8-20.65-130.47,22.51-187.52Z"/>
    <path class="cls-2" d="m132.58,49.07c-7.28-9.62-28.46-35.13-61.45-45.31C61.88.9,52.42-1.88,41.32,1.67,11.55,11.17,2.35,55.84,1.77,58.83c-5.8,30.04,2.93,64.04,21.9,85.04,32.93,36.46,88.22,33.46,88.22,33.46,0,0-29.26,1.32-52.93,23.7-5.34,5.05-17.26,16.33-19.47,34.16-2.9,23.47,12.33,47.84,31.64,57.16,27.18,13.12,52.84-8.23,57.19-11.85,7.95-6.62,18.19-18.23,26.77-43.92,16.3-48.8,20.65-130.47-22.51-187.52Z"/>
    <path class="cls-3" d="m173.76,100.1c13.71-18.53,26.99-31.95,36.69-40.85,16.26-14.91,25.55-23.23,40.85-27.69,8.43-2.46,28.36-8.28,44.31,2.77,16.53,11.44,17.62,33.25,18,40.85,1.52,30.32-13.86,52.74-18.38,57.63-15.32,16.63-21.03,21.7-50.42,30.92-27.25,8.55-56.55,12.2-66.21,5.61-14.18-9.67-15.48-38.03-4.85-69.23Z"/>
    <path class="cls-3" d="m159.71,100.1c-13.71-18.53-26.99-31.95-36.69-40.85-16.26-14.91-25.55-23.23-40.85-27.69-8.43-2.46-28.36-8.28-44.31,2.77-16.53,11.44-17.62,33.25-18,40.85-1.52,30.32,13.86,52.74,18.38,57.63,15.32,16.63,21.03,21.7,50.42,30.92,27.25,8.55,56.55,12.2,66.21,5.61,14.18-9.67,15.48-38.03,4.85-69.23Z"/>
    <path class="cls-3" d="m153.91,228.78c-3.82,5.56-8.3,18.41-14.55,24.58-11.07,10.91-16.6,16.36-24.37,19.65-2.44,1.03-25.39,10.36-40.88-3.14-13.35-11.64-10.49-30.96-10.22-32.62,2.11-12.82,10.48-20.52,18.08-27.51,5.36-4.93,11-8.52,34.98-18.87,25.07-10.81,37.69-16.17,41.89-13.56,11.79,7.31,8.58,31.82-4.93,51.48Z"/>
    <path class="cls-3" d="m178.94,228.78c3.82,5.56,8.3,18.41,14.55,24.58,11.07,10.91,16.6,16.36,24.37,19.65,2.44,1.03,25.39,10.36,40.88-3.14,13.35-11.64,10.49-30.96,10.22-32.62-2.11-12.82-10.48-20.52-18.08-27.51-5.36-4.93-11-8.52-34.98-18.87-25.07-10.81-37.69-16.17-41.89-13.56-11.79,7.31-8.58,31.82,4.93,51.48Z"/>
    <path class="cls-1" d="m178.53,265.67c-3.63,6.94-19.24,5.94-23.43-.73-8.97-14.26-8.38-228.29-2.53-233.96,5.43-5.26,23.65-6.56,27.96,0,5.16,7.85,5.38,220.56-2,234.69Z"/>
  </g>
</svg>