<?xml version="1.0" encoding="UTF-8" standalone="no"?>
<!-- Created with Inkscape (http://www.inkscape.org/) -->

<svg
   width="177mm"
   height="90mm"
   viewBox="0 0 177 90"
   version="1.1"
   id="svg1"
   xml:space="preserve"
   inkscape:version="1.3 (0e150ed, 2023-07-21)"
   sodipodi:docname="Logo_padding.svg"
   xmlns:inkscape="http://www.inkscape.org/namespaces/inkscape"
   xmlns:sodipodi="http://sodipodi.sourceforge.net/DTD/sodipodi-0.dtd"
   xmlns="http://www.w3.org/2000/svg"
   xmlns:svg="http://www.w3.org/2000/svg"><sodipodi:namedview
     id="namedview1"
     pagecolor="#ffffff"
     bordercolor="#000000"
     borderopacity="0.25"
     inkscape:showpageshadow="2"
     inkscape:pageopacity="0.0"
     inkscape:pagecheckerboard="0"
     inkscape:deskcolor="#d1d1d1"
     inkscape:document-units="mm"
     inkscape:zoom="0.58117101"
     inkscape:cx="487.80823"
     inkscape:cy="488.66856"
     inkscape:window-width="1512"
     inkscape:window-height="857"
     inkscape:window-x="0"
     inkscape:window-y="38"
     inkscape:window-maximized="0"
     inkscape:current-layer="layer1" /><defs
     id="defs1"><style
       id="style1">&#10;      .cls-1 {&#10;        fill: #009247;&#10;        stroke-width: 0px;&#10;      }&#10;    </style></defs><g
     inkscape:label="Layer 1"
     inkscape:groupmode="layer"
     id="layer1"><g
       id="Layer_2-2"
       data-name="Layer 2"
       transform="matrix(0.57596538,0,0,0.52006804,13.560313,15.279183)"><path
         class="cls-1"
         d="m 2.4,86.79 c 0,0 -2.49,-8.73 -2.4,-13.05 0.18,-8.46 0.29,-13.15 2.39,-19.57 0.95,-2.89 3.04,-9.08 8.05,-15.22 2.84,-3.49 4.51,-4.37 10.66,-11.53 1.49,-1.73 2.43,-2.89 4.35,-5 3.32,-3.65 6.28,-6.53 7.18,-7.39 4.85,-4.69 2.77,-2.78 7.01,-7.21 C 40.3,7.14 40.96,6.01 42.2,4.8 43.96,3.08 45.72,2.24 46.77,1.76 50.15,0.16 53.09,0.03 53.94,0 c 1.02,-0.03 1.15,0.06 3.26,0.22 2.48,0.18 3.62,0.15 7.61,0.22 5.81,0.09 8.47,0.63 9.44,1.11 0.84,0.42 0.76,0.56 4.92,4.98 1.66,1.77 2.47,2.46 2.83,3.91 0.11,0.46 0.54,2.44 -0.65,4.35 -0.35,0.56 -1.28,1.78 -4.13,2.61 -2.98,0.87 -6.18,0.33 -12.61,-0.87 -1.39,-0.26 -2.59,-0.52 -3.48,-1.52 -1.13,-1.29 -0.72,-2.64 -1.74,-3.48 -1.24,-1.03 -3.34,-0.33 -4.35,0 -2.16,0.7 -3.7,2.03 -5.22,3.7 -3.83,4.21 -5.59,8.45 -5.87,9.13 -1.03,2.55 -1.21,3.83 -2.61,10.87 0,0 -0.46,2.33 -3.04,14.79 -1.51,7.3 -2.28,10.98 -2.83,12.4 -1.01,2.63 -3.3,8.41 -8.7,13.27 -3.18,2.87 -8.21,5.03 -18.27,9.35 -0.23,0.1 -1.42,0.6 -3.04,1.09 -1.72,0.51 -3.04,0.65 -3.04,0.65 z"
         id="path1" /><path
         class="cls-1"
         d="M 65.91,90.26 22.26,109.1 c 0,0 3.69,2.73 10.56,4.97 3.57,1.17 8.35,2.73 14.7,3.31 14.6,1.35 25.92,-3.83 29.61,-5.18 8.9,-3.25 13.21,-8.81 17.81,-12.84 5.49,-4.81 13.25,-21.53 13.25,-21.53 0,0 -1.15,-1.79 -5.38,-3.93 C 97.85,71.39 92.26,68.56 83.55,67.07 72.6,65.2 64,66.7 62.02,67.07 c -1.88,0.35 -11.23,2.2 -21.53,8.7 -9.92,6.26 -15.6,13.6 -17.6,16.36 -2.07,2.86 -4.33,4.73 -3.73,5.8 l 46.76,-7.66 z"
         id="path2" /></g></g></svg>
