<?xml version="1.0" encoding="UTF-8"?>
<svg id="Layer_2" data-name="Layer 2" xmlns="http://www.w3.org/2000/svg" viewBox="0 0 162.39 294.63">
  <defs>
    <style>
      .cls-1 {
        stroke-width: 3.17px;
      }

      .cls-1, .cls-2 {
        fill: none;
        stroke: #fff;
        stroke-linecap: round;
        stroke-linejoin: round;
      }

      .cls-2 {
        stroke-width: 2.82px;
      }

      .cls-3 {
        fill: #9c654a;
        stroke-width: 0px;
      }
    </style>
  </defs>
  <g id="Layer_2-2" data-name="Layer 2">
    <polyline class="cls-1" points="18.2 162.63 81.2 73.49 144.19 162.63"/>
    <path class="cls-3" d="m9.46,157.93c29.57,23.83,32.39,37.32,28.69,45.37-4.37,9.5-17.51,8.5-28.69,22.68-1.33,1.69-14.9,19.45-7.01,36.64,4.83,10.53,15.43,15.86,24.23,20.15,32.45,15.82,76.57,15.82,109.03,0,8.8-4.29,19.39-9.62,24.23-20.15,7.89-17.19-5.67-34.95-7.01-36.64-11.19-14.18-24.32-13.19-28.69-22.68-3.51-7.62-.85-20.87,28.69-45.37"/>
    <polyline class="cls-2" points="81.2 1.41 81.2 65.32 81.2 73.49"/>
  </g>
</svg>