<?xml version="1.0" encoding="UTF-8"?>
<svg id="Layer_2" data-name="Layer 2" xmlns="http://www.w3.org/2000/svg" viewBox="0 0 137.8 278.41">
  <defs>
    <style>
      .cls-1 {
        stroke-width: 3px;
      }

      .cls-1, .cls-2 {
        fill: none;
        stroke: #fff;
        stroke-linecap: round;
        stroke-miterlimit: 10;
      }

      .cls-2 {
        stroke-width: 3.03px;
      }

      .cls-3 {
        fill: #a67c52;
      }

      .cls-3, .cls-4 {
        stroke-width: 0px;
      }

      .cls-4 {
        fill: #009247;
      }
    </style>
  </defs>
  <g id="Layer_1-2" data-name="Layer 1">
    <g>
      <path class="cls-4" d="m53.28,94.24c5.21,6.51,6.93,5.91,7.56,8.69.97,4.27-3.06,6.21-1.87,10.24.72,2.47,2.62,2.99,6.25,6.11,2.02,1.74,11.07,9.5,10.5,16.02-.26,2.95-2.48,5.65-4.94,5.76-3.36.15-6.49-4.56-8.81-8.06-4.22-6.36-2.87-8.13-6.19-12.18-4.73-5.78-9.27-4.36-11.13-8.74-1.8-4.24,2.95-7.24.69-13.35-.56-1.52-1.37-2.67-1.05-4.41.41-2.24,2.49-4.46,4.47-4.4,1.53.05,2.23,1.45,4.51,4.3Z"/>
      <path class="cls-4" d="m78.19,94.05c-1.57,1.77-3.56,3.23-4.42,6.57-.98,3.78.23,7.13,1.03,9.36,1.61,4.46,3.44,4.43,3.28,7.06-.14,2.3-1.6,3.28-6.39,9.83-5.2,7.11-5.26,8.37-5.15,9.11.53,3.47,6.46,5.51,9.47,3.47,2.11-1.43,1.05-3.7,3.32-8.33,3.29-6.73,8.16-7.36,8.91-11.86.53-3.19-1.87-3.15-2.86-8.58-.71-3.86.59-6.69,1.22-11.66.2-1.59.39-3.94.23-6.86"/>
      <path class="cls-3" d="m.86,140.44h135.22s3.95,105.53-20.39,126.26c-17.47,14.87-75.67,16.36-91.76,0C1.43,243.82.86,140.44.86,140.44Z"/>
      <path class="cls-1" d="m1.5,161.57s52.66,7.17,70.96,6.81c16.57-.32,63.84-6.81,63.84-6.81"/>
      <path class="cls-2" d="m18.52,1.52c4.76,90.19,9.52,180.37,14.28,270.56"/>
      <path class="cls-1" d="m115.15,1.52c-4.76,90.19-9.52,180.37-14.28,270.56"/>
      <path class="cls-1" d="m6.92,221.58s48.7,7.17,65.62,6.81c15.33-.32,59.03-6.81,59.03-6.81"/>
    </g>
  </g>
</svg>