<?xml version="1.0" encoding="UTF-8"?>
<svg id="Layer_2" data-name="Layer 2" xmlns="http://www.w3.org/2000/svg" viewBox="0 0 183.31 278.41">
  <defs>
    <style>
      .cls-1 {
        stroke-width: 3px;
      }

      .cls-1, .cls-2 {
        fill: none;
        stroke: #fff;
        stroke-linecap: round;
        stroke-miterlimit: 10;
      }

      .cls-2 {
        stroke-width: 3.03px;
      }

      .cls-3 {
        fill: #a67c52;
      }

      .cls-3, .cls-4 {
        stroke-width: 0px;
      }

      .cls-4 {
        fill: #009247;
      }
    </style>
  </defs>
  <g id="Layer_1-2" data-name="Layer 1">
    <g>
      <path class="cls-4" d="m91.68,138.59c2.5.5,3.38-1.83,8.28-3.45,7.11-2.35,10.97.69,14.71-1.92,2.65-1.85.95-3.54,4.14-8.05,1.12-1.59,3.98-5.63,9.19-7.28,4.9-1.55,6.87.59,10.11-1.15,3.6-1.93.65-8.88,6.38-10.88,3.33-1.16,5.62,8.52,12.08,5.39,3.63-1.76,9.39,7.15,14.7,7.5,3.57.24,12.06-3.05,12.06-3.05,0,0-6.04-12.83-12-9.37-4.77,2.77-9.39-7.83-13.97-7.3-4.9.57-7.06-3.53-12.09-2.94-4.87.57-11.54,8.49-15.42,11.06-3.86,2.56-7.21-.03-11.95,2.68-3.39,1.94-4.94,5.14-5.98,7.28-2.07,4.27-.77,5.56-2.76,7.28-1.74,1.5-3.46,1.15-11.49,2.3-8.72,1.25-9.67,2.09-10.11,2.68-2.11,2.8.57,8.47,4.14,9.2Z"/>
      <path class="cls-3" d="m16.1,140.44h135.22s3.95,105.53-20.39,126.26c-17.47,14.87-75.67,16.36-91.76,0-22.5-22.88-23.07-126.26-23.07-126.26Z"/>
      <path class="cls-1" d="m16.75,161.57s52.66,7.17,70.96,6.81c16.57-.32,63.84-6.81,63.84-6.81"/>
      <path class="cls-4" d="m85.8,135.17c-3.11,3.41-12.43.99-12.89.87-5.63-1.51-5.48-3.86-11.28-5.66-6.66-2.06-8.91.41-12.89-1.74-5.36-2.89-2.5-8.02-8.05-11.32-4.13-2.45-6.72-.22-12.35-3.05-3.29-1.65-5.45-5.44-10.7-1.05-3.26,2.73-5.37,2.51-10.24,4.55-5.5,2.3-7.41,6.58-7.41,6.58,0,0,1.57-7.77,6.3-13.99.96-1.26,5.97-4.31,10.38-4.02,6.56.44,12.06-7.38,14.34-5.12,2.73,2.69,1.17,4.28,3.76,6.09,4.55,3.18,11.05-.53,15.04,2.61,2.22,1.75.57,3.2,3.22,6.09,2.77,3.02,7.03,4.11,9.67,4.79,3.55.91,3.98.35,9.67,1.31,5.12.86,7.68,1.29,9.67,2.61,3.75,2.49,6.23,7.74,3.76,10.45Z"/>
      <path class="cls-2" d="m33.77,1.52c4.76,90.19,9.52,180.37,14.28,270.56"/>
      <path class="cls-1" d="m130.39,1.52c-4.76,90.19-9.52,180.37-14.28,270.56"/>
      <path class="cls-1" d="m23.24,222.05s48.7,7.17,65.62,6.81c15.33-.32,59.03-6.81,59.03-6.81"/>
      <path class="cls-4" d="m81.26,140.66c-4.46,3.31-2.3,12.94-.39,17.77,1.62,4.11,2.65,3.69,3.48,6.95,1.03,4.09-.29,5.86-1.93,15.84-1.26,7.68-1.01,9.91,0,11.98,1.29,2.62,2.47,2.26,4.64,5.02,4.37,5.58,4.84,13.83,3.48,19.7-.98,4.22-2.3,4.61-2.32,8.11-.02,5.06,5.02,10.43,5.02,10.43,0,0,3.35-4.32,5.02-9.66,1.51-4.82,2.8-8.93,2.32-14.3-.55-6.09-2.7-6.21-2.7-11.59,0-6.25,2.9-7.22,1.93-11.59-1.12-5.04-5.27-4.99-6.18-10.05-.68-3.77,1.45-4.79,1.55-10.05.08-4.05-1.16-4.94-2.32-10.05-2.42-10.64,1.04-15.16-2.32-18.16-2.42-2.16-6.85-2.18-9.27-.39Z"/>
      <path class="cls-4" d="m89.66,145.22c.02,2.88,4.15,4.9,4.73,5.17,2.49,1.17,3.59.43,4.89,1.59,1.8,1.61,1.15,4.34,1.37,7.26.15,1.94,1.14,9.48,5.26,11.33,2.18.98,3.43-.46,6.23.92,1.91.94,3.03,2.45,3.78,3.46,1.31,1.77,1.18,2.44,2.99,5.91,1.39,2.68,2.11,4.03,3.13,4.42,2.15.84,3.77-1.43,5.69-.86,2.95.87,3.35,6.99,3.45,8.33.15,2-.13,2.63-.22,5.47-.12,3.93-.12,5.89.4,7.65,1.13,3.82,3.04,3.33,3.75,6.6.68,3.18-.97,4.31-.13,8.17.11.53,2.25,4.17,2.25,4.17,0,0,3.02-4.34,3.9-7,1.29-3.91,2.01-6.08,1.67-8.88-.53-4.34-2.9-4.25-4.2-9.02-1.3-4.79.84-5.76-.51-11.6-.56-2.4-1.25-5.4-3.74-7.65-2.68-2.42-4.34-1.18-6.48-3.37-3.01-3.08-.79-6.61-3.91-9.7-.54-.53-.62-.44-5.72-2.68-6.7-2.94-7.61-3.56-8.2-4.72-1.06-2.12.48-3.05-.29-6-.63-2.39-1.95-2.99-5.92-7.03-5.33-5.43-5.51-6.96-7.61-7.13-2.98-.24-6.55,2.51-6.54,5.2Z"/>
      <path class="cls-4" d="m85.3,141.97c.92,2.53-.82,5.23-1.53,6.33-1.38,2.15-3.18,3.3-6.42,5.32-4.12,2.58-5.07,2.36-5.9,3.88-1.13,2.06.23,3.18-.05,7.74-.07,1.13-.28,4.19-1.75,7.39-1.11,2.41-1.76,2.37-4.98,6.95-3.74,5.31-3.8,6.7-3.75,7.42.17,2.56,2.01,2.74,2.22,5.33.2,2.53-1.49,3.2-3.37,7.72-1.48,3.55-2.4,5.76-1.67,8.07,1.05,3.35,4.5,3.57,4.64,6.5.09,1.89-1.32,2.55-1.22,4.84.09,2.02,1.46,2.32,1.8,4.14.52,2.77-3.83,6.74-3.83,6.74,0,0-5.47-3.94-6.16-7.7-.66-3.58,1.08-4.34.52-7.87-.78-4.91-4.4-5.02-5.13-9.48-.63-3.8,1.89-4.38,2.71-10.96.61-4.91-.72-5.12.15-9.28.31-1.47,1.31-6.02,4.92-9.84,2.79-2.96,4.27-2.45,5.69-5.03,1.1-1.99.65-3.09,1.08-8.42.41-5.18.61-7.77,1.42-9.01,2.81-4.31,8.41-2.73,10.26-6.74,1.43-3.09,1.94-4.56,3.49-6.15,1.94-1.99,5.5-1.71,6.88,2.09Z"/>
      <path class="cls-4" d="m84.66,143.01c1.06.86,2.1-.41,4.69-.24,3.85.25,4.35,3.2,7.98,3.97,2.06.44,4.15-.37,8.32-1.97,5.92-2.27,6.42-3.88,9.13-3.73,2.24.13,2.28,1.25,7.43,4.08,4.08,2.24,6.11,3.36,8.69,3.33,4.62-.06,8.22-3.28,8.58-3.61,3.79-3.48,3.5-7.12,6.4-8.05.82-.26,1.22-.09,5.68,1.51,6.43,2.31,7.61,2.66,9.09,2.88,2.89.43,4.66.79,6.72-.17,2.78-1.29,4.72-5.99,4.72-5.99,0,0-3.38-.06-8.02-1.39-5.01-1.44-4.98-4.06-9.29-4.67-4.53-.65-8.55,1.68-8.79,1.82-3.3,1.97-3.6,4.08-6.02,4.42-2.96.42-3.8-2.57-6.53-2.07-2.85.53-2.99,4-6.04,5.28-3.28,1.38-4.67-1.99-9.96-2.58-5.81-.65-6.81,3.13-12.86,2.54-1.49-.14-1.05-.34-9.71-3.37-6.25-2.19-7.5-2.45-8.72-1.61-2.76,1.89-3.39,8.07-1.5,9.6Z"/>
      <path class="cls-4" d="m85.5,138.11c-.6,3.23-5.16,4.74-8.54,5.86-6.15,2.03-7.32.21-11.38,2.1-5.78,2.7-5.6,7.43-9.61,7.83-4.33.44-5.77-4.97-10.86-4.77-3.29.13-3.2,2.41-8.45,4.41-5.18,1.97-6.46.21-12.41,2.29-3.8,1.33-3.8,2.24-7.27,3.12-3.01.77-9.69-.35-9.69-.35,0,0,3.42-7.38,8.94-9.49,4.82-1.84,6.61.28,10.34-1.91,4.38-2.57,3.61-6.48,7.47-7.8,3.41-1.16,4.71,1.65,9.06.82,4.79-.91,5.4-4.72,8.8-4.48,3.66.27,4.43,4.81,8.04,4.93,2.19.08,3.03-1.55,6.39-4.03,1.87-1.38,10.22-7.54,15.48-5,2.38,1.15,4.13,4.09,3.69,6.45Z"/>
      <path class="cls-4" d="m89.76,137.16c2.15-.75,3.01-3.49,4.34-7.67,1.07-3.4,1.42-6.29,1.55-7.67.62-6.57-.89-7.66.31-10.96,1.3-3.58,3.41-3.26,4.34-6.94.69-2.74.09-5.24-.31-6.94-1.13-4.75-3.03-5.04-3.72-8.41-.41-2.01.04-3.03,2.79-11.69,3.11-9.82,8.78-9.08,10.19-10.15,3.5-2.65.98-9,5.22-10.15,6.9-1.87,13.37-.21,13.37-.21,0,0-6.96-11.41-12.61-8.66-4.18,2.04-3.6,8.88-11.96,9.89-3.85.46-14.65,6.77-14.32,10.2.42,4.23,2.59,9.45,2.05,12-.52,2.51-4.07,1.96-5.57,5.48-.6,1.4-.16,1.76-.31,5.85-.25,6.65-1.52,8.47-.31,10.6,1.17,2.05,2.77,1.09,3.72,2.92,1.33,2.57-1.4,5.25-2.79,12.79-.75,4.11-.03,3.82-.93,8.77-.84,4.66-1.71,6.18-.93,8.04.95,2.26,3.75,3.67,5.88,2.92Z"/>
      <path class="cls-4" d="m89.24,142.49c.66-1.45-1.08-2.26-1.66-5.26-.86-4.45,2.35-5.89,2.14-10.23-.12-2.47-1.65-4.6-4.71-8.87-4.34-6.05-6.32-6.14-6.95-9.27-.52-2.59.74-2.96,2.44-9.64,1.34-5.29,2.01-7.94,1.21-10.86-1.44-5.23-6.17-8.37-6.65-8.68-5.08-3.27-7.78-2.57-9.69-5.6-.54-.86-1.81-.65-1.32-6.18.71-7.98-9.64-8.37-12.36-13.8-1.54-3.06-4.93-2.54-7.58-2.2-3.56.45-7.42,5.02-7.42,5.02,0,0,5.8-.84,10.52,2.3,5.09,3.39.69,7.47,5.29,9.69,4.84,2.34,3.04,6.33,4.65,7.53,3.61,2.71,5.71,2.88,6.82,5.53,1.35,3.24-1.8,5.08-.42,8.03,1.44,3.09,5.43,2.21,7.8,5.29,2.55,3.32-.87,5.9.02,12.07.98,6.79,5.58,6.81,6.71,13.85.28,1.74-.07,1.29-.95,12.02-.63,7.74-.55,9.25.75,10.38,2.96,2.58,10.18,1.46,11.36-1.14Z"/>
      <path class="cls-4" d="m91.87,134.8c-1.82-2.83.67-7.91,2.52-11.67,3.36-6.85,5.57-6.57,7.4-11.48,2.61-7-.9-10.21,1.95-14.01,3.08-4.11,8.04-1.53,11.88-6.13,2.48-2.98.79-4.53,3.48-10.57,2.65-5.96,10.18-1.02,16.73-4.5,5.01-2.66,11.42-2.52,15.63-2.66,3.67-.12,11.12,2.39,11.12,2.39,0,0-5.72,6.5-12.61,7.39-6.02.78-7.63-2.68-12.47-1.34-5.68,1.58-4.23,2.18-6.32,6.51-1.84,3.81-4.85,2.95-7.67,7.37-3.1,4.85-.87,8.11-3.7,10.91-3.05,3.02-6.88.46-9.79,3.54-1.77,1.87-1.27,3.77-2.13,8.48-.48,2.62-2.63,14.35-8.55,17.14-2.68,1.27-6.13.7-7.46-1.36Z"/>
      <path class="cls-4" d="m75.2,146.19c-2.82-.85-4.38-4.07-5.02-5.39-1.24-2.56-1.33-4.83-1.47-8.89-.17-5.17.54-5.83-.41-7.52-1.3-2.29-3.06-1.86-7.11-5.04-1.01-.79-3.71-2.94-5.88-6.26-1.63-2.5-1.24-3.02-3.74-8.72-2.89-6.61-4.14-7.55-4.83-7.98-2.45-1.51-3.61-.06-6.11-1.55-2.44-1.46-2.15-3.33-5.32-7.85-2.48-3.55-3.36-1.98-7-.95s-3.86,6.12-7.14,5.89c-2.12-.15-2.78-1.64-5.34-1.82-2.27-.16-2.69,1.18-4.74,1.3-3.13.18-7.3-4.68-7.3-4.68,0,0,4.74-5,8.99-5.24,4.05-.22,4.79,1.62,8.77,1.49,5.53-.18,5.61-4.57,10.64-4.76,4.28-.16,7.26.4,12.88,5.34,4.2,3.69,5.1,2.69,8.47,6.11,1.19,1.21,4.85,5,6.44,10.53,1.23,4.28-.03,5.21,1.59,8.09,1.25,2.22,2.5,2.55,7.19,6.35,4.56,3.69,6.84,5.54,7.55,7.02,2.47,5.17-1.99,8.92.72,13.08,2.09,3.21,3.16,4.59,3.8,6.93.8,2.94-1.37,5.78-5.61,4.51Z"/>
    </g>
  </g>
</svg>