<?xml version="1.0" encoding="UTF-8"?>
<svg id="Layer_2" data-name="Layer 2" xmlns="http://www.w3.org/2000/svg" viewBox="0 0 44.08 51.14">
  <defs>
    <style>
      .cls-1 {
        fill: #009247;
        stroke-width: 0px;
      }
    </style>
  </defs>
  <g id="Layer_1-2" data-name="Layer 1">
    <g>
      <path class="cls-1" d="m9.06,4.31c5.21,6.51,6.93,5.91,7.56,8.69.97,4.27-3.06,6.21-1.87,10.24.72,2.47,2.62,2.99,6.25,6.11,2.02,1.74,11.07,9.5,10.5,16.02-.26,2.95-2.48,5.65-4.94,5.76-3.36.15-6.49-4.56-8.81-8.06-4.22-6.36-2.87-8.13-6.19-12.18C6.83,25.12,2.29,26.53.43,22.16c-1.8-4.24,2.95-7.24.69-13.35C.56,7.28-.24,6.13.07,4.4.48,2.16,2.56-.06,4.55,0c1.53.05,2.23,1.45,4.51,4.3Z"/>
      <path class="cls-1" d="m33.96,4.12c-1.57,1.77-3.56,3.23-4.42,6.57-.98,3.78.23,7.13,1.03,9.36,1.61,4.46,3.44,4.43,3.28,7.06-.14,2.3-1.6,3.28-6.39,9.83-5.2,7.11-5.26,8.37-5.15,9.11.53,3.47,6.46,5.51,9.47,3.47,2.11-1.43,1.05-3.7,3.32-8.33,3.29-6.73,8.16-7.36,8.91-11.86.53-3.19-1.87-3.15-2.86-8.58-.71-3.86.59-6.69,1.22-11.66.2-1.59.39-3.94.23-6.86"/>
    </g>
  </g>
</svg>