<?xml version="1.0" encoding="UTF-8"?>
<svg id="Layer_2" data-name="Layer 2" xmlns="http://www.w3.org/2000/svg" viewBox="0 0 137.8 278.41">
  <defs>
    <style>
      .cls-1 {
        stroke-width: 3px;
      }

      .cls-1, .cls-2 {
        fill: none;
        stroke: #fff;
        stroke-linecap: round;
        stroke-miterlimit: 10;
      }

      .cls-2 {
        stroke-width: 3.03px;
      }

      .cls-3 {
        fill: #a67c52;
      }

      .cls-3, .cls-4 {
        stroke-width: 0px;
      }

      .cls-4 {
        fill: #009247;
      }
    </style>
  </defs>
  <g id="Layer_1-2" data-name="Layer 1">
    <g>
      <path class="cls-4" d="m33.61,113.93c.25.29.09.59.43,1.46.37.98.96,1.59,1.34,2.01,2.77,3.02,7.03,4.11,9.67,4.79,3.55.91,3.98.35,9.67,1.31,5.12.86,7.68,1.29,9.67,2.61,3.75,2.49,6.23,7.74,3.76,10.45-3.11,3.41-12.43.99-12.89.87-5.63-1.51-5.48-3.86-11.28-5.66-6.66-2.06-8.91.41-12.89-1.74-.91-.49-1.59-1.05-2.11-1.66-1-1.17-1.44-2.38-1.78-3.63-1.14-4.19-1.71-6.28-.92-7.82,1.58-3.07,6.42-4.05,7.33-2.99Z"/>
      <path class="cls-3" d="m.86,140.44h135.22s3.95,105.53-20.39,126.26c-17.47,14.87-75.67,16.36-91.76,0C1.43,243.82.86,140.44.86,140.44Z"/>
      <path class="cls-1" d="m1.5,161.57s52.66,7.17,70.96,6.81c16.57-.32,63.84-6.81,63.84-6.81"/>
      <path class="cls-2" d="m18.52,1.52c4.76,90.19,9.52,180.37,14.28,270.56"/>
      <path class="cls-4" d="m108.01,109.81c-2.36.11-4.8-.28-7.79,1.43-3.39,1.94-4.94,5.14-5.98,7.28-2.07,4.27-.77,5.56-2.76,7.28-1.74,1.5-3.46,1.15-11.49,2.3-8.72,1.25-9.67,2.09-10.11,2.68-2.11,2.8.57,8.47,4.14,9.2,2.5.5,3.38-1.83,8.28-3.45,7.11-2.35,10.97.69,14.71-1.92,2.65-1.85.95-3.54,4.14-8.05,2.26-3.2,5.19-4.25,9.19-7.28,1.28-.97,3.09-2.47,5.07-4.63"/>
      <path class="cls-1" d="m115.15,1.52c-4.76,90.19-9.52,180.37-14.28,270.56"/>
      <path class="cls-4" d="m25.44,141.61c3.5-2.88,5.92-4.87,8.8-4.48,3.87.53,4.53,4.81,8.04,4.93,2.19.08,3.03-1.55,6.39-4.03,1.87-1.38,10.22-7.54,15.48-5,2.38,1.15,4.13,4.09,3.69,6.45-.6,3.23-5.16,4.74-8.54,5.86-6.15,2.03-7.32.21-11.38,2.1-5.78,2.7-5.6,7.43-9.61,7.83-4.33.44-5.77-4.97-10.86-4.77-.61.02-1.06.46-1.97.46-1.96,0-4.29-1.32-4.7-3.03-.5-2.07,1.94-4.08,4.68-6.33Z"/>
      <path class="cls-4" d="m76.44,176.22c.42-.83.61-1.85.79-2.8.22-1.18.27-2.16.28-2.78.08-4.05-1.16-4.94-2.32-10.05-2.42-10.64,1.04-15.16-2.32-18.16-2.42-2.16-6.85-2.18-9.27-.39-4.46,3.31-2.3,12.94-.39,17.77,1.62,4.11,2.65,3.69,3.48,6.95.2.77.31,1.47.35,2.15.18,3.08-1.84,5.27-1.12,7.5.57,1.79,2.66,2.76,4.1,3.03,2.85.52,5.47-1.33,6.43-3.23Z"/>
      <path class="cls-4" d="m100.49,166.38c-.89-2.05-7.21-3.34-7.87-4.28-.17-.24-.3-.49-.3-.5-1.05-2.12.5-3.05-.26-6-.61-2.39-1.94-3-5.87-7.07-5.29-5.46-5.47-6.99-7.56-7.18-2.97-.26-6.57,2.47-6.57,5.16,0,2.88,4.13,4.92,4.7,5.19,2.48,1.19,3.59.45,4.88,1.61,1.79,1.62,1.12,4.34,1.32,7.27.13,1.94,1.09,9.49,5.2,11.36,1,.46,2.19-.28,4.52.38,1.08.31,1.15.51,1.7.58,2.9.37,7.04-4.41,6.11-6.54Z"/>
      <path class="cls-4" d="m44.52,171.59c.44-1,.43-.97.49-1.1,1.2-2.87.47-5.79.59-7.32.41-5.18.61-7.77,1.42-9.01,2.81-4.31,8.41-2.73,10.26-6.74,1.43-3.09,1.94-4.56,3.49-6.15,1.94-1.99,5.5-1.71,6.88,2.09.92,2.53-.82,5.23-1.53,6.33-1.38,2.15-3.18,3.3-6.42,5.32-4.12,2.58-5.07,2.36-5.9,3.88-1.13,2.06.23,3.18-.05,7.74-.22,3.59-1.2,6.29-1.75,7.39-.91,1.82-1.84,3.67-3.85,4.33-2.18.71-5.03-.2-5.5-1.65-.12-.37-.06-.69,1.88-5.11Z"/>
      <path class="cls-4" d="m113.03,136.62c-1.17.5-1.25,2.35-3.28,3.19-.61.25-1.13.33-1.48.33-2.36.03-4.06-2.41-8.48-2.91-5.81-.65-6.81,3.13-12.86,2.54-1.49-.14-1.05-.34-9.71-3.37-6.25-2.19-7.5-2.45-8.72-1.61-2.76,1.89-3.39,8.07-1.5,9.6,1.06.86,2.1-.41,4.69-.24,3.85.25,4.35,3.2,7.98,3.97,2.06.44,4.15-.37,8.32-1.97,5.92-2.27,6.42-3.88,9.13-3.72.44.03.8.09,1.13.2,2.41.8,6.3,3.88,6.3,3.88.85.7,4.9,4.03,8.69,3.33,3.28-.61,6.86-4.33,6.16-8.09-.64-3.4-4.59-5.88-6.36-5.13Z"/>
      <path class="cls-4" d="m67.45,92.5c-2.25,5.23-1.03,9.48-.31,10.6.42.66.79.95.79.95,1.03.82,2.18.53,2.93,1.97,1.33,2.57-1.4,5.25-2.79,12.79-.75,4.11-.03,3.82-.93,8.77-.84,4.66-1.71,6.18-.93,8.04.95,2.26,3.75,3.67,5.88,2.92,2.15-.75,3.01-3.49,4.34-7.67,1.07-3.4,1.42-6.29,1.55-7.67.62-6.57-.89-7.66.31-10.96,1.3-3.58,3.41-3.26,4.34-6.94.69-2.74.09-5.24-.31-6.94-.3-1.26-.65-2.21-1.02-2.98-.63-1.3-1.34-3.39-2.69-5.42-1.8-2.7-2.95-4.43-4.6-4.58-3.35-.31-6.12,6.14-6.55,7.14Z"/>
      <path class="cls-4" d="m62.54,86.32c.97.87,1.22,1.99,1.52,3.43.18.84.28,4.98-1.21,10.86-1.69,6.68-2.96,7.06-2.44,9.64.63,3.13,2.6,3.22,6.95,9.27,3.06,4.26,4.59,6.4,4.71,8.87.2,4.35-3.01,5.79-2.14,10.23.58,3,2.32,3.8,1.66,5.26-1.18,2.6-8.4,3.71-11.36,1.14-1.31-1.14-1.38-2.64-.75-10.38.88-10.73,1.22-10.29.95-12.02-1.13-7.05-5.73-7.06-6.71-13.85-.75-5.17,1.53-7.82.79-10.49-.2-.73-.37-.6-.81-1.58-.94-2.05-2.73-5.96-1.16-8.68,1.78-3.09,7.51-3.94,10.01-1.68Z"/>
      <path class="cls-4" d="m105.84,97.48c-3,7.78-1.61,8.96-3.7,10.91-3.2,2.99-6.91.49-9.79,3.54-1.77,1.87-1.27,3.77-2.13,8.48-.48,2.62-2.63,14.35-8.55,17.14-2.68,1.27-6.13.7-7.46-1.36-1.82-2.83.67-7.91,2.52-11.67,3.36-6.85,5.57-6.57,7.4-11.48,2.61-7-.9-10.21,1.95-14.02,2.76-3.69,7.74-1.1,11.88-6.13,1.03-1.25,1.62-2.52,3.28-3.13,2.14-.77,5.11-.09,6.05,1.65.73,1.35-.13,2.66-1.45,6.07Z"/>
      <path class="cls-4" d="m42.31,101.6c.62,1.62.26,4.27.86,6.33.27.94.73,1.76.73,1.76,1.25,2.22,2.5,2.55,7.19,6.35,4.56,3.69,6.84,5.54,7.55,7.02,2.47,5.17-1.99,8.92.72,13.08,2.09,3.21,3.16,4.59,3.8,6.93.8,2.94-1.37,5.78-5.61,4.51-2.82-.85-4.38-4.07-5.02-5.39-1.24-2.56-1.33-4.83-1.47-8.89-.17-5.17.54-5.83-.41-7.52-1.3-2.29-3.06-1.86-7.11-5.04-1.01-.79-3.71-2.94-5.88-6.26-1.23-1.88-1.31-2.64-2.34-5.32-.78-2.05-1-2.19-1.4-3.4-.55-1.64-1.57-5.98.22-7.41,1.93-1.54,7.07.33,8.18,3.25Z"/>
      <path class="cls-1" d="m6.92,221.58s48.7,7.17,65.62,6.81c15.33-.32,59.03-6.81,59.03-6.81"/>
    </g>
  </g>
</svg>