<?xml version="1.0" encoding="UTF-8"?>
<svg id="Layer_2" data-name="Layer 2" xmlns="http://www.w3.org/2000/svg" xmlns:xlink="http://www.w3.org/1999/xlink" viewBox="0 0 216.72 283.07">
  <defs>
    <style>
      .cls-1 {
        stroke: #fff;
        stroke-miterlimit: 10;
        stroke-width: 3px;
      }

      .cls-1, .cls-2 {
        fill: none;
      }

      .cls-3 {
        clip-path: url(#clippath);
      }

      .cls-2, .cls-4, .cls-5, .cls-6, .cls-7 {
        stroke-width: 0px;
      }

      .cls-4 {
        fill: #3bb54a;
      }

      .cls-5 {
        fill: #a67c52;
      }

      .cls-6 {
        fill: #8c6339;
      }

      .cls-7 {
        fill: #009247;
      }
    </style>
    <clipPath id="clippath">
      <path class="cls-2" d="m37.9,150.77c-25.86,50.68-3.54,108.71,38.15,126.3,33.39,14.09,76.5,2.92,99.99-28.94,20.74-28.14,22.14-66.82,3.29-97.36"/>
    </clipPath>
  </defs>
  <g id="Layer_1-2" data-name="Layer 1">
    <g>
      <g>
        <path class="cls-7" d="m108.74,131.19s-7.57-11.93-5.14-15.71c2.75-4.28,15.08-4.17,22.19,1.83,5.68,4.8,4.4,8.07,10.6,12.43,6.29,4.42,13.76,5.3,13.71,5.94-.04.56-5.3.63-11.11,3.38-5.68,2.69-5.9,5.01-12.49,8.54-.81.43-4.53,2.36-9.69,2.64-2.09.12-8.55.48-13.26-3.73-1.17-1.05-2.01-1.8-2.44-3.11-1.3-3.97,7.62-12.21,7.62-12.21Z"/>
        <path class="cls-4" d="m109.27,132.07c.54.91.99,1.86,1.5,2.79,1.95,3.61,2.99,5.65,4.91,7.95,1,1.2,1.21,1.24,1.29,1.19.63-.35-3.28-7.75-2.5-8.24.82-.51,6.1,6.95,6.81,6.49.65-.42-3.31-5.49-2.14-6.51,1.45-1.26,10.06,5.19,10.2,5.03.13-.16-7.66-6.77-6.84-8.13.78-1.29,9.03,2.2,9.03,2.2,0,0-7.58-2.95-7.88-6.44-.23-2.67,3.08-4.44,2.86-4.77-.24-.35-5.15,3.8-7.34,2.47-2.31-1.4-.6-8.29-.99-8.35-.42-.06-1.23,8.45-3.28,8.7-1.78.22-3.12-8.08-4.59-7.94-.7.06.8,4.99-1.75,7.62-.59.61-1.13.83-1.31,1.58-.26,1.1.61,1.96,2.02,4.35Z"/>
        <path class="cls-4" d="m110.61,134.41c-.07,1.44-.25,3.47-.76,5.87-.32,1.51-.62,2.89-.88,2.88-.14,0-.1-1.96-1.02-4.82-.4-1.24-1.12-2.4-1.3-3.55-.09-.56-.44-1,.18-1.69,1.15-1.29,3.13-2.7,2.29-3.58"/>
      </g>
      <g>
        <path class="cls-7" d="m147.83,146.14s-10.29,9.69-14.46,8.02c-4.72-1.89-6.95-14.01-2.39-22.14,3.64-6.49,7.1-5.84,10.2-12.76,3.15-7.02,2.61-14.51,3.24-14.59.55-.07,1.62,5.09,5.42,10.27,3.71,5.06,6.04,4.85,10.74,10.65.58.72,3.17,4,4.43,9.01.51,2.03,2.09,8.31-1.15,13.73-.81,1.35-1.38,2.31-2.59,2.98-3.66,2.02-13.43-5.18-13.43-5.18Z"/>
        <path class="cls-4" d="m148.59,145.45c.79-.7,1.64-1.33,2.46-2,3.18-2.59,4.98-4,6.88-6.33.99-1.21.99-1.43.93-1.5-.46-.55-6.99,4.69-7.62,4.01-.66-.71,5.67-7.3,5.09-7.91-.54-.56-4.77,4.29-5.99,3.33-1.51-1.19,3.2-10.86,3.01-10.96-.19-.1-5.2,8.8-6.69,8.26-1.41-.52.46-9.28.46-9.28,0,0-1.47,8-4.84,8.96-2.58.73-4.94-2.19-5.22-1.9-.3.3,4.7,4.33,3.81,6.74-.94,2.54-8.03,2.16-8.01,2.55.02.43,8.53-.39,9.17,1.57.55,1.7-7.34,4.59-6.93,6.01.19.67,4.75-1.72,7.81.28.71.46,1.03.95,1.79.98,1.13.05,1.81-.97,3.89-2.8Z"/>
        <path class="cls-4" d="m150.64,143.69c1.43-.21,3.46-.41,5.91-.36,1.55.03,2.96.06,2.99.32.02.14-1.91.46-4.54,1.91-1.14.63-2.14,1.55-3.24,1.95-.54.2-.9.62-1.7.14-1.48-.89-3.24-2.56-3.95-1.58"/>
      </g>
      <g>
        <path class="cls-7" d="m92.75,141s.09,14.13-3.98,16.05c-4.6,2.17-14.99-4.46-17.84-13.32-2.27-7.08.55-9.18-2.4-16.16-2.99-7.09-8.85-11.79-8.47-12.31.33-.45,4.83,2.28,11.21,3.03,6.24.73,7.66-1.12,15.11-.61.92.06,5.09.4,9.61,2.9,1.83,1.01,7.51,4.13,9.27,10.19.44,1.51.75,2.59.42,3.93-1.01,4.06-12.94,6.31-12.94,6.31Z"/>
        <path class="cls-4" d="m92.76,139.98c.03-1.06.15-2.11.21-3.16.26-4.09.46-6.37.05-9.35-.21-1.55-.37-1.69-.46-1.7-.71-.04-1.33,8.31-2.25,8.31-.97,0-1.49-9.13-2.33-9.11-.78.01-.11,6.41-1.64,6.65-1.9.3-5.78-9.74-5.98-9.67-.2.07,2.91,9.8,1.49,10.52-1.34.68-6.48-6.65-6.48-6.65,0,0,4.86,6.52,3.26,9.64-1.22,2.38-4.97,2.13-4.95,2.53.02.43,6.38-.49,7.53,1.8,1.22,2.41-3.89,7.35-3.59,7.6.33.28,5.53-6.52,7.39-5.64,1.62.76-1.64,8.5-.32,9.17.63.32,1.97-4.65,5.52-5.53.82-.2,1.4-.11,1.94-.64.8-.79.53-1.99.6-4.76Z"/>
        <path class="cls-4" d="m92.87,137.28c.82-1.19,2.06-2.81,3.76-4.57,1.08-1.11,2.06-2.13,2.27-1.97.11.08-.96,1.71-1.69,4.63-.32,1.27-.32,2.62-.78,3.7-.22.53-.16,1.08-1.05,1.34-1.66.48-4.08.63-3.84,1.82"/>
      </g>
      <polygon class="cls-1" points="50.24 153.77 109.72 70.63 169.85 153.77 50.24 153.77"/>
      <line class="cls-1" x1="109.73" y1="153.74" x2="109.73"/>
      <g>
        <path class="cls-6" d="m37.9,150.77c-25.86,50.68-3.54,108.71,38.15,126.3,33.39,14.09,76.5,2.92,99.99-28.94,20.74-28.14,22.14-66.82,3.29-97.36"/>
        <g class="cls-3">
          <rect class="cls-5" x="1.9" y="224.06" width="213.99" height="18.47"/>
          <rect class="cls-5" x="2.73" y="193.1" width="213.99" height="18.47"/>
          <rect class="cls-5" y="160.24" width="213.99" height="18.47"/>
        </g>
      </g>
      <g>
        <path class="cls-7" d="m91.1,168.83s6.1-7.32,9.03-6.54c3.31.88,5.78,8.82,3.39,14.62-1.91,4.64-4.28,4.49-5.8,9.37-1.54,4.95-.57,9.92-.99,10.03-.37.09-1.49-3.27-4.46-6.44-2.89-3.09-4.43-2.76-8.05-6.26-.45-.43-2.44-2.42-3.69-5.68-.5-1.32-2.07-5.39-.34-9.28.43-.97.74-1.66,1.49-2.21,2.28-1.65,9.41,2.38,9.41,2.38Z"/>
        <path class="cls-4" d="m90.64,169.35c-.47.53-.99,1.02-1.49,1.54-1.92,1.99-3.01,3.08-4.1,4.79-.56.89-.54,1.03-.5,1.08.35.33,4.3-3.7,4.78-3.3.5.42-3.21,5.35-2.76,5.71.41.33,2.85-3.26,3.74-2.71,1.11.67-1.26,7.53-1.13,7.58.13.05,2.77-6.31,3.81-6.07.99.23.45,6.25.45,6.25,0,0,.33-5.47,2.51-6.39,1.67-.7,3.48,1.07,3.65.85.18-.23-3.5-2.52-3.1-4.2.42-1.77,5.2-2.09,5.16-2.35-.05-.29-5.68.95-6.26-.31-.51-1.1,4.54-3.67,4.16-4.58-.18-.44-3.04,1.54-5.25.45-.51-.25-.77-.55-1.28-.51-.76.06-1.14.8-2.38,2.19Z"/>
        <path class="cls-4" d="m89.42,170.69c-.94.25-2.28.55-3.93.72-1.04.1-1.98.2-2.03.03-.02-.09,1.24-.46,2.89-1.65.71-.51,1.31-1.21,2.01-1.57.34-.17.55-.49,1.12-.23,1.06.48,2.38,1.45,2.77.74"/>
      </g>
      <g>
        <path class="cls-7" d="m74.83,144.46s2.19,7.59.29,9.24c-2.15,1.86-8.75-.13-11.62-4.47-2.3-3.47-1.09-5.02-3.74-8.34-2.68-3.36-6.55-5.01-6.42-5.34.11-.29,2.94.5,6.49-.06,3.47-.55,3.96-1.76,8.04-2.62.5-.11,2.8-.55,5.61.1,1.14.27,4.67,1.09,6.53,4.09.47.75.8,1.28.82,2.05.07,2.34-6.01,5.35-6.01,5.35Z"/>
        <path class="cls-4" d="m74.68,143.91c-.15-.57-.24-1.16-.36-1.73-.48-2.24-.71-3.5-1.39-5.04-.35-.8-.46-.86-.51-.84-.39.09.54,4.68.04,4.82-.52.14-2.18-4.69-2.63-4.55-.42.12.91,3.47.12,3.83-.98.45-4.58-4.37-4.68-4.3-.1.07,3.05,4.84,2.39,5.44-.62.57-4.5-2.6-4.5-2.6,0,0,3.6,2.78,3.22,4.7-.3,1.47-2.35,1.9-2.28,2.11.07.23,3.36-1.23,4.33-.17,1.02,1.12-.98,4.55-.78,4.64.22.1,1.99-4.34,3.13-4.16.99.16.4,4.82,1.21,4.98.38.08.36-2.8,2.14-3.81.41-.23.74-.27.95-.64.31-.55-.02-1.15-.4-2.65Z"/>
        <path class="cls-4" d="m74.33,142.44c.26-.76.68-1.83,1.33-3.03.41-.76.78-1.46.93-1.41.07.03-.26,1.07-.21,2.75.02.73.22,1.46.14,2.11-.04.32.08.61-.36.88-.82.51-2.1.96-1.79,1.56"/>
      </g>
      <g>
        <path class="cls-7" d="m109.18,144.93s8.19,4.86,7.89,7.88c-.35,3.41-7.79,7.11-13.9,5.67-4.88-1.15-5.11-3.51-10.17-4.24-5.13-.74-9.89,1.01-10.06.61-.15-.35,3-1.99,5.65-5.42,2.59-3.35,2.02-4.82,4.9-8.94.36-.51,2-2.8,5.02-4.55,1.22-.71,5-2.9,9.11-1.81,1.03.27,1.76.47,2.42,1.13,1.99,1.99-.86,9.67-.86,9.67Z"/>
        <path class="cls-4" d="m108.59,144.56c-.6-.38-1.17-.82-1.75-1.22-2.27-1.58-3.52-2.48-5.38-3.28-.97-.42-1.11-.37-1.14-.32-.27.4,4.34,3.66,4.02,4.19-.34.56-5.79-2.32-6.07-1.82-.26.46,3.67,2.29,3.27,3.26-.49,1.2-7.64-.05-7.67.09-.03.14,6.67,1.73,6.59,2.8-.07,1.01-6.1,1.43-6.1,1.43,0,0,5.46-.54,6.7,1.47.95,1.53-.5,3.61-.26,3.74.25.14,1.93-3.85,3.66-3.73,1.82.13,2.89,4.8,3.14,4.72.27-.09-1.84-5.46-.69-6.23,1-.67,4.34,3.9,5.18,3.37.4-.25-2-2.75-1.28-5.12.17-.55.43-.85.3-1.35-.18-.74-.97-.99-2.54-2Z"/>
        <path class="cls-4" d="m107.07,143.57c-.4-.89-.91-2.17-1.33-3.76-.27-1.01-.51-1.93-.35-2,.09-.04.66,1.15,2.08,2.59.62.62,1.4,1.1,1.87,1.73.23.31.57.47.41,1.07-.3,1.13-1.06,2.58-.29,2.85"/>
      </g>
      <g>
        <path class="cls-7" d="m123.91,148.91s-8.62-6.59-7.87-9.96c.85-3.81,9.76-7,16.47-4.56,5.37,1.95,5.31,4.65,10.93,6.15,5.71,1.52,11.32.18,11.45.65.12.41-3.65,1.86-7.11,5.38-3.38,3.44-2.92,5.18-6.73,9.46-.47.53-2.64,2.9-6.28,4.47-1.47.64-6.04,2.61-10.54.83-1.12-.44-1.92-.76-2.58-1.59-1.99-2.52,2.26-10.82,2.26-10.82Z"/>
        <path class="cls-4" d="m124.53,149.4c.63.51,1.21,1.08,1.82,1.62,2.36,2.08,3.65,3.28,5.65,4.43,1.04.6,1.2.57,1.25.52.36-.42-4.42-4.72-3.98-5.27.46-.58,6.24,3.39,6.63,2.87.36-.48-3.84-3.08-3.27-4.12.71-1.29,8.63,1.07,8.68.92.05-.15-7.31-2.84-7.08-4.04.22-1.13,7.09-.81,7.09-.81,0,0-6.24-.12-7.39-2.55-.87-1.86,1.05-4.01.79-4.19-.27-.19-2.7,4.1-4.63,3.73-2.04-.39-2.63-5.81-2.93-5.75-.32.07,1.36,6.42-.05,7.14-1.22.63-4.39-4.99-5.41-4.51-.49.23,1.89,3.38.76,5.95-.26.59-.59.9-.52,1.48.11.86.96,1.25,2.61,2.6Z"/>
        <path class="cls-4" d="m126.11,150.73c.33,1.06.74,2.57,1.01,4.43.17,1.18.32,2.25.13,2.31-.1.03-.59-1.39-2.01-3.2-.62-.79-1.44-1.43-1.88-2.21-.21-.38-.58-.61-.32-1.27.49-1.23,1.54-2.77.7-3.19"/>
      </g>
      <g>
        <path class="cls-7" d="m98.39,152.96s6.1-7.32,9.03-6.54c3.31.88,5.78,8.82,3.39,14.62-1.91,4.64-4.28,4.49-5.8,9.37-1.54,4.95-.57,9.92-.99,10.03-.37.09-1.49-3.27-4.46-6.44-2.89-3.09-4.43-2.76-8.05-6.26-.45-.43-2.44-2.42-3.69-5.68-.5-1.32-2.07-5.39-.34-9.28.43-.97.74-1.66,1.49-2.21,2.28-1.65,9.41,2.38,9.41,2.38Z"/>
        <path class="cls-4" d="m97.94,153.48c-.47.53-.99,1.02-1.49,1.54-1.92,1.99-3.01,3.08-4.1,4.79-.56.89-.54,1.03-.5,1.08.35.33,4.3-3.7,4.78-3.3.5.42-3.21,5.35-2.76,5.71.41.33,2.85-3.26,3.74-2.71,1.11.67-1.26,7.53-1.13,7.58.13.05,2.77-6.31,3.81-6.07.99.23.45,6.25.45,6.25,0,0,.33-5.47,2.51-6.39,1.67-.7,3.48,1.07,3.65.85.18-.23-3.5-2.52-3.1-4.2.42-1.77,5.2-2.09,5.16-2.35-.05-.29-5.68.95-6.26-.31-.51-1.1,4.54-3.67,4.16-4.58-.18-.44-3.04,1.54-5.25.45-.51-.25-.77-.55-1.28-.51-.76.06-1.14.8-2.38,2.19Z"/>
        <path class="cls-4" d="m96.71,154.82c-.94.25-2.28.55-3.93.72-1.04.1-1.98.2-2.03.03-.02-.09,1.24-.46,2.89-1.65.71-.51,1.31-1.21,2.01-1.57.34-.17.55-.49,1.12-.23,1.06.48,2.38,1.45,2.77.74"/>
      </g>
      <g>
        <path class="cls-7" d="m116.24,149.37s6.1-7.32,9.03-6.54c3.31.88,5.78,8.82,3.39,14.62-1.91,4.64-4.28,4.49-5.8,9.37-1.54,4.95-.57,9.92-.99,10.03-.37.09-1.49-3.27-4.46-6.44-2.89-3.09-4.43-2.76-8.05-6.26-.45-.43-2.44-2.42-3.69-5.68-.5-1.32-2.07-5.39-.34-9.28.43-.97.74-1.66,1.49-2.21,2.28-1.65,9.41,2.38,9.41,2.38Z"/>
        <path class="cls-4" d="m115.79,149.89c-.47.53-.99,1.02-1.49,1.54-1.92,1.99-3.01,3.08-4.1,4.79-.56.89-.54,1.03-.5,1.08.35.33,4.3-3.7,4.78-3.3.5.42-3.21,5.35-2.76,5.71.41.33,2.85-3.26,3.74-2.71,1.11.67-1.26,7.53-1.13,7.58.13.05,2.77-6.31,3.81-6.07.99.23.45,6.25.45,6.25,0,0,.33-5.47,2.51-6.39,1.67-.7,3.48,1.07,3.65.85.18-.23-3.5-2.52-3.1-4.2.42-1.77,5.2-2.09,5.16-2.35-.05-.29-5.68.95-6.26-.31-.51-1.1,4.54-3.67,4.16-4.58-.18-.44-3.04,1.54-5.25.45-.51-.25-.77-.55-1.28-.51-.76.06-1.14.8-2.38,2.19Z"/>
        <path class="cls-4" d="m114.56,151.23c-.94.25-2.28.55-3.93.72-1.04.1-1.98.2-2.03.03-.02-.09,1.24-.46,2.89-1.65.71-.51,1.31-1.21,2.01-1.57.34-.17.55-.49,1.12-.23,1.06.48,2.38,1.45,2.77.74"/>
      </g>
      <g>
        <path class="cls-7" d="m145.07,144.75s-8.69-3.91-8.72-6.94c-.04-3.43,6.94-7.94,13.17-7.2,4.98.59,5.47,2.92,10.58,3.07,5.18.15,9.71-2.12,9.92-1.74.18.33-2.75,2.32-5,6.02-2.2,3.62-1.46,5.01-3.86,9.44-.3.55-1.68,3.01-4.47,5.08-1.13.84-4.64,3.44-8.85,2.82-1.05-.16-1.8-.27-2.53-.85-2.2-1.76-.24-9.7-.24-9.7Z"/>
        <path class="cls-4" d="m145.69,145.05c.64.31,1.25.68,1.88,1.02,2.44,1.31,3.78,2.07,5.72,2.66,1.01.3,1.14.25,1.17.19.22-.43-4.72-3.15-4.46-3.71.27-.59,6.01,1.65,6.24,1.13.21-.48-3.9-1.86-3.62-2.87.35-1.25,7.59-.81,7.61-.95.02-.14-6.82-.97-6.87-2.04-.04-1.01,5.9-2.11,5.9-2.11,0,0-5.36,1.15-6.83-.71-1.12-1.42.09-3.64-.16-3.75-.27-.11-1.49,4.05-3.22,4.11-1.82.07-3.42-4.45-3.65-4.34-.26.12,2.44,5.22,1.38,6.12-.92.78-4.75-3.39-5.53-2.77-.37.29,2.3,2.51,1.84,4.94-.11.56-.33.89-.15,1.37.26.71,1.07.88,2.75,1.7Z"/>
        <path class="cls-4" d="m147.31,145.87c.5.84,1.15,2.05,1.75,3.59.38.97.73,1.86.57,1.95-.08.05-.78-1.07-2.36-2.34-.69-.55-1.52-.93-2.05-1.51-.26-.28-.62-.4-.52-1.02.17-1.15.76-2.68-.04-2.87"/>
      </g>
      <g>
        <path class="cls-7" d="m140.43,156.4s10.79-5.16,13.72-2.74c3.32,2.74,1.99,13.09-3.77,18.46-4.61,4.29-7.23,2.88-11.51,7.66-4.35,4.84-5.84,11.02-6.37,10.92-.46-.09,0-4.52-1.72-9.67-1.69-5.04-3.62-5.46-5.92-11.35-.28-.73-1.52-4.04-1.25-8.41.11-1.76.46-7.24,4.47-10.77,1-.88,1.71-1.51,2.86-1.74,3.47-.69,9.49,7.63,9.49,7.63Z"/>
        <path class="cls-4" d="m139.64,156.77c-.82.36-1.67.65-2.5.98-3.23,1.27-5.05,1.94-7.18,3.33-1.11.72-1.16.9-1.13.97.23.56,6.84-1.98,7.18-1.27.35.74-6.45,4.43-6.14,5.07.29.59,4.95-2.23,5.69-1.14.91,1.35-5.38,7.93-5.25,8.06.12.13,6.46-5.76,7.52-4.93,1.01.78-2.76,7.36-2.76,7.36,0,0,3.24-6.07,6.21-5.97,2.26.07,3.42,3.04,3.72,2.88.32-.17-2.67-4.71-1.34-6.41,1.41-1.8,7.03.33,7.12,0,.1-.35-6.98-1.88-6.98-3.63,0-1.52,7.1-1.81,7.14-3.06.02-.59-4.27.17-6.23-2.24-.45-.56-.59-1.03-1.19-1.26-.9-.33-1.71.31-3.86,1.26Z"/>
        <path class="cls-4" d="m137.54,157.65c-1.21-.2-2.89-.56-4.86-1.23-1.24-.42-2.37-.81-2.33-1.03.02-.12,1.66.12,4.15-.37,1.08-.21,2.13-.7,3.11-.74.48-.02.88-.27,1.4.32.96,1.1,1.95,2.9,2.78,2.29"/>
      </g>
    </g>
  </g>
</svg>