<?xml version="1.0" encoding="UTF-8"?>
<svg id="Layer_2" data-name="Layer 2" xmlns="http://www.w3.org/2000/svg" xmlns:xlink="http://www.w3.org/1999/xlink" viewBox="0 0 226.2 394.12">
  <defs>
    <style>
      .cls-1 {
        stroke: #fff;
        stroke-width: 3px;
      }

      .cls-1, .cls-2, .cls-3 {
        fill: none;
      }

      .cls-1, .cls-3 {
        stroke-miterlimit: 10;
      }

      .cls-4 {
        clip-path: url(#clippath);
      }

      .cls-2, .cls-5, .cls-6, .cls-7, .cls-8 {
        stroke-width: 0px;
      }

      .cls-3 {
        stroke: #006937;
        stroke-width: 2.91px;
      }

      .cls-5 {
        fill: #3bb54a;
      }

      .cls-6 {
        fill: #a67c52;
      }

      .cls-7 {
        fill: #8c6339;
      }

      .cls-8 {
        fill: #009247;
      }
    </style>
    <clipPath id="clippath">
      <path class="cls-2" d="m37.9,150.77c-25.86,50.68-3.54,108.71,38.15,126.3,33.39,14.09,76.5,2.92,99.99-28.94,20.74-28.14,22.14-66.82,3.29-97.36"/>
    </clipPath>
  </defs>
  <g id="Layer_1-2" data-name="Layer 1">
    <g>
      <g>
        <path class="cls-8" d="m140.24,134.46s-10.29,9.69-14.46,8.02c-4.72-1.89-6.95-14.01-2.39-22.14,3.64-6.49,7.1-5.84,10.2-12.76,3.15-7.02,2.61-14.51,3.24-14.59.55-.07,1.62,5.09,5.42,10.27,3.71,5.06,6.04,4.85,10.74,10.65.58.72,3.17,4,4.43,9.01.51,2.03,2.09,8.31-1.15,13.73-.81,1.35-1.38,2.31-2.59,2.98-3.66,2.02-13.43-5.18-13.43-5.18Z"/>
        <path class="cls-5" d="m140.99,133.77c.79-.7,1.64-1.33,2.46-2,3.18-2.59,4.98-4,6.88-6.33.99-1.21.99-1.43.93-1.5-.46-.55-6.99,4.69-7.62,4.01-.66-.71,5.67-7.3,5.09-7.91-.54-.56-4.77,4.29-5.99,3.33-1.51-1.19,3.2-10.86,3.01-10.96-.19-.1-5.2,8.8-6.69,8.26-1.41-.52.46-9.28.46-9.28,0,0-1.47,8-4.84,8.96-2.58.73-4.94-2.19-5.22-1.9-.3.3,4.7,4.33,3.81,6.74-.94,2.54-8.03,2.16-8.01,2.55.02.43,8.53-.39,9.17,1.57.55,1.7-7.34,4.59-6.93,6.01.19.67,4.75-1.72,7.81.28.71.46,1.03.95,1.79.98,1.13.05,1.81-.97,3.89-2.8Z"/>
        <path class="cls-5" d="m143.04,132.02c1.43-.21,3.46-.41,5.91-.36,1.55.03,2.96.06,2.99.32.02.14-1.91.46-4.54,1.91-1.14.63-2.14,1.55-3.24,1.95-.54.2-.9.62-1.7.14-1.48-.89-3.24-2.56-3.95-1.58"/>
      </g>
      <g>
        <path class="cls-8" d="m82.68,133.36s6.23,12.68,3.41,16.18c-3.19,3.96-15.44,2.52-21.86-4.22-5.13-5.39-3.5-8.5-9.2-13.51-5.78-5.08-13.1-6.76-12.99-7.39.1-.55,5.34-.05,11.41-2.15,5.93-2.06,6.41-4.35,13.34-7.13.85-.34,4.76-1.85,9.92-1.58,2.09.11,8.56.45,12.78,5.14,1.05,1.17,1.8,2,2.09,3.36.86,4.09-8.9,11.31-8.9,11.31Z"/>
        <path class="cls-5" d="m82.24,132.43c-.44-.96-.79-1.96-1.18-2.94-1.55-3.8-2.36-5.94-4.02-8.44-.87-1.3-1.07-1.36-1.16-1.33-.66.28,2.42,8.06,1.59,8.46-.87.42-5.31-7.57-6.07-7.19-.7.35,2.7,5.82,1.42,6.7-1.58,1.09-9.44-6.25-9.59-6.11-.15.15,6.88,7.56,5.92,8.82-.91,1.2-8.73-3.17-8.73-3.17,0,0,7.21,3.75,7.14,7.26-.06,2.68-3.55,4.08-3.36,4.43.2.37,5.53-3.22,7.56-1.66,2.15,1.64-.3,8.31.08,8.41.41.11,2.14-8.27,4.2-8.3,1.79-.02,2.23,8.37,3.7,8.39.7.01-.25-5.04,2.56-7.39.65-.54,1.21-.7,1.47-1.42.38-1.06-.39-2.02-1.54-4.54Z"/>
        <path class="cls-5" d="m81.16,129.96c.22-1.43.63-3.43,1.39-5.75.48-1.47.92-2.81,1.19-2.77.14.02-.12,1.96.49,4.9.26,1.28.85,2.5.91,3.67.03.57.33,1.04-.37,1.66-1.29,1.15-3.4,2.34-2.67,3.31"/>
      </g>
      <g>
        <path class="cls-8" d="m101.14,119.51s-7.57-11.93-5.14-15.71c2.75-4.28,15.08-4.17,22.19,1.83,5.68,4.8,4.4,8.07,10.6,12.43,6.29,4.42,13.76,5.3,13.71,5.94-.04.56-5.3.63-11.11,3.38-5.68,2.69-5.9,5.01-12.49,8.54-.81.43-4.53,2.36-9.69,2.64-2.09.12-8.55.48-13.26-3.73-1.17-1.05-2.01-1.8-2.44-3.11-1.3-3.97,7.62-12.21,7.62-12.21Z"/>
        <path class="cls-5" d="m101.68,120.39c.54.91.99,1.86,1.5,2.79,1.95,3.61,2.99,5.65,4.91,7.95,1,1.2,1.21,1.24,1.29,1.19.63-.35-3.28-7.75-2.5-8.24.82-.51,6.1,6.95,6.81,6.49.65-.42-3.31-5.49-2.14-6.51,1.45-1.26,10.06,5.19,10.2,5.03.13-.16-7.66-6.77-6.84-8.13.78-1.29,9.03,2.2,9.03,2.2,0,0-7.58-2.95-7.88-6.44-.23-2.67,3.08-4.44,2.86-4.77-.24-.35-5.15,3.8-7.34,2.47-2.31-1.4-.6-8.29-.99-8.35-.42-.06-1.23,8.45-3.28,8.7-1.78.22-3.12-8.08-4.59-7.94-.7.06.8,4.99-1.75,7.62-.59.61-1.13.83-1.31,1.58-.26,1.1.61,1.96,2.02,4.35Z"/>
        <path class="cls-5" d="m103.02,122.73c-.07,1.44-.25,3.47-.76,5.87-.32,1.51-.62,2.89-.88,2.88-.14,0-.1-1.96-1.02-4.82-.4-1.24-1.12-2.4-1.3-3.55-.09-.56-.44-1,.18-1.69,1.15-1.29,3.13-2.7,2.29-3.58"/>
      </g>
      <polygon class="cls-1" points="50.24 153.77 109.72 70.63 169.85 153.77 50.24 153.77"/>
      <line class="cls-1" x1="109.73" y1="153.74" x2="109.73"/>
      <g>
        <path class="cls-7" d="m37.9,150.77c-25.86,50.68-3.54,108.71,38.15,126.3,33.39,14.09,76.5,2.92,99.99-28.94,20.74-28.14,22.14-66.82,3.29-97.36"/>
        <g class="cls-4">
          <rect class="cls-6" x="1.9" y="224.06" width="213.99" height="18.47"/>
          <rect class="cls-6" x="2.73" y="193.1" width="213.99" height="18.47"/>
          <rect class="cls-6" y="160.24" width="213.99" height="18.47"/>
        </g>
      </g>
      <path class="cls-3" d="m100.5,132.62c-13.4,14.52-26.68,33.56-21.55,50.01,3.28,10.52,11.33,11.12,18.3,23.18,11.47,19.86,9.45,52.53-6.91,68.31-18.22,17.57-42.98,3.34-58.14,19.92-11.42,12.49-9.23,33.52-4.88,50.82"/>
      <g>
        <path class="cls-8" d="m103.41,247.6s1.97-10.67,5.31-11.53c3.78-.98,10.66,5.52,11.53,12.61.7,5.67-1.74,6.84-.52,12.53,1.24,5.77,4.98,10.17,4.62,10.5-.31.29-3.31-2.41-8.02-3.9-4.6-1.45-5.94-.26-11.48-1.71-.68-.18-3.78-1.04-6.83-3.57-1.24-1.02-5.07-4.2-5.52-9.02-.11-1.2-.19-2.06.25-3.02,1.34-2.91,10.66-2.9,10.66-2.9Z"/>
        <path class="cls-5" d="m103.26,248.37c-.17.79-.41,1.57-.62,2.35-.79,3.05-1.27,4.74-1.39,7.04-.06,1.2.04,1.33.11,1.35.53.13,2.2-6.08,2.89-5.94.73.14-.19,7.1.45,7.21.59.1,1-4.82,2.19-4.78,1.47.05,2.95,8.18,3.11,8.15.16-.02-.78-7.81.39-8.15,1.11-.32,3.93,5.95,3.93,5.95,0,0-2.73-5.62-1.07-7.74,1.26-1.62,4.05-.89,4.1-1.2.05-.32-4.88-.55-5.42-2.44-.57-2,3.99-4.98,3.8-5.22-.2-.26-5.1,4.12-6.39,3.19-1.11-.81,2.46-6.17,1.56-6.87-.43-.33-2.15,3.22-4.96,3.38-.65.04-1.07-.12-1.56.21-.72.48-.68,1.42-1.13,3.5Z"/>
        <path class="cls-5" d="m102.79,250.39c-.79.78-1.96,1.82-3.49,2.91-.97.68-1.86,1.31-2,1.16-.07-.08.97-1.15,1.94-3.25.42-.91.62-1.93,1.12-2.68.24-.36.28-.79.99-.86,1.32-.12,3.17.12,3.16-.82"/>
      </g>
      <g>
        <path class="cls-8" d="m100.66,215.12s13.95-2.28,16.47,1.44c2.86,4.21-2.08,15.5-10.4,19.69-6.65,3.34-9.15.88-15.6,4.87-6.54,4.05-10.28,10.57-10.84,10.28-.5-.26,1.51-5.12,1.26-11.54-.24-6.27-2.3-7.4-2.95-14.83-.08-.92-.39-5.09,1.37-9.95.71-1.96,2.92-8.06,8.63-10.74,1.43-.67,2.44-1.14,3.82-1.02,4.16.37,8.24,11.8,8.24,11.8Z"/>
        <path class="cls-5" d="m99.64,215.26c-1.05.14-2.11.18-3.16.28-4.08.38-6.37.53-9.24,1.4-1.5.45-1.61.63-1.61.72.07.71,8.42.02,8.56.94.15.95-8.79,2.88-8.64,3.72.13.77,6.35-.89,6.83.59.59,1.83-8.73,7.22-8.63,7.4.1.19,9.23-4.39,10.16-3.1.88,1.22-5.57,7.44-5.57,7.44,0,0,5.69-5.81,9.02-4.72,2.54.84,2.87,4.58,3.27,4.5.42-.08-1.47-6.22.61-7.72,2.2-1.58,7.86,2.7,8.07,2.37.23-.36-7.29-4.45-6.72-6.43.5-1.72,8.65.3,9.11-1.1.22-.67-4.9-1.23-6.32-4.6-.33-.78-.32-1.37-.94-1.82-.91-.67-2.05-.21-4.79.15Z"/>
        <path class="cls-5" d="m96.97,215.58c-1.3-.63-3.1-1.6-5.1-3-1.27-.89-2.42-1.7-2.3-1.94.06-.12,1.84.68,4.83.96,1.3.12,2.64-.09,3.77.19.55.14,1.09,0,1.48.83.73,1.57,1.25,3.94,2.39,3.51"/>
      </g>
      <g>
        <path class="cls-8" d="m83.43,188.53s7.13-3.4,9.07-1.8c2.19,1.81,1.31,8.65-2.51,12.2-3.05,2.83-4.78,1.9-7.61,5.05-2.88,3.2-3.87,7.28-4.22,7.21-.31-.06,0-2.99-1.13-6.39-1.11-3.33-2.39-3.61-3.9-7.51-.19-.48-1-2.67-.82-5.56.08-1.17.31-4.78,2.96-7.11.66-.58,1.13-1,1.89-1.15,2.29-.45,6.27,5.05,6.27,5.05Z"/>
        <path class="cls-5" d="m82.91,188.77c-.54.24-1.1.43-1.65.64-2.13.84-3.34,1.28-4.75,2.19-.73.48-.77.59-.75.64.15.37,4.52-1.3,4.74-.83.23.49-4.27,2.92-4.06,3.35.19.39,3.27-1.47,3.76-.75.6.89-3.56,5.24-3.48,5.32.08.09,4.27-3.8,4.97-3.25.66.52-1.83,4.86-1.83,4.86,0,0,2.15-4.01,4.11-3.94,1.5.05,2.26,2.01,2.46,1.91.21-.11-1.76-3.11-.88-4.24.93-1.19,4.64.22,4.7.01.06-.23-4.61-1.25-4.61-2.4,0-1,4.69-1.19,4.72-2.02.01-.39-2.82.11-4.11-1.48-.3-.37-.39-.68-.79-.83-.59-.22-1.13.21-2.55.83Z"/>
        <path class="cls-5" d="m81.52,189.36c-.8-.14-1.91-.37-3.21-.82-.82-.28-1.56-.54-1.54-.68.01-.08,1.1.08,2.74-.24.72-.14,1.41-.46,2.06-.49.32-.01.58-.18.93.22.64.73,1.29,1.92,1.83,1.51"/>
      </g>
      <g>
        <path class="cls-8" d="m83.5,157.15s6.1-7.32,9.03-6.54c3.31.88,5.78,8.82,3.39,14.62-1.91,4.64-4.28,4.49-5.8,9.37-1.54,4.95-.57,9.92-.99,10.03-.37.09-1.49-3.27-4.46-6.44-2.89-3.09-4.43-2.76-8.05-6.26-.45-.43-2.44-2.42-3.69-5.68-.5-1.32-2.07-5.39-.34-9.28.43-.97.74-1.66,1.49-2.21,2.28-1.65,9.41,2.38,9.41,2.38Z"/>
        <path class="cls-5" d="m83.05,157.68c-.47.53-.99,1.02-1.49,1.54-1.92,1.99-3.01,3.08-4.1,4.79-.56.89-.54,1.03-.5,1.08.35.33,4.3-3.7,4.78-3.3.5.42-3.21,5.35-2.76,5.71.41.33,2.85-3.26,3.74-2.71,1.11.67-1.26,7.53-1.13,7.58.13.05,2.77-6.31,3.81-6.07.99.23.45,6.25.45,6.25,0,0,.33-5.47,2.51-6.39,1.67-.7,3.48,1.07,3.65.85.18-.23-3.5-2.52-3.1-4.2.42-1.77,5.2-2.09,5.16-2.35-.05-.29-5.68.95-6.26-.31-.51-1.1,4.54-3.67,4.16-4.58-.18-.44-3.04,1.54-5.25.45-.51-.25-.77-.55-1.28-.51-.76.06-1.14.8-2.38,2.19Z"/>
        <path class="cls-5" d="m81.82,159.02c-.94.25-2.28.55-3.93.72-1.04.1-1.98.2-2.03.03-.02-.09,1.24-.46,2.89-1.65.71-.51,1.31-1.21,2.01-1.57.34-.17.55-.49,1.12-.23,1.06.48,2.38,1.45,2.77.74"/>
      </g>
      <g>
        <path class="cls-8" d="m86.68,277.26s12.51-2.04,14.77,1.29c2.56,3.77-1.86,13.9-9.32,17.66-5.96,3-8.21.79-13.99,4.37-5.86,3.63-9.22,9.48-9.72,9.22-.45-.23,1.35-4.59,1.13-10.35-.22-5.63-2.06-6.63-2.65-13.3-.07-.82-.35-4.56,1.23-8.92.64-1.76,2.62-7.22,7.74-9.63,1.28-.6,2.19-1.03,3.42-.92,3.73.33,7.39,10.58,7.39,10.58Z"/>
        <path class="cls-5" d="m85.77,277.39c-.94.12-1.89.16-2.83.25-3.66.34-5.71.48-8.29,1.25-1.34.4-1.45.57-1.44.65.07.64,7.55.02,7.68.84.13.86-7.88,2.59-7.75,3.33.12.69,5.7-.8,6.12.53.53,1.64-7.82,6.47-7.74,6.64.09.17,8.28-3.94,9.11-2.78.79,1.09-4.99,6.67-4.99,6.67,0,0,5.1-5.21,8.09-4.23,2.28.75,2.57,4.11,2.93,4.03.37-.08-1.32-5.58.54-6.92,1.97-1.42,7.05,2.42,7.24,2.12.2-.33-6.54-3.99-6.03-5.77.45-1.54,7.76.27,8.17-.99.19-.6-4.39-1.1-5.67-4.12-.3-.7-.29-1.23-.84-1.63-.82-.6-1.83-.19-4.3.13Z"/>
        <path class="cls-5" d="m83.37,277.67c-1.17-.56-2.78-1.43-4.57-2.69-1.13-.8-2.17-1.53-2.06-1.74.05-.11,1.65.61,4.33.86,1.17.11,2.37-.08,3.38.17.5.12.98,0,1.33.75.65,1.4,1.12,3.53,2.15,3.15"/>
      </g>
      <g>
        <path class="cls-8" d="m32.25,294.66s8.7-11.14,13.07-10.12c4.95,1.15,9,12.8,5.73,21.52-2.61,6.97-6.13,6.85-8.15,14.16-2.05,7.41-.38,14.74-.99,14.91-.54.15-2.37-4.78-6.91-9.33-4.44-4.44-6.71-3.87-12.23-8.89-.68-.62-3.74-3.47-5.74-8.24-.81-1.93-3.32-7.9-.94-13.74.59-1.46,1.02-2.5,2.11-3.34,3.31-2.56,14.06,3.08,14.06,3.08Z"/>
        <path class="cls-5" d="m31.61,295.45c-.68.81-1.42,1.56-2.13,2.35-2.74,3.05-4.32,4.71-5.84,7.3-.79,1.35-.76,1.56-.69,1.62.54.47,6.2-5.7,6.92-5.12.76.6-4.5,8.08-3.82,8.59.62.47,4.06-4.97,5.41-4.2,1.67.94-1.51,11.22-1.31,11.29.2.07,3.8-9.49,5.36-9.18,1.48.3.96,9.24.96,9.24,0,0,.23-8.13,3.42-9.59,2.44-1.11,5.22,1.41,5.45,1.09.25-.35-5.3-3.57-4.79-6.08.54-2.65,7.61-3.35,7.53-3.74-.08-.42-8.38,1.68-9.3-.16-.8-1.6,6.56-5.65,5.94-6.99-.29-.64-4.43,2.42-7.77.91-.77-.35-1.16-.79-1.92-.7-1.12.13-1.65,1.23-3.42,3.36Z"/>
        <path class="cls-5" d="m29.85,297.5c-1.38.42-3.36.93-5.79,1.25-1.53.21-2.93.39-3.01.14-.04-.13,1.82-.75,4.2-2.58,1.04-.79,1.88-1.86,2.9-2.42.5-.28.8-.75,1.65-.4,1.6.65,3.59,2.04,4.14.96"/>
      </g>
      <g>
        <path class="cls-8" d="m26.84,344.02s15.64-7.67,19.95-4.19c4.88,3.94,3.09,19.04-5.23,26.95-6.65,6.32-10.49,4.31-16.67,11.33-6.26,7.12-8.35,16.15-9.12,16.01-.68-.12-.05-6.58-2.64-14.07-2.53-7.32-5.35-7.91-8.78-16.45-.42-1.05-2.28-5.87-1.94-12.23.14-2.57.56-10.55,6.35-15.76,1.44-1.3,2.47-2.22,4.14-2.57,5.04-1.05,13.94,10.99,13.94,10.99Z"/>
        <path class="cls-5" d="m25.69,344.56c-1.19.54-2.42.97-3.63,1.46-4.69,1.9-7.32,2.9-10.41,4.95-1.6,1.07-1.68,1.32-1.64,1.43.34.81,9.94-2.98,10.44-1.95.51,1.07-9.34,6.54-8.87,7.47.43.86,7.18-3.32,8.27-1.75,1.35,1.95-7.72,11.64-7.54,11.82.18.19,9.32-8.48,10.88-7.3,1.48,1.12-3.91,10.77-3.91,10.77,0,0,4.64-8.89,8.96-8.79,3.3.08,5.03,4.38,5.46,4.14.46-.25-3.96-6.82-2.04-9.33,2.03-2.65,10.25.38,10.37-.09.14-.51-10.2-2.64-10.23-5.19-.03-2.21,10.32-2.74,10.35-4.56.02-.86-6.22.3-9.11-3.17-.67-.8-.87-1.5-1.76-1.81-1.31-.46-2.49.48-5.6,1.89Z"/>
        <path class="cls-5" d="m22.65,345.88c-1.76-.28-4.23-.78-7.09-1.72-1.81-.6-3.46-1.14-3.41-1.47.03-.17,2.42.15,6.05-.6,1.58-.32,3.09-1.05,4.52-1.12.7-.04,1.29-.4,2.05.45,1.42,1.59,2.88,4.2,4.08,3.29"/>
      </g>
      <path class="cls-3" d="m151.75,305.53c8.29-32.46,20.11-43.86,29.97-47.91,2.55-1.05,5.49-1.82,8.97-4.61,10.47-8.43,14.65-26.32,9.48-40.48-5.62-15.39-23.52-11.21-42.01-25.36-11.81-9.04-22.5-23.92-28.18-48.93"/>
      <g>
        <path class="cls-8" d="m101.59,133.25s8.19,4.86,7.89,7.88c-.35,3.41-7.79,7.11-13.9,5.67-4.88-1.15-5.11-3.51-10.17-4.24-5.13-.74-9.89,1.01-10.06.61-.15-.35,3-1.99,5.65-5.42,2.59-3.35,2.02-4.82,4.9-8.94.36-.51,2-2.8,5.02-4.55,1.22-.71,5-2.9,9.11-1.81,1.03.27,1.76.47,2.42,1.13,1.99,1.99-.86,9.67-.86,9.67Z"/>
        <path class="cls-5" d="m101,132.89c-.6-.38-1.17-.82-1.75-1.22-2.27-1.58-3.52-2.48-5.38-3.28-.97-.42-1.11-.37-1.14-.32-.27.4,4.34,3.66,4.02,4.19-.34.56-5.79-2.32-6.07-1.82-.26.46,3.67,2.29,3.27,3.26-.49,1.2-7.64-.05-7.67.09-.03.14,6.67,1.73,6.59,2.8-.07,1.01-6.1,1.43-6.1,1.43,0,0,5.46-.54,6.7,1.47.95,1.53-.5,3.61-.26,3.74.25.14,1.93-3.85,3.66-3.73,1.82.13,2.89,4.8,3.14,4.72.27-.09-1.84-5.46-.69-6.23,1-.67,4.34,3.9,5.18,3.37.4-.25-2-2.75-1.28-5.12.17-.55.43-.85.3-1.35-.18-.74-.97-.99-2.54-2Z"/>
        <path class="cls-5" d="m99.48,131.89c-.4-.89-.91-2.17-1.33-3.76-.27-1.01-.51-1.93-.35-2,.09-.04.66,1.15,2.08,2.59.62.62,1.4,1.1,1.87,1.73.23.31.57.47.41,1.07-.3,1.13-1.06,2.58-.29,2.85"/>
      </g>
      <g>
        <path class="cls-8" d="m116.31,137.23s-8.62-6.59-7.87-9.96c.85-3.81,9.76-7,16.47-4.56,5.37,1.95,5.31,4.65,10.93,6.15,5.71,1.52,11.32.18,11.45.65.12.41-3.65,1.86-7.11,5.38-3.38,3.44-2.92,5.18-6.73,9.46-.47.53-2.64,2.9-6.28,4.47-1.47.64-6.04,2.61-10.54.83-1.12-.44-1.92-.76-2.58-1.59-1.99-2.52,2.26-10.82,2.26-10.82Z"/>
        <path class="cls-5" d="m116.93,137.72c.63.51,1.21,1.08,1.82,1.62,2.36,2.08,3.65,3.28,5.65,4.43,1.04.6,1.2.57,1.25.52.36-.42-4.42-4.72-3.98-5.27.46-.58,6.24,3.39,6.63,2.87.36-.48-3.84-3.08-3.27-4.12.71-1.29,8.63,1.07,8.68.92.05-.15-7.31-2.84-7.08-4.04.22-1.13,7.09-.81,7.09-.81,0,0-6.24-.12-7.39-2.55-.87-1.86,1.05-4.01.79-4.19-.27-.19-2.7,4.1-4.63,3.73-2.04-.39-2.63-5.81-2.93-5.75-.32.07,1.36,6.42-.05,7.14-1.22.63-4.39-4.99-5.41-4.51-.49.23,1.89,3.38.76,5.95-.26.59-.59.9-.52,1.48.11.86.96,1.25,2.61,2.6Z"/>
        <path class="cls-5" d="m118.51,139.05c.33,1.06.74,2.57,1.01,4.43.17,1.18.32,2.25.13,2.31-.1.03-.59-1.39-2.01-3.2-.62-.79-1.44-1.43-1.88-2.21-.21-.38-.58-.61-.32-1.27.49-1.23,1.54-2.77.7-3.19"/>
      </g>
      <g>
        <path class="cls-8" d="m63.82,139.19s2.19,7.59.29,9.24c-2.15,1.86-8.75-.13-11.62-4.47-2.3-3.47-1.09-5.02-3.74-8.34-2.68-3.36-6.55-5.01-6.42-5.34.11-.29,2.94.5,6.49-.06,3.47-.55,3.96-1.76,8.04-2.62.5-.11,2.8-.55,5.61.1,1.14.27,4.67,1.09,6.53,4.09.47.75.8,1.28.82,2.05.07,2.34-6.01,5.35-6.01,5.35Z"/>
        <path class="cls-5" d="m63.68,138.64c-.15-.57-.24-1.16-.36-1.73-.48-2.24-.71-3.5-1.39-5.04-.35-.8-.46-.86-.51-.84-.39.09.54,4.68.04,4.82-.52.14-2.18-4.69-2.63-4.55-.42.12.91,3.47.12,3.83-.98.45-4.58-4.37-4.68-4.3-.1.07,3.05,4.84,2.39,5.44-.62.57-4.5-2.6-4.5-2.6,0,0,3.6,2.78,3.22,4.7-.3,1.47-2.35,1.9-2.28,2.11.07.23,3.36-1.23,4.33-.17,1.02,1.12-.98,4.55-.78,4.64.22.1,1.99-4.34,3.13-4.16.99.16.4,4.82,1.21,4.98.38.08.36-2.8,2.14-3.81.41-.23.74-.27.95-.64.31-.55-.02-1.15-.4-2.65Z"/>
        <path class="cls-5" d="m63.32,137.17c.26-.76.68-1.83,1.33-3.03.41-.76.78-1.46.93-1.41.07.03-.26,1.07-.21,2.75.02.73.22,1.46.14,2.11-.04.32.08.61-.36.88-.82.51-2.1.96-1.79,1.56"/>
      </g>
      <g>
        <path class="cls-8" d="m90.79,141.28s6.1-7.32,9.03-6.54c3.31.88,5.78,8.82,3.39,14.62-1.91,4.64-4.28,4.49-5.8,9.37-1.54,4.95-.57,9.92-.99,10.03-.37.09-1.49-3.27-4.46-6.44-2.89-3.09-4.43-2.76-8.05-6.26-.45-.43-2.44-2.42-3.69-5.68-.5-1.32-2.07-5.39-.34-9.28.43-.97.74-1.66,1.49-2.21,2.28-1.65,9.41,2.38,9.41,2.38Z"/>
        <path class="cls-5" d="m90.34,141.8c-.47.53-.99,1.02-1.49,1.54-1.92,1.99-3.01,3.08-4.1,4.79-.56.89-.54,1.03-.5,1.08.35.33,4.3-3.7,4.78-3.3.5.42-3.21,5.35-2.76,5.71.41.33,2.85-3.26,3.74-2.71,1.11.67-1.26,7.53-1.13,7.58.13.05,2.77-6.31,3.81-6.07.99.23.45,6.25.45,6.25,0,0,.33-5.47,2.51-6.39,1.67-.7,3.48,1.07,3.65.85.18-.23-3.5-2.52-3.1-4.2.42-1.77,5.2-2.09,5.16-2.35-.05-.29-5.68.95-6.26-.31-.51-1.1,4.54-3.67,4.16-4.58-.18-.44-3.04,1.54-5.25.45-.51-.25-.77-.55-1.28-.51-.76.06-1.14.8-2.38,2.19Z"/>
        <path class="cls-5" d="m89.11,143.14c-.94.25-2.28.55-3.93.72-1.04.1-1.98.2-2.03.03-.02-.09,1.24-.46,2.89-1.65.71-.51,1.31-1.21,2.01-1.57.34-.17.55-.49,1.12-.23,1.06.48,2.38,1.45,2.77.74"/>
      </g>
      <g>
        <path class="cls-8" d="m108.64,137.69s6.1-7.32,9.03-6.54c3.31.88,5.78,8.82,3.39,14.62-1.91,4.64-4.28,4.49-5.8,9.37-1.54,4.95-.57,9.92-.99,10.03-.37.09-1.49-3.27-4.46-6.44-2.89-3.09-4.43-2.76-8.05-6.26-.45-.43-2.44-2.42-3.69-5.68-.5-1.32-2.07-5.39-.34-9.28.43-.97.74-1.66,1.49-2.21,2.28-1.65,9.41,2.38,9.41,2.38Z"/>
        <path class="cls-5" d="m108.19,138.21c-.47.53-.99,1.02-1.49,1.54-1.92,1.99-3.01,3.08-4.1,4.79-.56.89-.54,1.03-.5,1.08.35.33,4.3-3.7,4.78-3.3.5.42-3.21,5.35-2.76,5.71.41.33,2.85-3.26,3.74-2.71,1.11.67-1.26,7.53-1.13,7.58.13.05,2.77-6.31,3.81-6.07.99.23.45,6.25.45,6.25,0,0,.33-5.47,2.51-6.39,1.67-.7,3.48,1.07,3.65.85.18-.23-3.5-2.52-3.1-4.2.42-1.77,5.2-2.09,5.16-2.35-.05-.29-5.68.95-6.26-.31-.51-1.1,4.54-3.67,4.16-4.58-.18-.44-3.04,1.54-5.25.45-.51-.25-.77-.55-1.28-.51-.76.06-1.14.8-2.38,2.19Z"/>
        <path class="cls-5" d="m106.96,139.56c-.94.25-2.28.55-3.93.72-1.04.1-1.98.2-2.03.03-.02-.09,1.24-.46,2.89-1.65.71-.51,1.31-1.21,2.01-1.57.34-.17.55-.49,1.12-.23,1.06.48,2.38,1.45,2.77.74"/>
      </g>
      <g>
        <path class="cls-8" d="m136.19,136.52s-6.65-6.82-5.58-9.65c1.22-3.21,9.37-4.85,14.89-1.88,4.42,2.38,4.02,4.71,8.73,6.73,4.77,2.04,9.81,1.59,9.87,2.01.05.37-3.41,1.15-6.86,3.77-3.37,2.56-3.2,4.13-7.05,7.37-.48.4-2.66,2.18-6.02,3.09-1.36.37-5.58,1.51-9.27-.61-.92-.53-1.58-.91-2.04-1.71-1.41-2.44,3.33-9.12,3.33-9.12Z"/>
        <path class="cls-5" d="m136.67,137.03c.48.53.91,1.09,1.38,1.64,1.79,2.11,2.76,3.31,4.35,4.56.83.65.97.65,1.02.61.36-.32-3.24-4.66-2.79-5.09.47-.45,4.99,3.74,5.4,3.33.37-.37-2.95-3.16-2.32-4,.78-1.03,7.36,2.03,7.43,1.9.07-.13-6-3.4-5.65-4.41.33-.96,6.26.2,6.26.2,0,0-5.41-.89-6.1-3.15-.52-1.73,1.42-3.36,1.22-3.54-.21-.2-2.87,3.22-4.5,2.65-1.72-.6-1.55-5.39-1.81-5.37-.29.02.37,5.75-.95,6.2-1.14.39-3.18-4.89-4.13-4.6-.45.14,1.22,3.18-.09,5.27-.3.48-.63.71-.64,1.22-.02.76.68,1.21,1.94,2.59Z"/>
        <path class="cls-5" d="m137.88,138.39c.16.96.32,2.33.31,3.98,0,1.04,0,1.99-.18,2.02-.09.01-.34-1.28-1.34-3.04-.44-.76-1.07-1.42-1.35-2.16-.14-.36-.43-.6-.11-1.14.58-1.01,1.69-2.21,1.01-2.68"/>
      </g>
      <g>
        <path class="cls-8" d="m198.74,211.3s2.5-13.91,6.84-15.05c4.92-1.29,13.93,7.12,15.1,16.36.94,7.38-2.22,8.92-.6,16.33,1.65,7.51,6.54,13.21,6.08,13.65-.41.38-4.33-3.13-10.47-5.03-6-1.86-7.74-.3-14.97-2.16-.89-.23-4.93-1.33-8.92-4.61-1.62-1.33-6.62-5.43-7.25-11.72-.16-1.57-.27-2.68.31-3.94,1.73-3.8,13.87-3.84,13.87-3.84Z"/>
        <path class="cls-5" d="m198.55,212.31c-.22,1.03-.53,2.05-.79,3.07-1.01,3.98-1.62,6.18-1.76,9.18-.07,1.56.06,1.73.15,1.75.7.17,2.83-7.93,3.73-7.76.95.18-.21,9.24.63,9.39.77.13,1.28-6.29,2.83-6.24,1.92.06,3.9,10.63,4.11,10.6.21-.03-1.07-10.17.46-10.61,1.44-.43,5.16,7.73,5.16,7.73,0,0-3.59-7.3-1.45-10.08,1.63-2.12,5.27-1.18,5.33-1.58.06-.42-6.36-.68-7.08-3.14-.76-2.6,5.16-6.52,4.92-6.82-.27-.33-6.62,5.4-8.3,4.2-1.46-1.04,3.17-8.06,1.99-8.96-.56-.43-2.79,4.21-6.44,4.43-.85.05-1.4-.15-2.03.28-.93.63-.88,1.86-1.46,4.57Z"/>
        <path class="cls-5" d="m197.95,214.94c-1.03,1.02-2.54,2.39-4.53,3.81-1.26.9-2.41,1.71-2.6,1.52-.1-.1,1.26-1.51,2.51-4.24.54-1.19.8-2.52,1.44-3.49.31-.48.35-1.03,1.28-1.12,1.72-.17,4.13.13,4.11-1.09"/>
      </g>
      <g>
        <path class="cls-8" d="m132.83,144.73s10.79-5.16,13.72-2.74c3.32,2.74,1.99,13.09-3.77,18.46-4.61,4.29-7.23,2.88-11.51,7.66-4.35,4.84-5.84,11.02-6.37,10.92-.46-.09,0-4.52-1.72-9.67-1.69-5.04-3.62-5.46-5.92-11.35-.28-.73-1.52-4.04-1.25-8.41.11-1.76.46-7.24,4.47-10.77,1-.88,1.71-1.51,2.86-1.74,3.47-.69,9.49,7.63,9.49,7.63Z"/>
        <path class="cls-5" d="m132.04,145.09c-.82.36-1.67.65-2.5.98-3.23,1.27-5.05,1.94-7.18,3.33-1.11.72-1.16.9-1.13.97.23.56,6.84-1.98,7.18-1.27.35.74-6.45,4.43-6.14,5.07.29.59,4.95-2.23,5.69-1.14.91,1.35-5.38,7.93-5.25,8.06.12.13,6.46-5.76,7.52-4.93,1.01.78-2.76,7.36-2.76,7.36,0,0,3.24-6.07,6.21-5.97,2.26.07,3.42,3.04,3.72,2.88.32-.17-2.67-4.71-1.34-6.41,1.41-1.8,7.03.33,7.12,0,.1-.35-6.98-1.88-6.98-3.63,0-1.52,7.1-1.81,7.14-3.06.02-.59-4.27.17-6.23-2.24-.45-.56-.59-1.03-1.19-1.26-.9-.33-1.71.31-3.86,1.26Z"/>
        <path class="cls-5" d="m129.94,145.98c-1.21-.2-2.89-.56-4.86-1.23-1.24-.42-2.37-.81-2.33-1.03.02-.12,1.66.12,4.15-.37,1.08-.21,2.13-.7,3.11-.74.48-.02.88-.27,1.4.32.96,1.1,1.95,2.9,2.78,2.29"/>
      </g>
      <g>
        <path class="cls-8" d="m142.45,168.68s5.17-6.09,7.62-5.41c2.77.77,4.78,7.44,2.73,12.29-1.64,3.87-3.62,3.73-4.94,7.81-1.33,4.14-.56,8.32-.91,8.4-.31.07-1.23-2.76-3.69-5.43-2.4-2.61-3.7-2.35-6.7-5.31-.37-.37-2.03-2.05-3.05-4.79-.41-1.11-1.69-4.54-.21-7.79.37-.81.63-1.39,1.27-1.84,1.93-1.37,7.87,2.07,7.87,2.07Z"/>
        <path class="cls-5" d="m142.06,169.11c-.4.44-.84.85-1.26,1.28-1.62,1.66-2.55,2.56-3.47,3.99-.48.74-.46.86-.43.9.29.28,3.64-3.07,4.03-2.73.41.36-2.73,4.46-2.36,4.76.34.28,2.41-2.71,3.16-2.25.92.57-1.12,6.3-1.01,6.35.11.05,2.37-5.27,3.24-5.06.83.2.32,5.24.32,5.24,0,0,.32-4.59,2.16-5.34,1.4-.57,2.91.92,3.05.74.15-.19-2.91-2.14-2.56-3.55.37-1.48,4.38-1.72,4.34-1.93-.04-.24-4.77.75-5.25-.31-.42-.92,3.84-3.04,3.52-3.81-.15-.37-2.56,1.27-4.41.33-.43-.22-.64-.47-1.07-.44-.64.04-.96.66-2.01,1.82Z"/>
        <path class="cls-5" d="m141.02,170.23c-.79.2-1.92.45-3.3.57-.87.08-1.66.15-1.7,0-.02-.08,1.04-.38,2.43-1.36.6-.42,1.11-1.01,1.7-1.3.29-.14.47-.4.94-.18.89.41,1.98,1.24,2.32.64"/>
      </g>
      <g>
        <path class="cls-8" d="m195.8,246.13s11.6-5.55,14.76-2.95c3.57,2.95,2.14,14.08-4.06,19.86-4.95,4.62-7.77,3.1-12.38,8.24-4.68,5.21-6.28,11.86-6.85,11.75-.5-.1,0-4.86-1.85-10.41-1.82-5.42-3.89-5.88-6.36-12.21-.3-.78-1.64-4.35-1.34-9.04.12-1.9.49-7.78,4.8-11.58,1.08-.95,1.84-1.62,3.07-1.87,3.73-.74,10.21,8.21,10.21,8.21Z"/>
        <path class="cls-5" d="m194.95,246.52c-.88.39-1.79.7-2.69,1.05-3.47,1.37-5.43,2.09-7.72,3.58-1.19.78-1.25.96-1.22,1.04.25.6,7.36-2.13,7.72-1.37.37.8-6.94,4.76-6.6,5.45.31.64,5.32-2.4,6.12-1.23.98,1.45-5.78,8.53-5.65,8.67.13.14,6.94-6.19,8.09-5.31,1.08.84-2.97,7.92-2.97,7.92,0,0,3.49-6.53,6.68-6.42,2.44.08,3.68,3.27,4,3.1.34-.18-2.87-5.06-1.44-6.9,1.52-1.94,7.56.35,7.65.01.1-.38-7.51-2.02-7.51-3.9,0-1.63,7.64-1.94,7.68-3.29.02-.64-4.59.18-6.7-2.4-.49-.6-.63-1.11-1.28-1.35-.97-.35-1.84.34-4.15,1.35Z"/>
        <path class="cls-5" d="m192.69,247.48c-1.3-.22-3.11-.6-5.22-1.32-1.33-.45-2.55-.87-2.51-1.11.02-.12,1.78.13,4.47-.4,1.17-.23,2.29-.75,3.35-.79.52-.02.95-.29,1.51.35,1.04,1.18,2.1,3.12,2.99,2.46"/>
      </g>
      <g>
        <path class="cls-8" d="m166.48,269.85s2.56-7.26,5-7.5c2.76-.26,6.87,5.05,6.69,10.13-.14,4.05-1.98,4.6-1.76,8.73.23,4.19,2.36,7.68,2.07,7.88-.25.17-2.05-2.06-5.19-3.62-3.06-1.53-4.14-.84-7.86-2.48-.46-.2-2.53-1.15-4.4-3.26-.75-.85-3.09-3.51-2.87-6.94.05-.86.09-1.47.51-2.09,1.27-1.89,7.8-.85,7.8-.85Z"/>
        <path class="cls-5" d="m166.29,270.37c-.21.54-.46,1.05-.69,1.58-.89,2.05-1.41,3.18-1.75,4.78-.18.83-.12.94-.08.96.36.15,2.22-4.02,2.69-3.85.49.18-.92,4.96-.49,5.1.4.14,1.24-3.27,2.07-3.11,1.03.2,1.16,6.06,1.28,6.06.12,0,.32-5.56,1.18-5.67.81-.1,2.1,4.61,2.1,4.61,0,0-1.29-4.24.11-5.55,1.07-1,2.94-.17,3.01-.38.07-.22-3.36-.93-3.53-2.31-.18-1.46,3.35-3.05,3.25-3.24-.12-.2-4.04,2.32-4.83,1.53-.69-.69,2.41-4.06,1.86-4.64-.26-.28-1.87,2.02-3.85,1.82-.46-.05-.74-.2-1.11-.03-.56.26-.64.92-1.18,2.33Z"/>
        <path class="cls-5" d="m165.74,271.73c-.64.46-1.57,1.06-2.77,1.65-.76.37-1.45.71-1.53.59-.04-.06.81-.7,1.72-2.06.4-.59.65-1.29,1.08-1.75.21-.23.28-.52.79-.49.94.06,2.21.43,2.31-.22"/>
      </g>
      <g>
        <path class="cls-8" d="m153.2,301.68s13.9-6.65,17.68-3.53c4.28,3.53,2.56,16.86-4.86,23.79-5.93,5.53-9.31,3.71-14.84,9.87-5.6,6.24-7.53,14.21-8.21,14.07-.6-.12.01-5.82-2.22-12.47-2.17-6.49-4.66-7.04-7.62-14.63-.37-.94-1.96-5.21-1.61-10.83.14-2.27.59-9.32,5.76-13.88,1.29-1.14,2.21-1.94,3.68-2.24,4.47-.89,12.23,9.84,12.23,9.84Z"/>
        <path class="cls-5" d="m152.18,302.15c-1.05.46-2.15.83-3.22,1.26-4.16,1.64-6.5,2.5-9.25,4.29-1.43.93-1.5,1.15-1.46,1.25.29.72,8.82-2.55,9.25-1.64.45.95-8.31,5.7-7.91,6.53.37.76,6.38-2.87,7.33-1.47,1.17,1.73-6.93,10.22-6.77,10.39.16.17,8.32-7.42,9.69-6.36,1.3,1.01-3.55,9.49-3.55,9.49,0,0,4.18-7.82,8-7.7,2.92.1,4.41,3.92,4.79,3.71.41-.22-3.44-6.06-1.72-8.27,1.82-2.32,9.06.42,9.17.01.12-.45-8.99-2.43-9-4.68,0-1.95,9.15-2.33,9.2-3.94.02-.76-5.5.21-8.02-2.88-.58-.72-.75-1.33-1.54-1.62-1.16-.42-2.21.41-4.97,1.62Z"/>
        <path class="cls-5" d="m149.48,303.29c-1.55-.26-3.73-.72-6.26-1.59-1.6-.54-3.05-1.04-3-1.33.03-.15,2.14.15,5.35-.48,1.4-.27,2.74-.9,4.01-.95.62-.03,1.14-.34,1.81.42,1.24,1.42,2.51,3.74,3.58,2.95"/>
      </g>
      <g>
        <path class="cls-8" d="m165.6,191.8s7.6-9.23,11.28-8.27c4.17,1.08,7.32,11.03,4.36,18.33-2.36,5.84-5.34,5.66-7.21,11.8-1.9,6.22-.65,12.46-1.17,12.59-.46.11-1.9-4.1-5.64-8.05-3.66-3.86-5.59-3.43-10.15-7.8-.56-.54-3.09-3.02-4.68-7.1-.64-1.65-2.64-6.75-.49-11.65.53-1.22.92-2.09,1.86-2.78,2.85-2.09,11.83,2.92,11.83,2.92Z"/>
        <path class="cls-5" d="m165.04,192.46c-.59.67-1.24,1.29-1.85,1.94-2.39,2.52-3.76,3.89-5.1,6.04-.7,1.12-.68,1.3-.62,1.35.44.41,5.37-4.68,5.97-4.18.63.53-3.98,6.74-3.43,7.18.51.42,3.55-4.11,4.67-3.43,1.39.84-1.53,9.46-1.36,9.52.17.07,3.43-7.94,4.74-7.64,1.24.28.6,7.84.6,7.84,0,0,.38-6.87,3.11-8.03,2.08-.89,4.38,1.31,4.59,1.04.22-.29-4.41-3.14-3.92-5.25.52-2.23,6.51-2.67,6.46-2.99-.06-.36-7.12,1.24-7.86-.34-.64-1.37,5.67-4.63,5.18-5.78-.23-.54-3.8,1.95-6.59.6-.64-.31-.97-.69-1.61-.64-.95.08-1.42,1.01-2.97,2.77Z"/>
        <path class="cls-5" d="m163.51,194.15c-1.18.32-2.86.71-4.92.93-1.3.14-2.49.27-2.55.05-.03-.11,1.55-.59,3.61-2.09.89-.65,1.63-1.53,2.51-1.98.43-.22.69-.61,1.41-.3,1.34.59,2.99,1.81,3.48.9"/>
      </g>
    </g>
  </g>
</svg>