<?xml version="1.0" encoding="UTF-8"?>
<svg id="Layer_2" data-name="Layer 2" xmlns="http://www.w3.org/2000/svg" viewBox="0 0 39.42 48.11">
  <defs>
    <style>
      .cls-1 {
        fill: #3bb54a;
      }

      .cls-1, .cls-2 {
        stroke-width: 0px;
      }

      .cls-2 {
        fill: #009247;
      }
    </style>
  </defs>
  <g id="Layer_1-2" data-name="Layer 1">
    <g>
      <path class="cls-2" d="m22.13,11.82s13.95-2.28,16.47,1.44c2.86,4.21-2.08,15.5-10.4,19.69-6.65,3.34-9.15.88-15.6,4.87-6.54,4.05-10.28,10.57-10.84,10.28-.5-.26,1.51-5.12,1.26-11.54-.24-6.27-2.3-7.4-2.95-14.83-.08-.92-.39-5.09,1.37-9.95.71-1.96,2.92-8.06,8.63-10.74C11.5.37,12.52-.1,13.89.02c4.16.37,8.24,11.8,8.24,11.8Z"/>
      <path class="cls-1" d="m21.12,11.97c-1.05.14-2.11.18-3.16.28-4.08.38-6.37.53-9.24,1.4-1.5.45-1.61.63-1.61.72.07.71,8.42.02,8.56.94.15.95-8.79,2.88-8.64,3.72.13.77,6.35-.89,6.83.59.59,1.83-8.73,7.22-8.63,7.4.1.19,9.23-4.39,10.16-3.1.88,1.22-5.57,7.44-5.57,7.44,0,0,5.69-5.81,9.02-4.72,2.54.84,2.87,4.58,3.27,4.5.42-.08-1.47-6.22.61-7.72,2.2-1.58,7.86,2.7,8.07,2.37.23-.36-7.29-4.45-6.72-6.43.5-1.72,8.65.3,9.11-1.1.22-.67-4.9-1.23-6.32-4.6-.33-.78-.32-1.37-.94-1.82-.91-.67-2.05-.21-4.79.15Z"/>
      <path class="cls-1" d="m18.44,12.28c-1.3-.63-3.1-1.6-5.1-3-1.27-.89-2.42-1.7-2.3-1.94.06-.12,1.84.68,4.83.96,1.3.12,2.64-.09,3.77.19.55.14,1.09,0,1.48.83.73,1.57,1.25,3.94,2.39,3.51"/>
    </g>
  </g>
</svg>