<?xml version="1.0" encoding="UTF-8"?>
<svg id="Layer_2" data-name="Layer 2" xmlns="http://www.w3.org/2000/svg" xmlns:xlink="http://www.w3.org/1999/xlink" viewBox="0 0 216.72 294.65">
  <defs>
    <style>
      .cls-1 {
        stroke: #fff;
        stroke-width: 3px;
      }

      .cls-1, .cls-2, .cls-3 {
        fill: none;
      }

      .cls-1, .cls-3 {
        stroke-miterlimit: 10;
      }

      .cls-4 {
        clip-path: url(#clippath);
      }

      .cls-2, .cls-5, .cls-6, .cls-7, .cls-8 {
        stroke-width: 0px;
      }

      .cls-3 {
        stroke: #006937;
        stroke-width: 2.91px;
      }

      .cls-5 {
        fill: #3bb54a;
      }

      .cls-6 {
        fill: #a67c52;
      }

      .cls-7 {
        fill: #8c6339;
      }

      .cls-8 {
        fill: #009247;
      }
    </style>
    <clipPath id="clippath">
      <path class="cls-2" d="m37.9,150.77c-25.86,50.68-3.54,108.71,38.15,126.3,33.39,14.09,76.5,2.92,99.99-28.94,20.74-28.14,22.14-66.82,3.29-97.36"/>
    </clipPath>
  </defs>
  <g id="Layer_1-2" data-name="Layer 1">
    <g>
      <g>
        <path class="cls-8" d="m98.75,128.13s-7.57-11.93-5.14-15.71c2.75-4.28,15.08-4.17,22.19,1.83,5.68,4.8,4.4,8.07,10.6,12.43,6.29,4.42,13.76,5.3,13.71,5.94-.04.56-5.3.63-11.11,3.38-5.68,2.69-5.9,5.01-12.49,8.54-.81.43-4.53,2.36-9.69,2.64-2.09.12-8.55.48-13.26-3.73-1.17-1.05-2.01-1.8-2.44-3.11-1.3-3.97,7.62-12.21,7.62-12.21Z"/>
        <path class="cls-5" d="m99.29,129.01c.54.91.99,1.86,1.5,2.79,1.95,3.61,2.99,5.65,4.91,7.95,1,1.2,1.21,1.24,1.29,1.19.63-.35-3.28-7.75-2.5-8.24.82-.51,6.1,6.95,6.81,6.49.65-.42-3.31-5.49-2.14-6.51,1.45-1.26,10.06,5.19,10.2,5.03.13-.16-7.66-6.77-6.84-8.13.78-1.29,9.03,2.2,9.03,2.2,0,0-7.58-2.95-7.88-6.44-.23-2.67,3.08-4.44,2.86-4.77-.24-.35-5.15,3.8-7.34,2.47-2.31-1.4-.6-8.29-.99-8.35-.42-.06-1.23,8.45-3.28,8.7-1.78.22-3.12-8.08-4.59-7.94-.7.06.8,4.99-1.75,7.62-.59.61-1.13.83-1.31,1.58-.26,1.1.61,1.96,2.02,4.35Z"/>
        <path class="cls-5" d="m100.63,131.35c-.07,1.44-.25,3.47-.76,5.87-.32,1.51-.62,2.89-.88,2.88-.14,0-.1-1.96-1.02-4.82-.4-1.24-1.12-2.4-1.3-3.55-.09-.56-.44-1,.18-1.69,1.15-1.29,3.13-2.7,2.29-3.58"/>
      </g>
      <g>
        <path class="cls-8" d="m80.29,141.98s6.23,12.68,3.41,16.18c-3.19,3.96-15.44,2.52-21.86-4.22-5.13-5.39-3.5-8.5-9.2-13.51-5.78-5.08-13.1-6.76-12.99-7.39.1-.55,5.34-.05,11.41-2.15,5.93-2.06,6.41-4.35,13.34-7.13.85-.34,4.76-1.85,9.92-1.58,2.09.11,8.56.45,12.78,5.14,1.05,1.17,1.8,2,2.09,3.36.86,4.09-8.9,11.31-8.9,11.31Z"/>
        <path class="cls-5" d="m79.85,141.05c-.44-.96-.79-1.96-1.18-2.94-1.55-3.8-2.36-5.94-4.02-8.44-.87-1.3-1.07-1.36-1.16-1.33-.66.28,2.42,8.06,1.59,8.46-.87.42-5.31-7.57-6.07-7.19-.7.35,2.7,5.82,1.42,6.7-1.58,1.09-9.44-6.25-9.59-6.11-.15.15,6.88,7.56,5.92,8.82-.91,1.2-8.73-3.17-8.73-3.17,0,0,7.21,3.75,7.14,7.26-.06,2.68-3.55,4.08-3.36,4.43.2.37,5.53-3.22,7.56-1.66,2.15,1.64-.3,8.31.08,8.41.41.11,2.14-8.27,4.2-8.3,1.79-.02,2.23,8.37,3.7,8.39.7.01-.25-5.04,2.56-7.39.65-.54,1.21-.7,1.47-1.42.38-1.06-.39-2.02-1.54-4.54Z"/>
        <path class="cls-5" d="m78.77,138.58c.22-1.43.63-3.43,1.39-5.75.48-1.47.92-2.81,1.19-2.77.14.02-.12,1.96.49,4.9.26,1.28.85,2.5.91,3.67.03.57.33,1.04-.37,1.66-1.29,1.15-3.4,2.34-2.67,3.31"/>
      </g>
      <g>
        <path class="cls-8" d="m132.78,135.95s-12.81,5.96-16.25,3.07c-3.89-3.28-2.19-15.49,4.68-21.77,5.49-5.02,8.57-3.32,13.7-8.91,5.2-5.67,7.04-12.96,7.66-12.83.55.11-.06,5.34,1.91,11.45,1.93,5.97,4.21,6.5,6.85,13.48.33.86,1.75,4.79,1.37,9.95-.15,2.08-.63,8.55-5.41,12.67-1.19,1.03-2.04,1.76-3.4,2.02-4.11.77-11.12-9.14-11.12-9.14Z"/>
        <path class="cls-5" d="m133.72,135.54c.97-.42,1.98-.74,2.96-1.12,3.83-1.47,5.99-2.23,8.52-3.84,1.32-.84,1.38-1.04,1.35-1.13-.26-.67-8.11,2.25-8.49,1.41-.4-.88,7.68-5.15,7.32-5.91-.34-.7-5.88,2.58-6.73,1.28-1.06-1.6,6.45-9.31,6.31-9.46-.14-.15-7.7,6.72-8.94,5.74-1.18-.94,3.35-8.67,3.35-8.67,0,0-3.91,7.13-7.41,6.98-2.68-.12-4-3.63-4.36-3.45-.38.19,3.1,5.59,1.5,7.6-1.69,2.11-8.3-.47-8.41-.1-.12.41,8.22,2.31,8.21,4.37-.01,1.79-8.41,2.05-8.47,3.53-.03.7,5.05-.14,7.33,2.72.53.66.68,1.23,1.39,1.5,1.06.4,2.03-.35,4.57-1.44Z"/>
        <path class="cls-5" d="m136.21,134.51c1.42.25,3.41.7,5.72,1.51,1.46.51,2.79.98,2.74,1.25-.03.14-1.96-.16-4.91.39-1.28.24-2.52.8-3.69.83-.57.02-1.05.3-1.65-.4-1.13-1.31-2.27-3.45-3.25-2.74"/>
      </g>
      <polygon class="cls-1" points="50.24 153.77 109.72 70.63 169.85 153.77 50.24 153.77"/>
      <line class="cls-1" x1="109.73" y1="153.74" x2="109.73"/>
      <g>
        <path class="cls-7" d="m37.9,150.77c-25.86,50.68-3.54,108.71,38.15,126.3,33.39,14.09,76.5,2.92,99.99-28.94,20.74-28.14,22.14-66.82,3.29-97.36"/>
        <g class="cls-4">
          <rect class="cls-6" x="1.9" y="224.06" width="213.99" height="18.47"/>
          <rect class="cls-6" x="2.73" y="193.1" width="213.99" height="18.47"/>
          <rect class="cls-6" y="160.24" width="213.99" height="18.47"/>
        </g>
      </g>
      <path class="cls-3" d="m98.11,141.24c-13.4,14.52-26.68,33.56-21.55,50.01,3.28,10.52,11.33,11.12,18.3,23.18,10.47,18.13,9.7,46.94-2.96,63.82"/>
      <g>
        <path class="cls-8" d="m97.13,270.51s1.97-10.67,5.31-11.53c3.78-.98,10.66,5.52,11.53,12.61.7,5.67-1.74,6.84-.52,12.53,1.24,5.77,4.98,10.17,4.62,10.5-.31.29-3.31-2.41-8.02-3.9-4.6-1.45-5.94-.26-11.48-1.71-.68-.18-3.78-1.04-6.83-3.57-1.24-1.02-5.07-4.2-5.52-9.02-.11-1.2-.19-2.06.25-3.02,1.34-2.91,10.66-2.9,10.66-2.9Z"/>
        <path class="cls-5" d="m96.97,271.28c-.17.79-.41,1.57-.62,2.35-.79,3.05-1.27,4.74-1.39,7.04-.06,1.2.04,1.33.11,1.35.53.13,2.2-6.08,2.89-5.94.73.14-.19,7.1.45,7.21.59.1,1-4.82,2.19-4.78,1.47.05,2.95,8.18,3.11,8.15.16-.02-.78-7.81.39-8.15,1.11-.32,3.93,5.95,3.93,5.95,0,0-2.73-5.62-1.07-7.74,1.26-1.62,4.05-.89,4.1-1.2.05-.32-4.88-.55-5.42-2.44-.57-2,3.99-4.98,3.8-5.22-.2-.26-5.1,4.12-6.39,3.19-1.11-.81,2.46-6.17,1.56-6.87-.43-.33-2.15,3.22-4.96,3.38-.65.04-1.07-.12-1.56.21-.72.48-.68,1.42-1.13,3.5Z"/>
        <path class="cls-5" d="m96.5,273.3c-.79.78-1.96,1.82-3.49,2.91-.97.68-1.86,1.31-2,1.16-.07-.08.97-1.15,1.94-3.25.42-.91.62-1.93,1.12-2.68.24-.36.28-.79.99-.86,1.32-.12,3.17.12,3.16-.82"/>
      </g>
      <g>
        <path class="cls-8" d="m98.27,223.73s13.95-2.28,16.47,1.44c2.86,4.21-2.08,15.5-10.4,19.69-6.65,3.34-9.15.88-15.6,4.87-6.54,4.05-10.28,10.57-10.84,10.28-.5-.26,1.51-5.12,1.26-11.54-.24-6.27-2.3-7.4-2.95-14.83-.08-.92-.39-5.09,1.37-9.95.71-1.96,2.92-8.06,8.63-10.74,1.43-.67,2.44-1.14,3.82-1.02,4.16.37,8.24,11.8,8.24,11.8Z"/>
        <path class="cls-5" d="m97.25,223.88c-1.05.14-2.11.18-3.16.28-4.08.38-6.37.53-9.24,1.4-1.5.45-1.61.63-1.61.72.07.71,8.42.02,8.56.94.15.95-8.79,2.88-8.64,3.72.13.77,6.35-.89,6.83.59.59,1.83-8.73,7.22-8.63,7.4.1.19,9.23-4.39,10.16-3.1.88,1.22-5.57,7.44-5.57,7.44,0,0,5.69-5.81,9.02-4.72,2.54.84,2.87,4.58,3.27,4.5.42-.08-1.47-6.22.61-7.72,2.2-1.58,7.86,2.7,8.07,2.37.23-.36-7.29-4.45-6.72-6.43.5-1.72,8.65.3,9.11-1.1.22-.67-4.9-1.23-6.32-4.6-.33-.78-.32-1.37-.94-1.82-.91-.67-2.05-.21-4.79.15Z"/>
        <path class="cls-5" d="m94.58,224.2c-1.3-.63-3.1-1.6-5.1-3-1.27-.89-2.42-1.7-2.3-1.94.06-.12,1.84.68,4.83.96,1.3.12,2.64-.09,3.77.19.55.14,1.09,0,1.48.83.73,1.57,1.25,3.94,2.39,3.51"/>
      </g>
      <g>
        <path class="cls-8" d="m81.04,197.15s7.13-3.4,9.07-1.8c2.19,1.81,1.31,8.65-2.51,12.2-3.05,2.83-4.78,1.9-7.61,5.05-2.88,3.2-3.87,7.28-4.22,7.21-.31-.06,0-2.99-1.13-6.39-1.11-3.33-2.39-3.61-3.9-7.51-.19-.48-1-2.67-.82-5.56.08-1.17.31-4.78,2.96-7.11.66-.58,1.13-1,1.89-1.15,2.29-.45,6.27,5.05,6.27,5.05Z"/>
        <path class="cls-5" d="m80.52,197.39c-.54.24-1.1.43-1.65.64-2.13.84-3.34,1.28-4.75,2.19-.73.48-.77.59-.75.64.15.37,4.52-1.3,4.74-.83.23.49-4.27,2.92-4.06,3.35.19.39,3.27-1.47,3.76-.75.6.89-3.56,5.24-3.48,5.32.08.09,4.27-3.8,4.97-3.25.66.52-1.83,4.86-1.83,4.86,0,0,2.15-4.01,4.11-3.94,1.5.05,2.26,2.01,2.46,1.91.21-.11-1.76-3.11-.88-4.24.93-1.19,4.64.22,4.7.01.06-.23-4.61-1.25-4.61-2.4,0-1,4.69-1.19,4.72-2.02.01-.39-2.82.11-4.11-1.48-.3-.37-.39-.68-.79-.83-.59-.22-1.13.21-2.55.83Z"/>
        <path class="cls-5" d="m79.13,197.98c-.8-.14-1.91-.37-3.21-.82-.82-.28-1.56-.54-1.54-.68.01-.08,1.1.08,2.74-.24.72-.14,1.41-.46,2.06-.49.32-.01.58-.18.93.22.64.73,1.29,1.92,1.83,1.51"/>
      </g>
      <g>
        <path class="cls-8" d="m81.11,165.77s6.1-7.32,9.03-6.54c3.31.88,5.78,8.82,3.39,14.62-1.91,4.64-4.28,4.49-5.8,9.37-1.54,4.95-.57,9.92-.99,10.03-.37.09-1.49-3.27-4.46-6.44-2.89-3.09-4.43-2.76-8.05-6.26-.45-.43-2.44-2.42-3.69-5.68-.5-1.32-2.07-5.39-.34-9.28.43-.97.74-1.66,1.49-2.21,2.28-1.65,9.41,2.38,9.41,2.38Z"/>
        <path class="cls-5" d="m80.66,166.29c-.47.53-.99,1.02-1.49,1.54-1.92,1.99-3.01,3.08-4.1,4.79-.56.89-.54,1.03-.5,1.08.35.33,4.3-3.7,4.78-3.3.5.42-3.21,5.35-2.76,5.71.41.33,2.85-3.26,3.74-2.71,1.11.67-1.26,7.53-1.13,7.58.13.05,2.77-6.31,3.81-6.07.99.23.45,6.25.45,6.25,0,0,.33-5.47,2.51-6.39,1.67-.7,3.48,1.07,3.65.85.18-.23-3.5-2.52-3.1-4.2.42-1.77,5.2-2.09,5.16-2.35-.05-.29-5.68.95-6.26-.31-.51-1.1,4.54-3.67,4.16-4.58-.18-.44-3.04,1.54-5.25.45-.51-.25-.77-.55-1.28-.51-.76.06-1.14.8-2.38,2.19Z"/>
        <path class="cls-5" d="m79.43,167.63c-.94.25-2.28.55-3.93.72-1.04.1-1.98.2-2.03.03-.02-.09,1.24-.46,2.89-1.65.71-.51,1.31-1.21,2.01-1.57.34-.17.55-.49,1.12-.23,1.06.48,2.38,1.45,2.77.74"/>
      </g>
      <path class="cls-3" d="m184.24,208.98c-7.93-3.09-18.11-5.26-28.48-13.19-11.81-9.04-22.5-23.92-28.18-48.93"/>
      <g>
        <path class="cls-8" d="m99.2,141.87s8.19,4.86,7.89,7.88c-.35,3.41-7.79,7.11-13.9,5.67-4.88-1.15-5.11-3.51-10.17-4.24-5.13-.74-9.89,1.01-10.06.61-.15-.35,3-1.99,5.65-5.42,2.59-3.35,2.02-4.82,4.9-8.94.36-.51,2-2.8,5.02-4.55,1.22-.71,5-2.9,9.11-1.81,1.03.27,1.76.47,2.42,1.13,1.99,1.99-.86,9.67-.86,9.67Z"/>
        <path class="cls-5" d="m98.61,141.5c-.6-.38-1.17-.82-1.75-1.22-2.27-1.58-3.52-2.48-5.38-3.28-.97-.42-1.11-.37-1.14-.32-.27.4,4.34,3.66,4.02,4.19-.34.56-5.79-2.32-6.07-1.82-.26.46,3.67,2.29,3.27,3.26-.49,1.2-7.64-.05-7.67.09-.03.14,6.67,1.73,6.59,2.8-.07,1.01-6.1,1.43-6.1,1.43,0,0,5.46-.54,6.7,1.47.95,1.53-.5,3.61-.26,3.74.25.14,1.93-3.85,3.66-3.73,1.82.13,2.89,4.8,3.14,4.72.27-.09-1.84-5.46-.69-6.23,1-.67,4.34,3.9,5.18,3.37.4-.25-2-2.75-1.28-5.12.17-.55.43-.85.3-1.35-.18-.74-.97-.99-2.54-2Z"/>
        <path class="cls-5" d="m97.09,140.51c-.4-.89-.91-2.17-1.33-3.76-.27-1.01-.51-1.93-.35-2,.09-.04.66,1.15,2.08,2.59.62.62,1.4,1.1,1.87,1.73.23.31.57.47.41,1.07-.3,1.13-1.06,2.58-.29,2.85"/>
      </g>
      <g>
        <path class="cls-8" d="m113.92,145.85s-8.62-6.59-7.87-9.96c.85-3.81,9.76-7,16.47-4.56,5.37,1.95,5.31,4.65,10.93,6.15,5.71,1.52,11.32.18,11.45.65.12.41-3.65,1.86-7.11,5.38-3.38,3.44-2.92,5.18-6.73,9.46-.47.53-2.64,2.9-6.28,4.47-1.47.64-6.04,2.61-10.54.83-1.12-.44-1.92-.76-2.58-1.59-1.99-2.52,2.26-10.82,2.26-10.82Z"/>
        <path class="cls-5" d="m114.54,146.34c.63.51,1.21,1.08,1.82,1.62,2.36,2.08,3.65,3.28,5.65,4.43,1.04.6,1.2.57,1.25.52.36-.42-4.42-4.72-3.98-5.27.46-.58,6.24,3.39,6.63,2.87.36-.48-3.84-3.08-3.27-4.12.71-1.29,8.63,1.07,8.68.92.05-.15-7.31-2.84-7.08-4.04.22-1.13,7.09-.81,7.09-.81,0,0-6.24-.12-7.39-2.55-.87-1.86,1.05-4.01.79-4.19-.27-.19-2.7,4.1-4.63,3.73-2.04-.39-2.63-5.81-2.93-5.75-.32.07,1.36,6.42-.05,7.14-1.22.63-4.39-4.99-5.41-4.51-.49.23,1.89,3.38.76,5.95-.26.59-.59.9-.52,1.48.11.86.96,1.25,2.61,2.6Z"/>
        <path class="cls-5" d="m116.12,147.67c.33,1.06.74,2.57,1.01,4.43.17,1.18.32,2.25.13,2.31-.1.03-.59-1.39-2.01-3.2-.62-.79-1.44-1.43-1.88-2.21-.21-.38-.58-.61-.32-1.27.49-1.23,1.54-2.77.7-3.19"/>
      </g>
      <g>
        <path class="cls-8" d="m87.3,133.24s-1.01,7.84-3.41,8.6c-2.71.86-7.98-3.59-8.89-8.72-.73-4.1.99-5.04-.12-9.14-1.13-4.15-4.02-7.2-3.77-7.46.22-.23,2.5,1.63,5.99,2.52,3.4.87,4.33-.05,8.42.79.5.1,2.79.61,5.11,2.33.94.7,3.85,2.85,4.37,6.34.13.87.22,1.49-.06,2.21-.86,2.17-7.64,2.53-7.64,2.53Z"/>
        <path class="cls-5" d="m87.38,132.67c.09-.58.24-1.16.36-1.74.45-2.25.73-3.5.73-5.18,0-.87-.08-.97-.13-.98-.39-.07-1.36,4.51-1.87,4.44-.53-.07-.14-5.17-.61-5.23-.43-.05-.54,3.55-1.41,3.56-1.07.02-2.47-5.83-2.59-5.81-.12.02.88,5.65.04,5.94-.79.28-3.1-4.17-3.1-4.17,0,0,2.2,3.98,1.09,5.59-.85,1.23-2.91.81-2.93,1.03-.02.24,3.57.21,4.04,1.56.5,1.43-2.7,3.78-2.56,3.95.16.18,3.55-3.2,4.52-2.57.84.54-1.55,4.59-.87,5.06.32.22,1.44-2.43,3.48-2.65.47-.05.78.05,1.12-.21.5-.38.44-1.06.69-2.59Z"/>
        <path class="cls-5" d="m87.64,131.19c.55-.6,1.35-1.4,2.43-2.25.68-.54,1.3-1.02,1.41-.92.06.05-.66.88-1.29,2.44-.27.68-.38,1.43-.71,1.99-.16.27-.17.59-.68.66-.96.14-2.31.04-2.27.72"/>
      </g>
      <g>
        <path class="cls-8" d="m88.4,149.9s6.1-7.32,9.03-6.54c3.31.88,5.78,8.82,3.39,14.62-1.91,4.64-4.28,4.49-5.8,9.37-1.54,4.95-.57,9.92-.99,10.03-.37.09-1.49-3.27-4.46-6.44-2.89-3.09-4.43-2.76-8.05-6.26-.45-.43-2.44-2.42-3.69-5.68-.5-1.32-2.07-5.39-.34-9.28.43-.97.74-1.66,1.49-2.21,2.28-1.65,9.41,2.38,9.41,2.38Z"/>
        <path class="cls-5" d="m87.95,150.42c-.47.53-.99,1.02-1.49,1.54-1.92,1.99-3.01,3.08-4.1,4.79-.56.89-.54,1.03-.5,1.08.35.33,4.3-3.7,4.78-3.3.5.42-3.21,5.35-2.76,5.71.41.33,2.85-3.26,3.74-2.71,1.11.67-1.26,7.53-1.13,7.58.13.05,2.77-6.31,3.81-6.07.99.23.45,6.25.45,6.25,0,0,.33-5.47,2.51-6.39,1.67-.7,3.48,1.07,3.65.85.18-.23-3.5-2.52-3.1-4.2.42-1.77,5.2-2.09,5.16-2.35-.05-.29-5.68.95-6.26-.31-.51-1.1,4.54-3.67,4.16-4.58-.18-.44-3.04,1.54-5.25.45-.51-.25-.77-.55-1.28-.51-.76.06-1.14.8-2.38,2.19Z"/>
        <path class="cls-5" d="m86.72,151.76c-.94.25-2.28.55-3.93.72-1.04.1-1.98.2-2.03.03-.02-.09,1.24-.46,2.89-1.65.71-.51,1.31-1.21,2.01-1.57.34-.17.55-.49,1.12-.23,1.06.48,2.38,1.45,2.77.74"/>
      </g>
      <g>
        <path class="cls-8" d="m106.25,146.31s6.1-7.32,9.03-6.54c3.31.88,5.78,8.82,3.39,14.62-1.91,4.64-4.28,4.49-5.8,9.37-1.54,4.95-.57,9.92-.99,10.03-.37.09-1.49-3.27-4.46-6.44-2.89-3.09-4.43-2.76-8.05-6.26-.45-.43-2.44-2.42-3.69-5.68-.5-1.32-2.07-5.39-.34-9.28.43-.97.74-1.66,1.49-2.21,2.28-1.65,9.41,2.38,9.41,2.38Z"/>
        <path class="cls-5" d="m105.8,146.83c-.47.53-.99,1.02-1.49,1.54-1.92,1.99-3.01,3.08-4.1,4.79-.56.89-.54,1.03-.5,1.08.35.33,4.3-3.7,4.78-3.3.5.42-3.21,5.35-2.76,5.71.41.33,2.85-3.26,3.74-2.71,1.11.67-1.26,7.53-1.13,7.58.13.05,2.77-6.31,3.81-6.07.99.23.45,6.25.45,6.25,0,0,.33-5.47,2.51-6.39,1.67-.7,3.48,1.07,3.65.85.18-.23-3.5-2.52-3.1-4.2.42-1.77,5.2-2.09,5.16-2.35-.05-.29-5.68.95-6.26-.31-.51-1.1,4.54-3.67,4.16-4.58-.18-.44-3.04,1.54-5.25.45-.51-.25-.77-.55-1.28-.51-.76.06-1.14.8-2.38,2.19Z"/>
        <path class="cls-5" d="m104.57,148.17c-.94.25-2.28.55-3.93.72-1.04.1-1.98.2-2.03.03-.02-.09,1.24-.46,2.89-1.65.71-.51,1.31-1.21,2.01-1.57.34-.17.55-.49,1.12-.23,1.06.48,2.38,1.45,2.77.74"/>
      </g>
      <g>
        <path class="cls-8" d="m135.08,141.69s-8.69-3.91-8.72-6.94c-.04-3.43,6.94-7.94,13.17-7.2,4.98.59,5.47,2.92,10.58,3.07,5.18.15,9.71-2.12,9.92-1.74.18.33-2.75,2.32-5,6.02-2.2,3.62-1.46,5.01-3.86,9.44-.3.55-1.68,3.01-4.47,5.08-1.13.84-4.64,3.44-8.85,2.82-1.05-.16-1.8-.27-2.53-.85-2.2-1.76-.24-9.7-.24-9.7Z"/>
        <path class="cls-5" d="m135.71,141.98c.64.31,1.25.68,1.88,1.02,2.44,1.31,3.78,2.07,5.72,2.66,1.01.3,1.14.25,1.17.19.22-.43-4.72-3.15-4.46-3.71.27-.59,6.01,1.65,6.24,1.13.21-.48-3.9-1.86-3.62-2.87.35-1.25,7.59-.81,7.61-.95.02-.14-6.82-.97-6.87-2.04-.04-1.01,5.9-2.11,5.9-2.11,0,0-5.36,1.15-6.83-.71-1.12-1.42.09-3.64-.16-3.75-.27-.11-1.49,4.05-3.22,4.11-1.82.07-3.42-4.45-3.65-4.34-.26.12,2.44,5.22,1.38,6.12-.92.78-4.75-3.39-5.53-2.77-.37.29,2.3,2.51,1.84,4.94-.11.56-.33.89-.15,1.37.26.71,1.07.88,2.75,1.7Z"/>
        <path class="cls-5" d="m137.33,142.81c.5.84,1.15,2.05,1.75,3.59.38.97.73,1.86.57,1.95-.08.05-.78-1.07-2.36-2.34-.69-.55-1.52-.93-2.05-1.51-.26-.28-.62-.4-.52-1.02.17-1.15.76-2.68-.04-2.87"/>
      </g>
      <g>
        <path class="cls-8" d="m130.44,153.34s10.79-5.16,13.72-2.74c3.32,2.74,1.99,13.09-3.77,18.46-4.61,4.29-7.23,2.88-11.51,7.66-4.35,4.84-5.84,11.02-6.37,10.92-.46-.09,0-4.52-1.72-9.67-1.69-5.04-3.62-5.46-5.92-11.35-.28-.73-1.52-4.04-1.25-8.41.11-1.76.46-7.24,4.47-10.77,1-.88,1.71-1.51,2.86-1.74,3.47-.69,9.49,7.63,9.49,7.63Z"/>
        <path class="cls-5" d="m129.65,153.7c-.82.36-1.67.65-2.5.98-3.23,1.27-5.05,1.94-7.18,3.33-1.11.72-1.16.9-1.13.97.23.56,6.84-1.98,7.18-1.27.35.74-6.45,4.43-6.14,5.07.29.59,4.95-2.23,5.69-1.14.91,1.35-5.38,7.93-5.25,8.06.12.13,6.46-5.76,7.52-4.93,1.01.78-2.76,7.36-2.76,7.36,0,0,3.24-6.07,6.21-5.97,2.26.07,3.42,3.04,3.72,2.88.32-.17-2.67-4.71-1.34-6.41,1.41-1.8,7.03.33,7.12,0,.1-.35-6.98-1.88-6.98-3.63,0-1.52,7.1-1.81,7.14-3.06.02-.59-4.27.17-6.23-2.24-.45-.56-.59-1.03-1.19-1.26-.9-.33-1.71.31-3.86,1.26Z"/>
        <path class="cls-5" d="m127.55,154.59c-1.21-.2-2.89-.56-4.86-1.23-1.24-.42-2.37-.81-2.33-1.03.02-.12,1.66.12,4.15-.37,1.08-.21,2.13-.7,3.11-.74.48-.02.88-.27,1.4.32.96,1.1,1.95,2.9,2.78,2.29"/>
      </g>
      <g>
        <path class="cls-8" d="m140.06,177.29s5.17-6.09,7.62-5.41c2.77.77,4.78,7.44,2.73,12.29-1.64,3.87-3.62,3.73-4.94,7.81-1.33,4.14-.56,8.32-.91,8.4-.31.07-1.23-2.76-3.69-5.43-2.4-2.61-3.7-2.35-6.7-5.31-.37-.37-2.03-2.05-3.05-4.79-.41-1.11-1.69-4.54-.21-7.79.37-.81.63-1.39,1.27-1.84,1.93-1.37,7.87,2.07,7.87,2.07Z"/>
        <path class="cls-5" d="m139.67,177.73c-.4.44-.84.85-1.26,1.28-1.62,1.66-2.55,2.56-3.47,3.99-.48.74-.46.86-.43.9.29.28,3.64-3.07,4.03-2.73.41.36-2.73,4.46-2.36,4.76.34.28,2.41-2.71,3.16-2.25.92.57-1.12,6.3-1.01,6.35.11.05,2.37-5.27,3.24-5.06.83.2.32,5.24.32,5.24,0,0,.32-4.59,2.16-5.34,1.4-.57,2.91.92,3.05.74.15-.19-2.91-2.14-2.56-3.55.37-1.48,4.38-1.72,4.34-1.93-.04-.24-4.77.75-5.25-.31-.42-.92,3.84-3.04,3.52-3.81-.15-.37-2.56,1.27-4.41.33-.43-.22-.64-.47-1.07-.44-.64.04-.96.66-2.01,1.82Z"/>
        <path class="cls-5" d="m138.63,178.85c-.79.2-1.92.45-3.3.57-.87.08-1.66.15-1.7,0-.02-.08,1.04-.38,2.43-1.36.6-.42,1.11-1.01,1.7-1.3.29-.14.47-.4.94-.18.89.41,1.98,1.24,2.32.64"/>
      </g>
      <g>
        <path class="cls-8" d="m170.57,204.04s7.6-9.23,11.28-8.27c4.17,1.08,7.32,11.03,4.36,18.33-2.36,5.84-5.34,5.66-7.21,11.8-1.9,6.22-.65,12.46-1.17,12.59-.46.11-1.9-4.1-5.64-8.05-3.66-3.86-5.59-3.43-10.15-7.8-.56-.54-3.09-3.02-4.68-7.1-.64-1.65-2.64-6.75-.49-11.65.53-1.22.92-2.09,1.86-2.78,2.85-2.09,11.83,2.92,11.83,2.92Z"/>
        <path class="cls-5" d="m170,204.71c-.59.67-1.24,1.29-1.85,1.94-2.39,2.52-3.76,3.89-5.1,6.04-.7,1.12-.68,1.3-.62,1.35.44.41,5.37-4.68,5.97-4.18.63.53-3.98,6.74-3.43,7.18.51.42,3.55-4.11,4.67-3.43,1.39.84-1.53,9.46-1.36,9.52.17.07,3.43-7.94,4.74-7.64,1.24.28.6,7.84.6,7.84,0,0,.38-6.87,3.11-8.03,2.08-.89,4.38,1.31,4.59,1.04.22-.29-4.41-3.14-3.92-5.25.52-2.23,6.51-2.67,6.46-2.99-.06-.36-7.12,1.24-7.86-.34-.64-1.37,5.67-4.63,5.18-5.78-.23-.54-3.8,1.95-6.59.6-.64-.31-.97-.69-1.61-.64-.95.08-1.42,1.01-2.97,2.77Z"/>
        <path class="cls-5" d="m168.47,206.4c-1.18.32-2.86.71-4.92.93-1.3.14-2.49.27-2.55.05-.03-.11,1.55-.59,3.61-2.09.89-.65,1.63-1.53,2.51-1.98.43-.22.69-.61,1.41-.3,1.34.59,2.99,1.81,3.48.9"/>
      </g>
    </g>
  </g>
</svg>