<?xml version="1.0" encoding="UTF-8"?>
<svg id="Layer_2" data-name="Layer 2" xmlns="http://www.w3.org/2000/svg" viewBox="0 0 184.93 268.37">
  <defs>
    <style>
      .cls-1 {
        stroke-width: 8.26px;
      }

      .cls-1, .cls-2 {
        fill: none;
        stroke: #006937;
        stroke-miterlimit: 10;
      }

      .cls-2 {
        stroke-width: 8.47px;
      }

      .cls-3 {
        fill: #9c654a;
      }

      .cls-3, .cls-4, .cls-5, .cls-6, .cls-7, .cls-8 {
        stroke-width: 0px;
      }

      .cls-4 {
        fill: #56a160;
      }

      .cls-5 {
        fill: #c06740;
      }

      .cls-6 {
        fill: #fff;
      }

      .cls-7 {
        fill: #ed7f22;
      }

      .cls-8 {
        fill: #009247;
      }
    </style>
  </defs>
  <g id="Layer_1-2" data-name="Layer 1">
    <g>
      <g>
        <path class="cls-8" d="m133.56,101.4c2.3-32.15,38.7-19.98,51.37-13.96"/>
        <path class="cls-4" d="m133.56,101.4c18.25,26.56,43.49-2.36,51.37-13.96"/>
      </g>
      <path class="cls-1" d="m81.34,221.67c28.73-20.76,47.89-67.02,50.17-130.03.36-9.84-.61-19.15-2.45-27.86"/>
      <g>
        <path class="cls-8" d="m54.69,133.66c-2.67-33.16-39.69-20.24-52.56-13.9"/>
        <path class="cls-4" d="m54.69,133.66c-18.36,27.6-44.4-2.01-52.56-13.9"/>
      </g>
      <path class="cls-2" d="m54.98,178.16c2.04-16.76,2.48-35.26,1.14-55.21-.68-10.14-2.65-19.6-5.45-28.35"/>
      <g>
        <g id="_Radial_Repeat_" data-name="&amp;lt;Radial Repeat&amp;gt;">
          <path class="cls-7" d="m53.18,83.45s-16.47,3.69-28.53,12.39c-5.8,4.18-14.1,21.29-14.1,21.29,0,0,13.47-1,24.01-7.94,11.1-7.31,18.62-25.74,18.62-25.74Z"/>
        </g>
        <g id="_Radial_Repeat_-2" data-name="&amp;lt;Radial Repeat&amp;gt;">
          <path class="cls-7" d="m54.47,85.42s-13.15-10.57-27.47-14.58c-6.88-1.93-25.43,2.25-25.43,2.25,0,0,9.18,9.91,21.18,13.82,12.64,4.12,31.73-1.49,31.73-1.49Z"/>
        </g>
        <g id="_Radial_Repeat_-3" data-name="&amp;lt;Radial Repeat&amp;gt;">
          <path class="cls-7" d="m53.74,87.65s.06-16.88-5.73-30.57c-2.79-6.58-17.62-18.48-17.62-18.48,0,0-2.03,13.36,2.39,25.18,4.66,12.45,20.95,23.88,20.95,23.88Z"/>
        </g>
        <g id="_Radial_Repeat_-4" data-name="&amp;lt;Radial Repeat&amp;gt;">
          <path class="cls-7" d="m51.54,88.47s13.23-10.47,20.33-23.54c3.41-6.28,3.47-25.3,3.47-25.3,0,0-11.71,6.74-18.19,17.57-6.83,11.41-5.6,31.27-5.6,31.27Z"/>
        </g>
        <g id="_Radial_Repeat_-5" data-name="&amp;lt;Radial Repeat&amp;gt;">
          <path class="cls-7" d="m49.53,87.26s16.44,3.82,31.08,1.21c7.04-1.25,21.94-13.06,21.94-13.06,0,0-12.57-4.95-25.08-3.27-13.18,1.77-27.94,15.11-27.94,15.11Z"/>
        </g>
        <g id="_Radial_Repeat_-6" data-name="&amp;lt;Radial Repeat&amp;gt;">
          <path class="cls-7" d="m49.22,84.93s7.26,15.23,18.43,25.05c5.37,4.72,23.89,9.01,23.89,9.01,0,0-3.97-12.91-13.08-21.64-9.6-9.2-29.24-12.42-29.24-12.42Z"/>
        </g>
        <g id="_Radial_Repeat_-7" data-name="&amp;lt;Radial Repeat&amp;gt;">
          <path class="cls-7" d="m50.84,83.24s-7.38,15.18-8.1,30.03c-.35,7.14,7.85,24.3,7.85,24.3,0,0,7.62-11.15,8.77-23.72,1.21-13.24-8.52-30.6-8.52-30.6Z"/>
        </g>
      </g>
      <ellipse class="cls-6" cx="53.27" cy="86.85" rx="9.5" ry="9.61" transform="translate(-33.18 32.94) rotate(-26.53)"/>
      <g>
        <g id="_Radial_Repeat_-8" data-name="&amp;lt;Radial Repeat&amp;gt;">
          <path class="cls-7" d="m133.83,49.3s-16.04-3.99-30.43-1.73c-6.92,1.09-21.73,12.26-21.73,12.26,0,0,12.23,5.02,24.51,3.61,12.94-1.48,27.65-14.14,27.65-14.14Z"/>
        </g>
        <g id="_Radial_Repeat_-9" data-name="&amp;lt;Radial Repeat&amp;gt;">
          <path class="cls-7" d="m134.08,51.58s-6.88-15.03-17.62-24.87c-5.16-4.73-23.13-9.35-23.13-9.35,0,0,3.7,12.69,12.46,21.42,9.23,9.2,28.3,12.8,28.3,12.8Z"/>
        </g>
        <g id="_Radial_Repeat_-10" data-name="&amp;lt;Radial Repeat&amp;gt;">
          <path class="cls-7" d="m132.45,53.2s7.46-14.75,8.46-29.28C141.39,16.93,133.8,0,133.8,0c0,0-7.61,10.8-8.98,23.09-1.44,12.95,7.63,30.11,7.63,30.11Z"/>
        </g>
        <g id="_Radial_Repeat_-11" data-name="&amp;lt;Radial Repeat&amp;gt;">
          <path class="cls-7" d="m130.17,52.93s16.18-3.36,28.17-11.64c5.76-3.98,14.26-20.47,14.26-20.47,0,0-13.19.78-23.65,7.38-11.02,6.95-18.78,24.74-18.78,24.74Z"/>
        </g>
        <g id="_Radial_Repeat_-12" data-name="&amp;lt;Radial Repeat&amp;gt;">
          <path class="cls-7" d="m128.96,50.99s12.72,10.56,26.67,14.76c6.7,2.02,24.9-1.61,24.9-1.61,0,0-8.84-9.83-20.52-13.89-12.3-4.28-31.05.74-31.05.74Z"/>
        </g>
        <g id="_Radial_Repeat_-13" data-name="&amp;lt;Radial Repeat&amp;gt;">
          <path class="cls-7" d="m129.72,48.83s-.32,16.52,5.08,30.05c2.6,6.5,16.79,18.46,16.79,18.46,0,0,2.17-13.04-1.93-24.7-4.32-12.29-19.94-23.81-19.94-23.81Z"/>
        </g>
        <g id="_Radial_Repeat_-14" data-name="&amp;lt;Radial Repeat&amp;gt;">
          <path class="cls-7" d="m131.89,48.08s-13.12,10.05-20.33,22.71c-3.46,6.08-3.97,24.63-3.97,24.63,0,0,11.55-6.43,18.11-16.91,6.91-11.04,6.19-30.43,6.19-30.43Z"/>
        </g>
      </g>
      <circle class="cls-6" cx="132.41" cy="52.28" r="9.31"/>
      <g>
        <polygon class="cls-5" points="152.94 171.76 20.94 171.76 26.49 259.76 146.98 259.76 152.94 171.76"/>
        <rect class="cls-3" x="8.94" y="159.37" width="156" height="18" rx="2.55" ry="2.55"/>
        <rect class="cls-3" x="20.93" y="258.7" width="132.02" height="9.68" rx="1.72" ry="1.72"/>
      </g>
    </g>
  </g>
</svg>