<?xml version="1.0" encoding="UTF-8"?>
<svg id="Layer_2" data-name="Layer 2" xmlns="http://www.w3.org/2000/svg" viewBox="0 0 156 208.64">
  <defs>
    <style>
      .cls-1 {
        fill: none;
        stroke: #006937;
        stroke-miterlimit: 10;
        stroke-width: 5.79px;
      }

      .cls-2 {
        fill: #9c654a;
      }

      .cls-2, .cls-3, .cls-4, .cls-5, .cls-6, .cls-7 {
        stroke-width: 0px;
      }

      .cls-3 {
        fill: #56a160;
      }

      .cls-4 {
        fill: #c06740;
      }

      .cls-5 {
        fill: #fff;
      }

      .cls-6 {
        fill: #ed7f22;
      }

      .cls-7 {
        fill: #009247;
      }
    </style>
  </defs>
  <g id="Layer_1-2" data-name="Layer 1">
    <g>
      <g>
        <g>
          <path class="cls-7" d="m80.11,79.07c6.53-18.67,26.14-5.6,32.67,0"/>
          <path class="cls-3" d="m80.11,79.07c6.53,18.67,26.14,5.6,32.67,0"/>
        </g>
        <path class="cls-1" d="m64.84,149.52c7.4-23.07,11.97-50.32,13.08-81.01.41-11.38-.7-22.16-2.84-32.24"/>
        <g>
          <g id="_Radial_Repeat_" data-name="&amp;lt;Radial Repeat&amp;gt;">
            <path class="cls-6" d="m79.54,33.82s-11-2.74-20.87-1.19c-4.74.75-14.91,8.41-14.91,8.41,0,0,8.39,3.44,16.81,2.48,8.88-1.01,18.97-9.7,18.97-9.7Z"/>
          </g>
          <g id="_Radial_Repeat_-2" data-name="&amp;lt;Radial Repeat&amp;gt;">
            <path class="cls-6" d="m79.71,35.38s-4.72-10.31-12.09-17.06c-3.54-3.24-15.87-6.41-15.87-6.41,0,0,2.54,8.7,8.55,14.69,6.33,6.31,19.41,8.78,19.41,8.78Z"/>
          </g>
          <g id="_Radial_Repeat_-3" data-name="&amp;lt;Radial Repeat&amp;gt;">
            <path class="cls-6" d="m78.59,36.49s5.12-10.12,5.8-20.09C84.73,11.61,79.52,0,79.52,0c0,0-5.22,7.41-6.16,15.84-.99,8.88,5.23,20.65,5.23,20.65Z"/>
          </g>
          <g id="_Radial_Repeat_-4" data-name="&amp;lt;Radial Repeat&amp;gt;">
            <path class="cls-6" d="m77.03,36.31s11.1-2.31,19.32-7.99c3.95-2.73,9.78-14.04,9.78-14.04,0,0-9.05.54-16.23,5.06-7.56,4.77-12.88,16.97-12.88,16.97Z"/>
          </g>
          <g id="_Radial_Repeat_-5" data-name="&amp;lt;Radial Repeat&amp;gt;">
            <path class="cls-6" d="m76.2,34.98s8.72,7.24,18.29,10.13c4.6,1.39,17.08-1.11,17.08-1.11,0,0-6.06-6.74-14.07-9.53-8.44-2.94-21.3.51-21.3.51Z"/>
          </g>
          <g id="_Radial_Repeat_-6" data-name="&amp;lt;Radial Repeat&amp;gt;">
            <path class="cls-6" d="m76.72,33.49s-.22,11.34,3.49,20.62c1.78,4.46,11.51,12.66,11.51,12.66,0,0,1.49-8.94-1.32-16.94-2.96-8.43-13.68-16.33-13.68-16.33Z"/>
          </g>
          <g id="_Radial_Repeat_-7" data-name="&amp;lt;Radial Repeat&amp;gt;">
            <path class="cls-6" d="m78.21,32.98s-9,6.89-13.94,15.58c-2.38,4.17-2.72,16.9-2.72,16.9,0,0,7.92-4.41,12.42-11.6,4.74-7.57,4.24-20.88,4.24-20.88Z"/>
          </g>
        </g>
        <circle class="cls-5" cx="78.57" cy="35.86" r="6.39"/>
      </g>
      <g>
        <polygon class="cls-4" points="144 112.03 12 112.03 17.56 200.03 138.05 200.03 144 112.03"/>
        <rect class="cls-2" y="99.64" width="156" height="18" rx="2.55" ry="2.55"/>
        <rect class="cls-2" x="11.99" y="198.97" width="132.02" height="9.68" rx="1.72" ry="1.72"/>
      </g>
    </g>
  </g>
</svg>