<?xml version="1.0" encoding="UTF-8"?>
<svg id="Layer_2" data-name="Layer 2" xmlns="http://www.w3.org/2000/svg" viewBox="0 0 108.19 117.6">
  <defs>
    <style>
      .cls-1 {
        fill: #009247;
        stroke-width: 0px;
      }
    </style>
  </defs>
  <g id="Layer_2-2" data-name="Layer 2">
    <path class="cls-1" d="m2.4,86.79S-.09,78.06,0,73.74c.18-8.46.29-13.15,2.39-19.57.95-2.89,3.04-9.08,8.05-15.22,2.84-3.49,4.51-4.37,10.66-11.53,1.49-1.73,2.43-2.89,4.35-5,3.32-3.65,6.28-6.53,7.18-7.39,4.85-4.69,2.77-2.78,7.01-7.21.66-.68,1.32-1.81,2.56-3.02,1.76-1.72,3.52-2.56,4.57-3.04C50.15.16,53.09.03,53.94,0c1.02-.03,1.15.06,3.26.22,2.48.18,3.62.15,7.61.22,5.81.09,8.47.63,9.44,1.11.84.42.76.56,4.92,4.98,1.66,1.77,2.47,2.46,2.83,3.91.11.46.54,2.44-.65,4.35-.35.56-1.28,1.78-4.13,2.61-2.98.87-6.18.33-12.61-.87-1.39-.26-2.59-.52-3.48-1.52-1.13-1.29-.72-2.64-1.74-3.48-1.24-1.03-3.34-.33-4.35,0-2.16.7-3.7,2.03-5.22,3.7-3.83,4.21-5.59,8.45-5.87,9.13-1.03,2.55-1.21,3.83-2.61,10.87,0,0-.46,2.33-3.04,14.79-1.51,7.3-2.28,10.98-2.83,12.4-1.01,2.63-3.3,8.41-8.7,13.27-3.18,2.87-8.21,5.03-18.27,9.35-.23.1-1.42.6-3.04,1.09-1.72.51-3.04.65-3.04.65Z"/>
    <path class="cls-1" d="m65.91,90.26l-43.65,18.84s3.69,2.73,10.56,4.97c3.57,1.17,8.35,2.73,14.7,3.31,14.6,1.35,25.92-3.83,29.61-5.18,8.9-3.25,13.21-8.81,17.81-12.84,5.49-4.81,13.25-21.53,13.25-21.53,0,0-1.15-1.79-5.38-3.93-4.96-2.51-10.55-5.34-19.26-6.83-10.95-1.87-19.55-.37-21.53,0-1.88.35-11.23,2.2-21.53,8.7-9.92,6.26-15.6,13.6-17.6,16.36-2.07,2.86-4.33,4.73-3.73,5.8l46.76-7.66Z"/>
  </g>
</svg>