<?xml version="1.0" encoding="UTF-8"?>
<svg id="Layer_2" data-name="Layer 2" xmlns="http://www.w3.org/2000/svg" xmlns:xlink="http://www.w3.org/1999/xlink" viewBox="0 0 176.22 132.98">
  <defs>
    <style>
      .cls-1 {
        clip-path: url(#clippath);
      }

      .cls-2, .cls-3 {
        fill: none;
      }

      .cls-2, .cls-4, .cls-5, .cls-6 {
        stroke-width: 0px;
      }

      .cls-3 {
        stroke: #a67c52;
        stroke-miterlimit: 10;
        stroke-width: 7px;
      }

      .cls-4 {
        fill: #77542e;
      }

      .cls-5 {
        fill: #8c6339;
      }

      .cls-6 {
        fill: #006937;
      }
    </style>
    <clipPath id="clippath">
      <path class="cls-2" d="m166.19,45.24c1.55,20.74.58,56.25-22.73,82.07-1.74,1.93-3.63,3.83-5.68,5.68H37.59c-2.05-1.85-3.94-3.75-5.68-5.68C8.61,101.49,7.63,65.98,9.18,45.24h157.01Z"/>
    </clipPath>
  </defs>
  <g id="Layer_1-2" data-name="Layer 1">
    <g>
      <g>
        <path class="cls-6" d="m76.3,33.41c-7.31-.22-13.81-7.79-10.33-13.01,1.69-2.54,5.91-4.78,10.16-4.57,7.35.36,13.33,7.99,9.81,13.13-1.63,2.38-5.53,4.58-9.63,4.45Z"/>
        <path class="cls-6" d="m76.52,13.44c-1.78-4.39.37-10.37,4.73-12.43.25-.12,3.38-1.54,6.65-.18,5.95,2.48,8.78,12.7,4.9,16.64-3.65,3.71-13.72,2.31-16.29-4.03Z"/>
        <path class="cls-6" d="m89.83,8.19c1.63-5.96,10.27-10.41,15.59-7.01,4.64,2.97,5.99,11.43,1.23,15.94-4.61,4.36-12.49,2.7-15.59-1.75-2.24-3.23-1.29-6.94-1.23-7.18Z"/>
        <path class="cls-6" d="m102.61,28.85c1.79-.56,8.23-2.58,8.58-6.48.34-3.71-5.04-6.79-7.71-7.88-7.13-2.91-13.83.73-14.71,1.23-.5.28-8.19,4.71-7.36,8.76.94,4.56,12.39,7.13,21.19,4.38Z"/>
        <path class="cls-6" d="m96.66,24.12c1.6.17,10.06,1.05,10.68,4.55.45,2.56-3.48,5.28-5.43,6.3-4.65,2.46-9.41,1.33-11.21.88-4.8-1.21-11.14-4.82-10.68-7.71.52-3.32,9.86-4.74,16.64-4.03Z"/>
        <path class="cls-6" d="m78.64,27.44c1.65.89,7.59,4.1,10.63,1.63,2.89-2.35,1.36-8.35.27-11.02-2.89-7.14-10.17-9.4-11.14-9.69-.55-.16-9.09-2.58-11.41.83-2.61,3.85,3.53,13.86,11.64,18.24Z"/>
      </g>
      <g>
        <path class="cls-5" d="m166.61,45.24c1.55,20.74.58,56.25-22.73,82.07-1.74,1.93-3.63,3.83-5.68,5.68H38.01c-2.05-1.85-3.94-3.75-5.68-5.68C9.03,101.49,8.05,65.98,9.61,45.24h157.01Z"/>
        <g class="cls-1">
          <polyline class="cls-3" points="3.6 58.59 27.44 74.43 51.28 58.59 75.12 74.43 98.96 58.59 122.8 74.43 146.64 58.59 170.49 74.43"/>
          <polyline class="cls-3" points="3.6 76.58 27.44 92.42 51.28 76.58 75.12 92.42 98.96 76.58 122.8 92.42 146.64 76.58 170.49 92.42"/>
        </g>
        <rect class="cls-4" x="0" y="29.12" width="176.22" height="16.11" rx="2.56" ry="2.56"/>
      </g>
    </g>
  </g>
</svg>