<?xml version="1.0" encoding="UTF-8"?>
<svg id="Layer_2" data-name="Layer 2" xmlns="http://www.w3.org/2000/svg" xmlns:xlink="http://www.w3.org/1999/xlink" viewBox="0 0 176.22 193.13">
  <defs>
    <style>
      .cls-1 {
        clip-path: url(#clippath);
      }

      .cls-2, .cls-3 {
        fill: none;
      }

      .cls-2, .cls-4, .cls-5, .cls-6, .cls-7, .cls-8, .cls-9, .cls-10, .cls-11 {
        stroke-width: 0px;
      }

      .cls-3 {
        stroke: #a67c52;
        stroke-miterlimit: 10;
        stroke-width: 7px;
      }

      .cls-4 {
        fill: #f8aeab;
      }

      .cls-5 {
        fill: #f49087;
      }

      .cls-6 {
        fill: #f7a9a0;
      }

      .cls-7 {
        fill: #fabfba;
      }

      .cls-8 {
        fill: #77542e;
      }

      .cls-9 {
        fill: #8c6339;
      }

      .cls-10 {
        fill: #f17872;
      }

      .cls-11 {
        fill: #006937;
      }
    </style>
    <clipPath id="clippath">
      <path class="cls-2" d="m166.19,105.38c1.55,20.74.58,56.25-22.73,82.07-1.74,1.93-3.63,3.83-5.68,5.68H37.59c-2.05-1.85-3.94-3.75-5.68-5.68-23.3-25.81-24.28-61.32-22.73-82.07h157.01Z"/>
    </clipPath>
  </defs>
  <g id="Layer_1-2" data-name="Layer 1">
    <g>
      <g>
        <g>
          <path class="cls-11" d="m49.27,109.93c-24.05-.73-45.43-25.62-34-42.82,5.57-8.37,19.45-15.73,33.42-15.04,24.17,1.19,43.87,26.28,32.27,43.2-5.36,7.82-18.19,15.07-31.69,14.66Z"/>
          <path class="cls-11" d="m49.97,44.23c-5.84-14.44,1.21-34.13,15.56-40.91.83-.39,11.14-5.07,21.9-.58,19.58,8.18,28.9,41.8,16.13,54.74-12.02,12.2-45.16,7.59-53.59-13.25Z"/>
          <path class="cls-11" d="m93.77,26.94C99.13,7.33,127.55-7.32,145.05,3.89c15.26,9.78,19.7,37.61,4.03,52.44-15.16,14.35-41.1,8.89-51.29-5.76-7.38-10.61-4.25-22.82-4.03-23.63Z"/>
          <path class="cls-11" d="m135.83,94.94c5.91-1.85,27.07-8.48,28.24-21.32,1.1-12.21-16.57-22.35-25.35-25.93-23.46-9.57-45.51,2.4-48.4,4.03-1.66.93-26.95,15.5-24.2,28.81,3.09,15.01,40.78,23.48,69.73,14.41Z"/>
          <path class="cls-11" d="m116.24,79.38c5.28.55,33.1,3.46,35.15,14.98,1.49,8.41-11.46,17.36-17.86,20.74-15.3,8.09-30.96,4.38-36.88,2.88-15.79-3.99-36.65-15.86-35.15-25.35,1.72-10.91,32.46-15.58,54.74-13.25Z"/>
          <path class="cls-11" d="m56.95,90.29c5.44,2.94,24.96,13.49,34.97,5.37,9.52-7.72,4.46-27.47.9-36.26-9.51-23.49-33.46-30.94-36.65-31.88-1.83-.54-29.9-8.5-37.53,2.75-8.6,12.68,11.61,45.6,38.3,60.02Z"/>
        </g>
        <g>
          <path class="cls-10" d="m61.49,11.49c.84-1.92,2.44-2.82,3.48-3.41.99-.56,2.14-.99,3.36-1.23.3-.06.48.57.48.57,0,0,1.07-.77,1.38-.77,1.89-.04,3.84.43,5.54,1.62,1.7,1.19,2.55,2.7,3.09,3.68,1.62,2.93,3.5,8.54,1.41,11.34-3.09,4.16-14.71,1.92-18.08-4.59-.27-.53-2.08-4.02-.67-7.22Z"/>
          <path class="cls-5" d="m76.74,8.56c2.45-.6,6.95-.72,8.81,2.19,1.27,2,.62,4.34.48,4.86-.91,3.28-4.22,5.59-7.52,5.81-4.11.28-8.83-2.65-8.9-6.24-.07-3.48,4.27-5.92,7.14-6.62Z"/>
          <path class="cls-4" d="m65.01,11.45c2.45-1.33,3.11-1.93,4.6-1.98,1.37-.04,2.49.42,2.83.57.47.21,1.26.57,1.99,1.39.05.06,1.14,1.3,1.12,2.08-.06,2.04-5.31,4.62-10.04,3.7-2.4-.47-5.1-1.93-5-3.15.06-.71,1.02-.72,4.5-2.6Z"/>
          <path class="cls-10" d="m59.01,13.87c-4.6.73-6.93,16.49,1.36,20.2,2.06.93,4.82,1.06,10.34,1.32,4.51.21,6.76.32,8.54-.13,9.93-2.53,11.44-20.29,7.69-21.31-.62-.17-1.02.22-2.65.9-.4.17-4.49,1.7-9.16,2.09-1.43.12-7.06.54-12.52-1.61-2.45-.96-2.7-1.6-3.59-1.46Z"/>
          <path class="cls-6" d="m70.35,14.86c.44.88,3.16.86,4.62-.52.08-.08,1.16-1.11.85-1.85-.33-.81-2.22-.98-3.55-.34-1.22.59-2.27,2.01-1.92,2.71Z"/>
          <path class="cls-7" d="m70.95,16.99c-.2-.37-.24-1.08.09-1.43.19-.2.41-.19.86-.28,0,0,.69-.14,1.74-.62.76-.35,1.34-.61,1.67-1.17.53-.89-.14-1.55.29-2.03.92-1.01,4.72,1.1,5.22,1.38.07.04.18.1.3.2.45.36.68.85.72,1,.18.71-1.66,2.15-4.07,2.99-2.53.88-6.14,1.25-6.81-.04Z"/>
          <path class="cls-5" d="m71.07,13.99c-1.33-.84-1.43-1.31-2.15-1.74-1.52-.93-4.01-.63-4.43.34-.47,1.08,1.64,2.89,1.86,3.08.36.31,1.46,1.19,3.18,1.51.64.12,2.88.54,4.39-.75.64-.55,1.12-1.39.91-1.68-.21-.29-.94.23-2.08.03-.61-.11-1.01-.36-1.68-.78Z"/>
          <path class="cls-6" d="m58.7,13.82c.18-1.28,1.64-2.14,2.81-2.33,1.47-.24,2.67.56,3.6,1.21,2.15,1.49,2.16,2.82,3.61,3.76,2.13,1.39,4.5-1.23,5.89.06.46.42.87,1.26.61,1.82-.68,1.5-1.25,2.12-4.6,5.55-1.67,1.71.32,2.26-.6,2.11-.07-.01-10.4-10.04-10.63-10.2-.59-.41-.8-1.34-.7-1.99Z"/>
          <path class="cls-6" d="m88.51,14.47c-.13-1.28-1.54-2.21-2.71-2.45-1.46-.3-2.69.45-3.65,1.05-2.22,1.39-2.28,2.72-3.77,3.6-2.19,1.29-4.45-1.42-5.89-.19-.47.4-.92,1.22-.69,1.79.95,2.36,12.79-1.36,15.39-1.67.07,0,.29-.03.53-.18.6-.38.85-1.3.79-1.95Z"/>
          <path class="cls-5" d="m66.61,34.62c-.31,1.3,3.24,1.16,8.04,1.29,3.78.1,5.68.15,6.65-.18,7.74-2.63,9.01-20.75,6.09-21.77-.48-.17-.8.23-2.06.93-3.12,1.72-5.23,1.6-7.14,2.18-3.51,1.08-5.47,3.87-7.93,7.37-1.79,2.55-2.94,7.18-3.65,10.19Z"/>
        </g>
        <g>
          <path class="cls-10" d="m132.79,7.83c1.32-1,2.77-1.01,3.71-1.02.9,0,1.86.14,2.79.45.23.08.11.58.11.58,0,0,1.03-.12,1.25,0,1.32.7,2.49,1.77,3.2,3.25.71,1.48.72,2.85.72,3.73-.01,2.64-.87,7.24-3.38,8.37-3.73,1.68-10.89-4.33-10.71-10.12.01-.47.11-3.57,2.31-5.24Z"/>
          <path class="cls-5" d="m144.45,11.67c1.92.52,5.07,2.17,5.23,4.9.11,1.87-1.24,3.24-1.54,3.54-1.89,1.91-5.06,2.24-7.43,1.12-2.94-1.39-5.07-5.23-3.74-7.73,1.29-2.43,5.22-2.44,7.47-1.83Z"/>
          <path class="cls-4" d="m135.24,9.16c2.2.03,2.89-.14,3.94.4.97.5,1.56,1.25,1.73,1.48.25.33.65.88.84,1.73.01.06.29,1.33-.03,1.87-.82,1.39-5.44,1.15-8.35-1.31-1.48-1.25-2.78-3.29-2.24-4.09.31-.46.98-.1,4.11-.07Z"/>
          <path class="cls-10" d="m130.17,8.52c-3.45-1.26-11.12,8.71-6.83,14.47,1.07,1.43,2.92,2.58,6.63,4.88,3.03,1.88,4.55,2.82,5.95,3.19,7.83,2.07,15.7-9.6,13.5-11.75-.36-.36-.79-.24-2.17-.4-.34-.04-3.75-.55-7.13-2.08-1.04-.47-5.08-2.34-8.03-5.92-1.32-1.61-1.25-2.14-1.92-2.39Z"/>
          <path class="cls-6" d="m137.61,13.56c-.04.77,1.85,1.81,3.39,1.42.08-.02,1.23-.32,1.3-.95.08-.69-1.15-1.53-2.32-1.6-1.07-.06-2.34.51-2.37,1.13Z"/>
          <path class="cls-7" d="m137.21,15.26c0-.33.25-.84.61-.95.21-.06.36.03.7.13,0,0,.53.17,1.44.24.66.05,1.16.09,1.61-.17.71-.41.5-1.12.98-1.29,1.02-.35,2.83,2.57,3.07,2.96.03.05.08.14.13.25.17.42.14.85.11.97-.15.56-1.97.85-3.96.5-2.08-.37-4.72-1.5-4.69-2.64Z"/>
          <path class="cls-5" d="m138.44,13.24c-.59-1.09-.49-1.45-.81-2.03-.69-1.22-2.52-1.98-3.19-1.47-.74.57.02,2.62.1,2.84.13.35.55,1.38,1.62,2.27.39.33,1.78,1.48,3.32,1.17.66-.13,1.31-.53,1.27-.81-.03-.28-.74-.2-1.45-.78-.38-.31-.56-.64-.86-1.19Z"/>
          <path class="cls-6" d="m129.97,8.37c.62-.81,1.95-.85,2.84-.53,1.11.4,1.63,1.41,2.02,2.22.91,1.86.41,2.77,1.05,3.98.94,1.78,3.58.88,4.04,2.31.15.47.11,1.2-.28,1.49-1.05.77-1.68.98-5.31,2.06-1.81.54-.65,1.68-1.23,1.23-.04-.03-3.32-10.93-3.41-11.13-.25-.51-.03-1.23.28-1.64Z"/>
          <path class="cls-6" d="m150.3,20.27c.4-.93-.22-2.12-.93-2.73-.89-.77-2.03-.73-2.93-.68-2.07.11-2.62,1-3.99,1.04-2.01.05-2.52-2.69-3.99-2.4-.48.1-1.11.49-1.17.97-.25,2,9.35,3.98,11.27,4.77.05.02.22.09.44.08.56-.03,1.09-.57,1.29-1.05Z"/>
          <path class="cls-5" d="m127.44,25.76c-.71.78,1.79,2.05,5.05,3.98,2.57,1.52,3.86,2.29,4.66,2.43,6.35,1.16,14.2-10.86,12.57-12.68-.27-.3-.64-.15-1.78-.15-2.81-.01-4.23-.91-5.77-1.24-2.83-.61-5.26.57-8.3,2.04-2.22,1.07-4.79,3.83-6.43,5.63Z"/>
        </g>
        <g>
          <path class="cls-10" d="m31.13,65.52c-.49-1.85.14-3.4.54-4.41.39-.96.96-1.92,1.7-2.78.18-.21.67.14.67.14,0,0,.33-1.15.55-1.34,1.33-1.1,2.98-1.88,4.87-1.99,1.89-.11,3.35.48,4.3.87,2.82,1.17,7.35,4.1,7.45,7.28.16,4.72-9.4,9.73-15.5,7-.5-.22-3.76-1.68-4.58-4.76Z"/>
          <path class="cls-5" d="m40.33,54.76c1.4-1.82,4.55-4.46,7.52-3.44,2.04.7,2.91,2.74,3.1,3.19,1.21,2.85.17,6.38-2.06,8.42-2.78,2.53-7.8,3.12-9.89.61-2.03-2.44-.32-6.64,1.33-8.78Z"/>
          <path class="cls-4" d="m33.62,63.49c.99-2.34,1.12-3.15,2.15-4.03.95-.81,2.01-1.12,2.34-1.2.46-.12,1.23-.31,2.21-.14.07.01,1.55.28,1.98.85,1.12,1.49-1.16,6.31-5.06,8.34-1.98,1.03-4.73,1.52-5.35.59-.36-.54.32-1.09,1.73-4.41Z"/>
          <path class="cls-10" d="m30.71,68.62c-2.86,3.13,4.42,15.69,12.45,13.63,2-.51,4.04-1.99,8.12-4.93,3.34-2.41,5-3.61,6.01-4.95,5.64-7.44-3.37-20.97-6.62-19.56-.54.23-.6.74-1.38,2.14-.19.35-2.24,3.76-5.34,6.7-.95.9-4.72,4.4-9.84,5.97-2.3.71-2.84.39-3.39,1Z"/>
          <path class="cls-6" d="m39.36,62.89c.81.38,2.74-1.18,3-2.99.01-.1.19-1.45-.44-1.8-.7-.39-2.14.56-2.72,1.78-.54,1.12-.48,2.72.17,3.02Z"/>
          <path class="cls-7" d="m40.99,64.06c-.35-.16-.79-.63-.75-1.07.02-.25.19-.37.45-.69,0,0,.41-.49.89-1.43.34-.68.61-1.2.53-1.79-.13-.93-.98-1.02-.94-1.61.08-1.25,3.98-1.9,4.5-1.98.07-.01.18-.03.33-.03.53,0,.97.22,1.08.31.53.41.04,2.47-1.21,4.44-1.31,2.06-3.66,4.38-4.88,3.84Z"/>
          <path class="cls-5" d="m39.38,61.86c-1.42.15-1.77-.12-2.52-.02-1.61.2-3.22,1.83-2.97,2.76.28,1.04,2.81,1.13,3.08,1.13.43.02,1.72.01,3.13-.73.52-.28,2.36-1.25,2.7-3.03.14-.76,0-1.63-.3-1.71-.31-.09-.54.7-1.47,1.21-.49.27-.92.32-1.64.4Z"/>
          <path class="cls-6" d="m30.46,68.76c-.59-1.01-.05-2.46.68-3.26.92-1.01,2.22-1.11,3.26-1.19,2.38-.16,3.14.78,4.71.63,2.31-.22,2.51-3.43,4.24-3.3.57.04,1.33.41,1.47.95.37,1.46.31,2.22-.13,6.57-.22,2.17,1.51,1.43.77,1.85-.05.03-13.12-1.25-13.37-1.23-.65.04-1.33-.5-1.63-1.02Z"/>
          <path class="cls-6" d="m52.08,52.29c-.82-.84-2.35-.7-3.32-.21-1.21.62-1.66,1.85-2.01,2.82-.79,2.25-.08,3.24-.64,4.71-.82,2.17-3.98,1.51-4.31,3.21-.11.56.04,1.4.53,1.67,2.02,1.15,8.34-8.23,10.02-9.93.04-.04.19-.19.28-.43.22-.61-.13-1.41-.55-1.84Z"/>
          <path class="cls-5" d="m47.91,79.1c.52,1.1,2.97-1.01,6.46-3.65,2.75-2.08,4.13-3.12,4.64-3.9,4.02-6.27-5.36-19.91-8.02-18.98-.44.15-.44.62-.94,1.83-1.25,3-2.82,4.11-3.85,5.61-1.89,2.76-1.7,5.87-1.47,9.75.17,2.83,1.99,6.79,3.19,9.33Z"/>
        </g>
        <g>
          <path class="cls-10" d="m80.64,52.14c.46-2.05,1.85-3.24,2.76-4.02.86-.74,1.91-1.38,3.06-1.85.29-.12.58.47.58.47,0,0,.9-.96,1.21-1.03,1.85-.4,3.85-.32,5.74.52,1.9.84,3.02,2.16,3.74,3.02,2.15,2.56,5.08,7.7,3.57,10.86-2.24,4.68-14.07,4.72-18.63-1.02-.37-.47-2.81-3.54-2.05-6.95Z"/>
          <path class="cls-5" d="m95.05,46.32c2.29-1.06,6.68-2.05,9.06.46,1.63,1.71,1.45,4.14,1.41,4.67-.26,3.39-3.06,6.3-6.26,7.15-3.98,1.06-9.17-.9-9.94-4.41-.74-3.41,3.05-6.63,5.73-7.87Z"/>
          <path class="cls-4" d="m84.09,51.43c2.15-1.77,2.68-2.5,4.13-2.83,1.34-.31,2.52-.07,2.89.01.51.12,1.35.32,2.22.98.06.05,1.37,1.06,1.5,1.83.34,2.01-4.32,5.56-9.14,5.56-2.45,0-5.38-.91-5.51-2.13-.08-.71.86-.9,3.92-3.42Z"/>
          <path class="cls-10" d="m78.67,54.95c-4.37,1.6-3.62,17.51,5.23,19.56,2.2.51,4.94.11,10.4-.7,4.47-.66,6.7-.99,8.36-1.78,9.26-4.4,7.32-22.12,3.44-22.39-.64-.05-.96.41-2.42,1.39-.36.24-4.08,2.53-8.59,3.82-1.38.4-6.82,1.89-12.6.84-2.59-.47-2.96-1.05-3.81-.74Z"/>
          <path class="cls-6" d="m89.99,53.74c.6.77,3.27.24,4.43-1.4.06-.09.92-1.32.48-1.98-.48-.73-2.37-.53-3.55.35-1.09.82-1.84,2.41-1.36,3.03Z"/>
          <path class="cls-7" d="m90.99,55.71c-.26-.33-.45-1.01-.19-1.42.15-.23.37-.27.79-.44,0,0,.65-.27,1.59-.95.68-.49,1.2-.86,1.42-1.47.35-.97-.44-1.49-.1-2.04.71-1.17,4.84.17,5.38.35.07.02.19.07.33.14.52.27.83.7.9.85.31.66-1.21,2.43-3.42,3.72-2.31,1.35-5.78,2.41-6.69,1.28Z"/>
          <path class="cls-5" d="m90.53,52.75c-1.46-.57-1.66-1.01-2.45-1.3-1.67-.62-4.06.15-4.28,1.19-.25,1.15,2.17,2.52,2.42,2.66.41.23,1.66.88,3.41.87.65,0,2.93-.02,4.16-1.59.52-.67.83-1.58.57-1.82-.26-.24-.88.41-2.04.43-.62.01-1.06-.16-1.8-.44Z"/>
          <path class="cls-6" d="m78.36,54.97c-.06-1.29,1.19-2.42,2.31-2.83,1.4-.52,2.73.04,3.77.49,2.4,1.05,2.66,2.35,4.27,3,2.36.95,4.18-2.07,5.8-1.07.53.33,1.09,1.07.95,1.67-.38,1.61-.82,2.32-3.45,6.33-1.31,2.01.75,2.16-.18,2.19-.07,0-12.14-7.85-12.4-7.96-.66-.29-1.04-1.16-1.07-1.81Z"/>
          <path class="cls-6" d="m107.73,49.86c-.37-1.23-1.94-1.87-3.13-1.88-1.49-.01-2.55.96-3.38,1.74-1.91,1.8-1.71,3.11-3.01,4.26-1.9,1.69-4.64-.54-5.82.95-.39.49-.67,1.38-.33,1.89,1.39,2.14,12.29-3.8,14.78-4.61.07-.02.28-.09.49-.28.52-.49.59-1.44.4-2.07Z"/>
          <path class="cls-5" d="m90.13,73.85c-.05,1.34,3.41.52,8.14-.28,3.73-.63,5.6-.95,6.49-1.46,7.09-4.08,4.84-22.1,1.78-22.54-.51-.07-.74.38-1.85,1.31-2.73,2.29-4.83,2.58-6.59,3.52-3.24,1.73-4.62,4.85-6.36,8.76-1.27,2.85-1.5,7.62-1.61,10.7Z"/>
        </g>
        <g>
          <path class="cls-10" d="m131.43,59.74c1.27-1.27,2.83-1.5,3.85-1.64.97-.14,2.02-.12,3.07.07.26.05.2.61.2.61,0,0,1.09-.28,1.35-.19,1.53.56,2.94,1.54,3.92,3.02.99,1.49,1.2,2.96,1.32,3.91.38,2.85.14,7.92-2.41,9.51-3.77,2.36-12.37-3.05-13.03-9.31-.05-.51-.41-3.86,1.72-5.98Z"/>
          <path class="cls-5" d="m144.55,62.15c2.15.28,5.78,1.59,6.36,4.5.39,1.99-.86,3.67-1.13,4.03-1.75,2.34-5.12,3.16-7.83,2.3-3.37-1.06-6.23-4.88-5.17-7.77,1.03-2.81,5.26-3.4,7.77-3.07Z"/>
          <path class="cls-4" d="m134.26,60.8c2.37-.3,3.09-.58,4.3-.15,1.11.39,1.86,1.11,2.09,1.34.31.32.83.85,1.16,1.73.02.06.5,1.39.24,2.01-.68,1.61-5.69,2.04-9.18-.18-1.77-1.12-3.48-3.13-3.01-4.08.27-.55,1.04-.26,4.41-.68Z"/>
          <path class="cls-10" d="m128.71,60.86c-3.9-.85-10.68,11.02-5.21,16.58,1.36,1.38,3.53,2.35,7.86,4.28,3.54,1.58,5.31,2.37,6.87,2.56,8.73,1.07,15.48-12.66,12.79-14.64-.44-.33-.89-.14-2.4-.11-.37,0-4.12-.04-7.98-1.19-1.18-.35-5.81-1.77-9.51-5.19-1.66-1.54-1.66-2.12-2.42-2.29Z"/>
          <path class="cls-6" d="m137.46,65.2c.08.84,2.26,1.67,3.86,1.03.09-.04,1.27-.53,1.26-1.21-.01-.75-1.47-1.48-2.74-1.38-1.16.09-2.44.9-2.38,1.56Z"/>
          <path class="cls-7" d="m137.28,67.08c-.04-.36.14-.94.51-1.11.21-.1.39-.03.77.04,0,0,.6.1,1.59.05.72-.04,1.26-.07,1.7-.42.7-.55.37-1.28.86-1.53,1.05-.52,3.43,2.35,3.74,2.73.04.05.11.14.18.25.25.43.28.89.26,1.03-.08.62-1.99,1.2-4.19,1.12-2.3-.09-5.3-.91-5.43-2.15Z"/>
          <path class="cls-5" d="m138.31,64.72c-.8-1.09-.74-1.49-1.17-2.07-.93-1.22-3.01-1.76-3.65-1.11-.71.72.41,2.82.53,3.04.19.36.8,1.4,2.07,2.2.47.29,2.14,1.33,3.75.77.69-.24,1.33-.76,1.25-1.06-.08-.3-.82-.11-1.68-.62-.45-.27-.7-.6-1.1-1.15Z"/>
          <path class="cls-6" d="m128.47,60.73c.55-.96,1.98-1.2,2.98-.99,1.25.27,1.96,1.28,2.5,2.09,1.26,1.86.85,2.93,1.71,4.13,1.27,1.77,3.98.42,4.69,1.89.23.48.3,1.28-.08,1.65-1.01.99-1.66,1.3-5.41,3-1.87.85-.45,1.91-1.14,1.5-.05-.03-5.18-11.28-5.32-11.47-.34-.51-.22-1.32.06-1.81Z"/>
          <path class="cls-6" d="m152.11,70.54c.3-1.07-.54-2.25-1.4-2.8-1.08-.7-2.29-.48-3.25-.3-2.21.42-2.67,1.46-4.14,1.7-2.15.35-3.11-2.52-4.65-1.99-.51.18-1.12.69-1.11,1.22.02,2.19,10.65,2.9,12.83,3.47.06.01.25.07.48.02.6-.12,1.09-.78,1.24-1.32Z"/>
          <path class="cls-5" d="m128.31,79.83c-.65.95,2.23,1.94,6.03,3.54,2.99,1.26,4.49,1.89,5.37,1.93,7.01.31,13.68-13.78,11.66-15.51-.33-.29-.71-.06-1.94.1-3.03.4-4.68-.36-6.39-.48-3.14-.23-5.58,1.39-8.64,3.42-2.23,1.48-4.59,4.83-6.09,7.01Z"/>
        </g>
      </g>
      <g>
        <path class="cls-9" d="m166.61,105.38c1.55,20.74.58,56.25-22.73,82.07-1.74,1.93-3.63,3.83-5.68,5.68H38.01c-2.05-1.85-3.94-3.75-5.68-5.68-23.3-25.81-24.28-61.32-22.73-82.07h157.01Z"/>
        <g class="cls-1">
          <polyline class="cls-3" points="3.6 118.73 27.44 134.57 51.28 118.73 75.12 134.57 98.96 118.73 122.8 134.57 146.64 118.73 170.49 134.57"/>
          <polyline class="cls-3" points="3.6 136.72 27.44 152.56 51.28 136.72 75.12 152.56 98.96 136.72 122.8 152.56 146.64 136.72 170.49 152.56"/>
        </g>
        <rect class="cls-8" y="89.27" width="176.22" height="16.11" rx="2.56" ry="2.56"/>
      </g>
    </g>
  </g>
</svg>