<?xml version="1.0" encoding="UTF-8"?>
<svg id="Layer_2" data-name="Layer 2" xmlns="http://www.w3.org/2000/svg" viewBox="0 0 46.2 36.51">
  <defs>
    <style>
      .cls-1 {
        fill: #006937;
        stroke-width: 0px;
      }
    </style>
  </defs>
  <g id="Layer_1-2" data-name="Layer 1">
    <g>
      <path class="cls-1" d="m11.3,33.41c-7.31-.22-13.81-7.79-10.33-13.01,1.69-2.54,5.91-4.78,10.16-4.57,7.35.36,13.33,7.99,9.81,13.13-1.63,2.38-5.53,4.58-9.63,4.45Z"/>
      <path class="cls-1" d="m11.51,13.44c-1.78-4.39.37-10.37,4.73-12.43.25-.12,3.38-1.54,6.65-.18,5.95,2.48,8.78,12.7,4.9,16.64-3.65,3.71-13.72,2.31-16.29-4.03Z"/>
      <path class="cls-1" d="m24.82,8.19c1.63-5.96,10.27-10.41,15.59-7.01,4.64,2.97,5.99,11.43,1.23,15.94-4.61,4.36-12.49,2.7-15.59-1.75-2.24-3.23-1.29-6.94-1.23-7.18Z"/>
      <path class="cls-1" d="m37.6,28.85c1.79-.56,8.23-2.58,8.58-6.48.34-3.71-5.04-6.79-7.71-7.88-7.13-2.91-13.83.73-14.71,1.23-.5.28-8.19,4.71-7.36,8.76.94,4.56,12.39,7.13,21.19,4.38Z"/>
      <path class="cls-1" d="m31.65,24.12c1.6.17,10.06,1.05,10.68,4.55.45,2.56-3.48,5.28-5.43,6.3-4.65,2.46-9.41,1.33-11.21.88-4.8-1.21-11.14-4.82-10.68-7.71.52-3.32,9.86-4.74,16.64-4.03Z"/>
      <path class="cls-1" d="m13.63,27.44c1.65.89,7.59,4.1,10.63,1.63,2.89-2.35,1.36-8.35.27-11.02-2.89-7.14-10.17-9.4-11.14-9.69-.55-.16-9.09-2.58-11.41.83-2.61,3.85,3.53,13.86,11.64,18.24Z"/>
    </g>
  </g>
</svg>