<?xml version="1.0" encoding="UTF-8"?>
<svg id="Layer_2" data-name="Layer 2" xmlns="http://www.w3.org/2000/svg" xmlns:xlink="http://www.w3.org/1999/xlink" viewBox="0 0 176.22 164.51">
  <defs>
    <style>
      .cls-1 {
        clip-path: url(#clippath);
      }

      .cls-2, .cls-3 {
        fill: none;
      }

      .cls-2, .cls-4, .cls-5, .cls-6, .cls-7, .cls-8, .cls-9, .cls-10, .cls-11 {
        stroke-width: 0px;
      }

      .cls-3 {
        stroke: #a67c52;
        stroke-miterlimit: 10;
        stroke-width: 7px;
      }

      .cls-4 {
        fill: #f8aeab;
      }

      .cls-5 {
        fill: #f49087;
      }

      .cls-6 {
        fill: #f7a9a0;
      }

      .cls-7 {
        fill: #fabfba;
      }

      .cls-8 {
        fill: #77542e;
      }

      .cls-9 {
        fill: #8c6339;
      }

      .cls-10 {
        fill: #f17872;
      }

      .cls-11 {
        fill: #006937;
      }
    </style>
    <clipPath id="clippath">
      <path class="cls-2" d="m166.19,76.76c1.55,20.74.58,56.25-22.73,82.07-1.74,1.93-3.63,3.83-5.68,5.68H37.59c-2.05-1.85-3.94-3.75-5.68-5.68-23.3-25.81-24.28-61.32-22.73-82.07h157.01Z"/>
    </clipPath>
  </defs>
  <g id="Layer_1-2" data-name="Layer 1">
    <g>
      <g>
        <g>
          <path class="cls-11" d="m64.81,65.95c-14.43-.44-27.26-15.37-20.4-25.69,3.34-5.02,11.67-9.44,20.05-9.03,14.5.72,26.32,15.76,19.36,25.92-3.21,4.69-10.91,9.04-19.01,8.79Z"/>
          <path class="cls-11" d="m65.23,26.53c-3.51-8.66.72-20.47,9.33-24.55.5-.24,6.68-3.04,13.14-.35,11.75,4.91,17.34,25.07,9.68,32.84-7.21,7.32-27.09,4.55-32.15-7.95Z"/>
          <path class="cls-11" d="m91.5,16.16c3.21-11.76,20.27-20.55,30.77-13.83,9.16,5.86,11.82,22.56,2.42,31.46-9.1,8.61-24.66,5.34-30.77-3.46-4.43-6.37-2.55-13.69-2.42-14.17Z"/>
          <path class="cls-11" d="m116.74,56.96c3.54-1.11,16.24-5.09,16.94-12.79.66-7.32-9.94-13.41-15.21-15.56-14.08-5.74-27.3,1.44-29.04,2.42-.99.56-16.17,9.3-14.52,17.29,1.86,9,24.47,14.08,41.83,8.64Z"/>
          <path class="cls-11" d="m104.99,47.62c3.17.33,19.86,2.08,21.09,8.99.9,5.04-6.87,10.41-10.72,12.45-9.18,4.85-18.58,2.63-22.13,1.73-9.48-2.39-21.99-9.51-21.09-15.21,1.03-6.54,19.47-9.35,32.84-7.95Z"/>
          <path class="cls-11" d="m69.41,54.17c3.27,1.76,14.97,8.09,20.98,3.22,5.71-4.63,2.68-16.48.54-21.75-5.7-14.09-20.07-18.56-21.99-19.12-1.09-.32-17.94-5.1-22.51,1.65-5.16,7.61,6.97,27.36,22.98,36.01Z"/>
        </g>
        <g>
          <path class="cls-10" d="m61.95,22.65c.51-1.15,1.46-1.69,2.09-2.05.59-.34,1.28-.59,2.02-.74.18-.04.29.34.29.34,0,0,.64-.46.83-.46,1.14-.02,2.3.26,3.32.97,1.02.72,1.53,1.62,1.85,2.21.97,1.76,2.1,5.12.85,6.8-1.86,2.49-8.83,1.15-10.85-2.75-.16-.32-1.25-2.41-.4-4.33Z"/>
          <path class="cls-5" d="m71.1,20.89c1.47-.36,4.17-.43,5.28,1.32.76,1.2.37,2.61.29,2.91-.55,1.97-2.53,3.36-4.51,3.49-2.47.16-5.3-1.59-5.34-3.74-.04-2.09,2.56-3.55,4.28-3.97Z"/>
          <path class="cls-4" d="m64.06,22.63c1.47-.8,1.87-1.16,2.76-1.19.82-.03,1.49.25,1.7.34.28.13.76.34,1.19.83.03.03.68.78.67,1.25-.03,1.22-3.19,2.77-6.03,2.22-1.44-.28-3.06-1.16-3-1.89.04-.42.61-.43,2.7-1.56Z"/>
          <path class="cls-10" d="m60.46,24.08c-2.76.44-4.16,9.89.82,12.12,1.24.56,2.89.63,6.2.79,2.71.13,4.06.19,5.12-.08,5.96-1.52,6.86-12.17,4.61-12.78-.37-.1-.61.13-1.59.54-.24.1-2.69,1.02-5.5,1.26-.86.07-4.23.33-7.51-.96-1.47-.58-1.62-.96-2.16-.88Z"/>
          <path class="cls-6" d="m67.26,24.67c.26.53,1.9.52,2.77-.31.05-.05.69-.67.51-1.11-.2-.49-1.33-.59-2.13-.2-.73.35-1.36,1.2-1.15,1.62Z"/>
          <path class="cls-7" d="m67.62,25.94c-.12-.22-.15-.65.05-.86.11-.12.25-.12.51-.17,0,0,.42-.08,1.05-.37.46-.21.8-.37,1-.7.32-.53-.09-.93.17-1.22.55-.61,2.83.66,3.13.83.04.02.11.06.18.12.27.22.41.51.43.6.11.43-.99,1.29-2.44,1.79-1.52.53-3.68.75-4.09-.02Z"/>
          <path class="cls-5" d="m67.69,24.15c-.8-.51-.86-.78-1.29-1.05-.91-.56-2.41-.38-2.66.21-.28.65.98,1.73,1.12,1.85.21.18.88.71,1.91.91.38.07,1.73.33,2.63-.45.39-.33.67-.84.55-1.01-.13-.17-.56.14-1.25.02-.36-.06-.61-.21-1.01-.47Z"/>
          <path class="cls-6" d="m60.27,24.05c.11-.77.98-1.28,1.69-1.4.88-.14,1.6.34,2.16.73,1.29.89,1.3,1.69,2.17,2.26,1.28.83,2.7-.74,3.54.04.27.25.52.76.37,1.09-.41.9-.75,1.27-2.76,3.33-1,1.03.19,1.36-.36,1.27-.04,0-6.24-6.03-6.38-6.12-.35-.24-.48-.8-.42-1.19Z"/>
          <path class="cls-6" d="m78.16,24.43c-.08-.77-.93-1.33-1.62-1.47-.88-.18-1.61.27-2.19.63-1.33.84-1.37,1.63-2.26,2.16-1.31.78-2.67-.85-3.53-.12-.28.24-.55.73-.41,1.08.57,1.42,7.67-.82,9.24-1,.04,0,.18-.02.32-.11.36-.23.51-.78.47-1.17Z"/>
          <path class="cls-5" d="m65.02,36.52c-.18.78,1.95.7,4.82.77,2.27.06,3.41.09,3.99-.11,4.64-1.58,5.4-12.45,3.65-13.06-.29-.1-.48.14-1.24.56-1.87,1.03-3.14.96-4.28,1.31-2.1.65-3.28,2.32-4.76,4.42-1.07,1.53-1.76,4.31-2.19,6.11Z"/>
        </g>
        <g>
          <path class="cls-10" d="m96.28,15.4c.09-1.25.82-2.08,1.29-2.62.45-.51,1.01-.99,1.66-1.36.16-.09.39.23.39.23,0,0,.45-.65.63-.71,1.06-.4,2.26-.52,3.46-.19,1.2.34,1.98,1.02,2.48,1.47,1.5,1.34,3.68,4.13,3.06,6.14-.92,2.97-7.94,4.02-11.15,1-.26-.25-1.97-1.86-1.82-3.95Z"/>
          <path class="cls-5" d="m104.33,10.7c1.27-.83,3.79-1.79,5.42-.51,1.12.88,1.22,2.33,1.24,2.65.14,2.04-1.27,4.01-3.1,4.79-2.27.97-5.52.26-6.28-1.76-.73-1.96,1.24-4.2,2.72-5.17Z"/>
          <path class="cls-4" d="m98.27,14.68c1.12-1.24,1.37-1.71,2.21-2.04.77-.3,1.49-.26,1.71-.24.31.02.83.07,1.4.39.04.02.9.51,1.05.96.37,1.17-2.09,3.67-4.95,4.09-1.45.21-3.27-.07-3.46-.79-.11-.41.43-.61,2.03-2.37Z"/>
          <path class="cls-10" d="m95.35,17.24c-2.46,1.33-.64,10.71,4.79,11.16,1.35.11,2.94-.36,6.11-1.31,2.59-.78,3.89-1.17,4.81-1.78,5.11-3.41,2.43-13.76.1-13.59-.39.03-.53.33-1.32,1.03-.19.17-2.2,1.85-4.77,3.01-.79.35-3.89,1.71-7.41,1.59-1.58-.06-1.85-.37-2.33-.11Z"/>
          <path class="cls-6" d="m101.97,15.54c.42.41,1.96-.14,2.51-1.21.03-.06.43-.86.11-1.22-.35-.39-1.45-.11-2.08.52-.58.58-.89,1.59-.55,1.91Z"/>
          <path class="cls-7" d="m102.73,16.62c-.19-.17-.35-.56-.24-.82.07-.15.2-.19.43-.33,0,0,.36-.22.86-.7.36-.35.64-.61.71-1,.12-.61-.39-.85-.24-1.2.32-.76,2.89-.32,3.23-.26.05,0,.12.02.21.05.33.11.55.34.61.42.24.37-.51,1.55-1.71,2.5-1.26,1-3.22,1.93-3.86,1.34Z"/>
          <path class="cls-5" d="m102.2,14.91c-.92-.21-1.07-.45-1.56-.56-1.05-.22-2.4.44-2.44,1.08-.05.7,1.5,1.31,1.67,1.37.26.1,1.06.38,2.1.22.38-.06,1.74-.27,2.33-1.3.25-.44.36-1.01.18-1.13-.18-.12-.49.32-1.17.43-.36.06-.64,0-1.11-.11Z"/>
          <path class="cls-6" d="m95.17,17.27c-.15-.76.5-1.54,1.13-1.88.79-.43,1.62-.21,2.28-.03,1.52.41,1.78,1.16,2.79,1.41,1.48.36,2.3-1.59,3.35-1.14.34.15.74.54.71.91-.09.99-.29,1.45-1.5,4.06-.61,1.3.63,1.22.08,1.32-.04,0-7.89-3.61-8.05-3.66-.41-.11-.72-.6-.79-.98Z"/>
          <path class="cls-6" d="m112.16,11.7c-.33-.7-1.31-.94-2.02-.85-.89.12-1.43.79-1.86,1.32-.98,1.23-.75,1.99-1.42,2.79-.98,1.17-2.8.08-3.37,1.06-.19.32-.28.88-.03,1.15,1.01,1.15,6.97-3.32,8.38-4.01.04-.02.16-.08.26-.21.27-.34.22-.91.06-1.26Z"/>
          <path class="cls-5" d="m103.78,27.47c.09.8,2.07.01,4.81-.87,2.16-.7,3.24-1.05,3.73-1.43,3.85-3.03.96-13.54-.89-13.53-.31,0-.4.29-.98.94-1.42,1.59-2.64,1.95-3.61,2.66-1.77,1.31-2.33,3.28-3.02,5.75-.51,1.8-.23,4.65-.03,6.49Z"/>
        </g>
        <g>
          <path class="cls-10" d="m91.1,44.66c0-1.08.58-1.83.95-2.32.35-.47.81-.9,1.34-1.27.13-.09.34.17.34.17,0,0,.35-.58.5-.65.89-.4,1.9-.58,2.95-.36,1.05.22,1.76.76,2.21,1.11,1.36,1.06,3.4,3.32,2.98,5.08-.62,2.6-6.57,3.91-9.49,1.52-.24-.19-1.8-1.48-1.79-3.28Z"/>
          <path class="cls-5" d="m97.71,40.16c1.03-.78,3.14-1.76,4.61-.76,1.01.68,1.18,1.93,1.22,2.2.24,1.74-.86,3.5-2.37,4.28-1.89.97-4.72.55-5.48-1.14-.74-1.63.81-3.67,2.03-4.59Z"/>
          <path class="cls-4" d="m92.76,43.92c.89-1.13,1.08-1.55,1.77-1.88.64-.3,1.26-.31,1.45-.31.27,0,.71.01,1.22.25.03.02.8.38.95.76.39.98-1.57,3.27-4,3.79-1.23.27-2.81.13-3.01-.47-.12-.35.33-.55,1.6-2.15Z"/>
          <path class="cls-10" d="m90.41,46.29c-2.03,1.28.08,9.21,4.76,9.28,1.16.02,2.5-.48,5.16-1.49,2.18-.82,3.26-1.23,4.01-1.8,4.18-3.22,1.27-11.93-.71-11.64-.33.05-.44.31-1.07.96-.15.16-1.78,1.72-3.91,2.86-.65.35-3.23,1.7-6.25,1.79-1.36.04-1.6-.21-2,.04Z"/>
          <path class="cls-6" d="m95.98,44.45c.38.33,1.67-.24,2.08-1.19.02-.05.32-.76.03-1.05-.32-.31-1.25-.01-1.75.56-.46.53-.66,1.41-.36,1.67Z"/>
          <path class="cls-7" d="m96.69,45.33c-.17-.14-.34-.46-.25-.69.05-.13.16-.18.35-.31,0,0,.3-.21.7-.65.29-.32.51-.56.55-.9.07-.53-.38-.7-.28-1.02.23-.67,2.45-.44,2.75-.41.04,0,.1.01.18.03.29.08.49.26.55.33.23.3-.35,1.35-1.32,2.24-1.02.93-2.65,1.84-3.23,1.37Z"/>
          <path class="cls-5" d="m96.14,43.89c-.8-.13-.94-.33-1.37-.39-.91-.13-2.03.52-2.03,1.07,0,.61,1.36,1.03,1.51,1.07.23.07.93.26,1.81.06.33-.07,1.47-.33,1.92-1.25.19-.39.25-.89.09-.98-.16-.09-.4.3-.98.44-.31.07-.55.04-.95-.03Z"/>
          <path class="cls-6" d="m90.25,46.33c-.17-.64.34-1.35.85-1.68.65-.41,1.38-.28,1.95-.16,1.32.27,1.6.89,2.47,1.04,1.29.22,1.88-1.5,2.8-1.17.3.11.67.42.66.74-.02.85-.16,1.26-1.04,3.56-.44,1.15.61,1.01.15,1.12-.03,0-6.97-2.63-7.11-2.66-.36-.07-.65-.47-.74-.8Z"/>
          <path class="cls-6" d="m104.48,40.56c-.32-.58-1.18-.73-1.78-.61-.75.16-1.18.76-1.51,1.24-.76,1.11-.52,1.75-1.05,2.47-.77,1.06-2.39.23-2.82,1.11-.14.29-.19.77.04.99.93.92,5.77-3.25,6.94-3.93.03-.02.13-.08.21-.19.21-.3.14-.79-.03-1.08Z"/>
          <path class="cls-5" d="m98.23,54.55c.12.68,1.77-.11,4.06-1.03,1.81-.72,2.71-1.09,3.11-1.44,3.12-2.82.03-11.65-1.56-11.54-.26.02-.33.27-.79.86-1.12,1.45-2.15,1.82-2.93,2.49-1.44,1.22-1.8,2.95-2.25,5.1-.33,1.57.08,4,.35,5.56Z"/>
        </g>
      </g>
      <g>
        <path class="cls-9" d="m166.61,76.76c1.55,20.74.58,56.25-22.73,82.07-1.74,1.93-3.63,3.83-5.68,5.68H38.01c-2.05-1.85-3.94-3.75-5.68-5.68-23.3-25.81-24.28-61.32-22.73-82.07h157.01Z"/>
        <g class="cls-1">
          <polyline class="cls-3" points="3.6 90.11 27.44 105.95 51.28 90.11 75.12 105.95 98.96 90.11 122.8 105.95 146.64 90.11 170.49 105.95"/>
          <polyline class="cls-3" points="3.6 108.11 27.44 123.95 51.28 108.11 75.12 123.95 98.96 108.11 122.8 123.95 146.64 108.11 170.49 123.95"/>
        </g>
        <rect class="cls-8" y="60.65" width="176.22" height="16.11" rx="2.56" ry="2.56"/>
      </g>
    </g>
  </g>
</svg>